<svg id="svg" version="1.1" xmlns="http://www.w3.org/2000/svg" xmlns:xlink="http://www.w3.org/1999/xlink" width="400" height="400" viewBox="0, 0, 400,400"><g id="svgg"><path id="path0" d="M59.367 79.967 C 58.932 80.401,59.272 84.591,59.849 85.913 C 60.342 87.042,60.580 89.565,60.839 96.400 C 61.088 102.964,61.346 105.779,61.790 106.800 C 62.231 107.812,62.492 110.583,62.733 116.800 C 62.968 122.906,63.227 125.690,63.625 126.400 C 64.037 127.134,64.250 129.795,64.426 136.400 C 64.621 143.688,64.793 145.635,65.330 146.635 C 65.859 147.620,66.046 149.565,66.250 156.235 C 66.432 162.191,66.675 165.003,67.093 166.000 C 67.508 166.990,67.776 170.033,68.010 176.400 C 68.250 182.959,68.500 185.725,68.929 186.600 C 69.365 187.489,69.571 189.930,69.722 196.024 C 69.881 202.447,70.071 204.593,70.591 205.824 C 71.102 207.033,71.331 209.449,71.577 216.200 C 71.807 222.523,72.066 225.394,72.496 226.400 C 72.937 227.430,73.158 230.110,73.335 236.551 C 73.532 243.779,73.691 245.479,74.244 246.323 C 74.799 247.170,74.946 248.790,75.105 255.773 C 75.248 262.027,75.452 264.561,75.898 265.600 C 76.329 266.607,76.594 269.527,76.839 276.000 C 77.088 282.564,77.346 285.379,77.790 286.400 C 78.231 287.412,78.492 290.183,78.733 296.400 C 78.968 302.506,79.227 305.290,79.625 306.000 C 80.040 306.740,80.240 309.346,80.393 316.039 C 80.540 322.468,80.746 325.253,81.105 325.686 C 81.762 326.477,82.377 332.901,82.390 339.113 C 82.397 342.740,82.569 344.415,83.047 345.513 C 83.542 346.650,83.767 349.130,84.005 356.059 C 84.370 366.646,84.540 367.283,87.091 367.625 C 88.015 367.749,89.124 368.170,89.556 368.560 C 90.057 369.013,91.256 369.349,92.870 369.487 C 94.262 369.606,95.704 369.969,96.077 370.293 C 96.449 370.617,97.837 371.010,99.162 371.166 C 100.506 371.324,101.901 371.748,102.317 372.125 C 102.727 372.496,103.589 372.804,104.231 372.810 C 105.952 372.824,108.476 373.476,108.793 373.988 C 108.945 374.234,110.382 374.575,111.988 374.747 C 113.838 374.944,115.071 375.281,115.354 375.666 C 115.634 376.048,116.759 376.360,118.383 376.506 C 120.097 376.661,121.126 376.958,121.442 377.390 C 121.759 377.823,122.875 378.142,124.790 378.347 C 126.496 378.529,127.799 378.876,128.000 379.200 C 128.202 379.526,129.517 379.872,131.264 380.059 C 133.163 380.262,134.350 380.591,134.646 380.995 C 134.927 381.380,136.114 381.741,137.739 381.937 C 139.257 382.119,140.691 382.540,141.119 382.927 C 141.609 383.370,142.551 383.600,143.878 383.600 C 145.289 383.600,146.198 383.840,146.912 384.403 C 147.568 384.918,148.840 385.295,150.466 385.456 C 151.860 385.594,153.309 385.976,153.687 386.304 C 154.065 386.632,155.573 387.025,157.038 387.176 C 158.700 387.348,159.872 387.682,160.151 388.063 C 160.431 388.443,161.535 388.757,163.087 388.897 C 164.746 389.047,165.930 389.401,166.641 389.961 C 167.416 390.570,168.281 390.800,169.800 390.800 C 171.227 390.800,172.195 391.036,172.846 391.541 C 173.429 391.994,174.755 392.367,176.258 392.499 C 178.021 392.655,178.955 392.955,179.558 393.558 C 180.195 394.195,180.899 394.400,182.453 394.400 C 183.748 394.400,184.966 394.676,185.753 395.149 C 186.439 395.561,188.080 396.015,189.400 396.158 C 190.807 396.311,191.987 396.667,192.252 397.020 C 192.538 397.401,193.711 397.711,195.452 397.866 C 198.513 398.138,199.600 398.544,199.600 399.414 C 199.600 400.294,200.158 400.119,200.605 399.100 C 200.945 398.325,201.407 398.164,203.928 397.939 C 205.905 397.762,207.009 397.470,207.328 397.040 C 207.633 396.628,208.721 396.313,210.400 396.149 C 212.008 395.992,213.305 395.627,213.800 395.192 C 214.317 394.738,215.480 394.429,217.085 394.320 C 218.636 394.215,219.845 393.902,220.302 393.489 C 220.705 393.124,222.103 392.705,223.417 392.556 C 224.728 392.407,226.250 391.974,226.800 391.595 C 227.350 391.215,228.832 390.821,230.094 390.720 C 231.560 390.602,232.684 390.267,233.209 389.792 C 233.762 389.291,234.840 388.993,236.515 388.879 C 237.920 388.782,239.294 388.450,239.677 388.113 C 240.049 387.786,241.437 387.390,242.762 387.234 C 244.087 387.078,245.493 386.671,245.885 386.329 C 246.279 385.987,247.759 385.592,249.176 385.452 C 250.938 385.277,252.021 384.944,252.602 384.398 C 253.208 383.829,254.004 383.600,255.379 383.600 C 256.551 383.600,257.794 383.307,258.553 382.851 C 259.239 382.439,260.872 381.983,262.183 381.838 C 263.494 381.692,264.844 381.328,265.183 381.027 C 265.522 380.726,267.045 380.290,268.566 380.056 C 270.088 379.823,271.462 379.424,271.619 379.169 C 271.776 378.915,273.087 378.584,274.531 378.435 C 276.197 378.262,277.450 377.897,277.959 377.437 C 278.490 376.957,279.643 376.640,281.367 376.502 C 283.209 376.354,284.171 376.074,284.649 375.546 C 285.143 375.000,285.882 374.800,287.408 374.800 C 288.889 374.800,289.788 374.568,290.512 373.997 C 291.168 373.482,292.440 373.105,294.066 372.944 C 295.464 372.805,296.924 372.411,297.322 372.065 C 297.719 371.719,299.208 371.316,300.634 371.169 C 302.060 371.021,303.535 370.632,303.913 370.303 C 304.291 369.975,305.657 369.588,306.949 369.444 C 308.348 369.288,309.704 368.862,310.303 368.391 C 310.877 367.939,311.927 367.597,312.754 367.594 C 315.559 367.582,315.811 366.642,316.169 354.876 C 316.343 349.137,316.559 346.852,317.009 345.983 C 317.465 345.100,317.689 342.564,317.922 335.649 C 318.160 328.603,318.365 326.325,318.809 325.790 C 319.255 325.252,319.444 323.069,319.643 316.188 C 319.851 309.010,320.031 307.022,320.574 305.941 C 321.116 304.861,321.292 302.929,321.478 296.000 C 321.658 289.325,321.849 287.131,322.335 286.200 C 322.822 285.264,323.014 283.019,323.205 276.000 C 323.415 268.276,323.556 266.801,324.198 265.600 C 324.842 264.396,324.971 263.026,325.120 255.800 C 325.250 249.542,325.442 247.112,325.873 246.271 C 326.287 245.462,326.551 242.628,326.806 236.271 C 327.039 230.440,327.363 226.783,327.750 225.600 C 328.147 224.383,328.400 221.337,328.529 216.200 C 328.677 210.329,328.877 208.191,329.408 206.800 C 329.949 205.387,330.151 203.100,330.348 196.161 C 330.537 189.524,330.738 187.156,331.153 186.656 C 331.562 186.164,331.795 183.668,332.048 177.095 C 332.292 170.726,332.567 167.728,333.013 166.539 C 333.466 165.333,333.721 162.417,333.946 155.867 C 334.180 149.054,334.394 146.690,334.821 146.175 C 335.251 145.656,335.447 143.380,335.642 136.625 C 335.849 129.477,336.028 127.506,336.568 126.462 C 337.104 125.424,337.284 123.515,337.471 116.883 C 337.634 111.082,337.881 108.121,338.294 107.000 C 338.708 105.875,338.968 102.708,339.171 96.327 C 339.369 90.056,339.612 87.068,339.956 86.654 C 340.523 85.970,341.229 81.598,340.947 80.518 C 340.771 79.848,60.035 79.298,59.367 79.967 M289.669 137.062 C 290.772 138.060,290.381 142.870,289.134 143.641 C 288.735 143.887,288.575 146.051,288.465 152.682 C 288.342 160.080,288.220 161.512,287.660 162.141 C 287.138 162.727,286.958 164.045,286.800 168.457 C 286.644 172.795,286.467 174.123,286.000 174.447 C 285.589 174.731,264.282 174.821,218.400 174.731 L 151.400 174.600 151.542 181.334 C 151.645 186.167,151.897 188.934,152.438 191.134 C 152.962 193.271,153.192 195.668,153.195 199.041 C 153.198 201.704,153.316 204.995,153.458 206.354 L 153.717 208.825 217.765 208.547 C 279.636 208.279,281.838 208.295,282.549 209.006 C 283.568 210.025,283.393 220.672,282.338 221.863 C 281.788 222.484,281.660 223.982,281.526 231.400 C 281.387 239.060,281.269 240.381,280.613 241.600 C 279.964 242.808,279.829 244.233,279.630 252.000 C 279.440 259.436,279.285 261.174,278.738 262.000 C 278.188 262.831,278.048 264.457,277.912 271.600 C 277.776 278.779,277.634 280.418,277.053 281.521 C 276.503 282.567,276.320 284.193,276.178 289.321 C 275.927 298.366,275.694 300.928,275.004 302.251 C 274.537 303.146,274.404 304.981,274.402 310.560 L 274.400 317.719 273.075 319.006 C 271.939 320.109,271.396 320.319,269.273 320.472 C 267.453 320.604,266.651 320.850,266.247 321.404 C 265.827 321.978,265.047 322.196,262.948 322.324 C 260.931 322.448,260.010 322.693,259.484 323.246 C 259.026 323.729,258.218 324.000,257.234 324.000 C 254.949 324.000,253.200 324.435,253.200 325.003 C 253.200 325.652,251.910 325.988,249.389 325.995 C 247.877 325.999,247.208 326.199,246.693 326.800 C 246.167 327.414,245.513 327.600,243.882 327.600 C 242.242 327.600,241.445 327.829,240.400 328.600 C 239.345 329.378,238.562 329.600,236.866 329.600 C 235.272 329.600,234.554 329.784,234.188 330.284 C 233.820 330.788,232.932 331.012,230.833 331.130 C 228.623 331.255,227.894 331.451,227.601 331.998 C 227.315 332.532,226.585 332.746,224.617 332.871 C 222.582 333.001,221.831 333.230,221.190 333.919 C 220.514 334.645,219.930 334.800,217.881 334.800 C 215.894 334.800,215.299 334.949,214.931 335.539 C 214.579 336.102,213.783 336.336,211.586 336.520 C 209.304 336.711,208.583 336.933,208.128 337.581 C 207.669 338.237,207.118 338.400,205.361 338.400 C 203.751 338.400,202.861 338.626,202.017 339.251 C 200.757 340.183,198.491 340.074,197.633 339.040 C 197.388 338.744,196.114 338.380,194.803 338.232 C 193.492 338.084,192.137 337.680,191.791 337.334 C 191.398 336.941,190.157 336.629,188.481 336.503 C 186.723 336.371,185.525 336.059,185.000 335.597 C 184.547 335.199,183.164 334.769,181.813 334.607 C 180.450 334.444,179.010 333.994,178.459 333.560 C 177.790 333.034,176.850 332.800,175.407 332.800 C 173.944 332.800,173.065 332.577,172.459 332.051 C 171.930 331.592,170.631 331.194,169.098 331.021 C 167.724 330.866,166.330 330.501,166.000 330.210 C 165.670 329.919,164.155 329.490,162.634 329.256 C 161.112 329.023,159.738 328.624,159.581 328.369 C 159.424 328.115,158.113 327.784,156.669 327.635 C 154.994 327.461,153.750 327.098,153.234 326.631 C 152.727 326.172,151.488 325.802,149.908 325.639 C 148.523 325.495,146.947 325.068,146.406 324.689 C 145.818 324.277,144.675 324.000,143.565 324.000 C 142.314 324.000,141.376 323.739,140.691 323.200 C 140.131 322.760,139.071 322.400,138.334 322.400 C 136.543 322.400,134.541 321.798,133.771 321.028 C 133.342 320.599,132.393 320.400,130.775 320.400 C 128.840 320.400,128.315 320.254,127.907 319.600 C 127.632 319.160,127.184 318.800,126.911 318.800 C 126.219 318.800,126.080 317.815,125.841 311.186 C 125.705 307.418,125.424 304.877,125.044 303.966 C 124.636 302.989,124.346 299.881,124.096 293.780 C 123.840 287.551,123.572 284.709,123.173 284.000 C 122.759 283.263,122.557 280.718,122.406 274.319 C 122.259 268.146,122.056 265.495,121.700 265.139 C 120.938 264.378,121.095 263.659,122.258 262.581 L 123.317 261.600 139.885 261.600 C 155.448 261.600,157.289 261.706,158.376 262.663 C 158.472 262.748,158.685 264.479,158.849 266.509 C 159.013 268.539,159.429 271.184,159.774 272.387 C 160.229 273.979,160.400 276.389,160.400 281.237 C 160.400 290.794,160.570 291.200,164.565 291.200 C 165.686 291.200,166.649 291.481,167.309 292.000 C 167.926 292.485,168.932 292.800,169.866 292.800 C 171.746 292.800,174.045 293.425,174.424 294.039 C 174.579 294.289,175.887 294.616,177.331 294.765 C 178.794 294.917,180.276 295.316,180.678 295.668 C 181.075 296.015,182.570 296.425,184.000 296.580 C 185.439 296.735,186.911 297.141,187.296 297.489 C 187.706 297.859,189.118 298.220,190.735 298.368 C 192.408 298.522,193.722 298.865,194.107 299.250 C 195.429 300.572,204.659 300.438,205.724 299.081 C 206.039 298.680,207.114 298.422,208.896 298.319 C 210.972 298.198,211.722 297.986,212.153 297.397 C 212.590 296.799,213.338 296.596,215.567 296.470 C 217.765 296.346,218.507 296.148,218.795 295.609 C 219.079 295.079,219.855 294.861,222.007 294.707 C 224.218 294.548,225.019 294.316,225.638 293.652 C 226.285 292.957,226.895 292.800,228.954 292.800 C 230.949 292.800,231.624 292.637,232.184 292.018 C 232.710 291.437,233.521 291.205,235.340 291.118 L 237.789 291.000 238.038 289.600 C 238.175 288.830,238.581 287.660,238.941 287.000 C 239.486 286.000,239.595 284.427,239.598 277.554 C 239.600 270.116,239.673 269.214,240.346 268.354 C 241.011 267.504,241.113 266.398,241.280 258.173 C 241.461 249.269,241.500 248.903,242.405 247.678 C 242.921 246.981,243.253 246.320,243.143 246.210 C 243.033 246.100,215.396 245.888,181.727 245.739 L 120.511 245.468 119.853 244.234 C 119.339 243.269,119.115 241.056,118.824 234.073 C 118.561 227.744,118.300 224.962,117.927 224.513 C 117.548 224.057,117.328 221.512,117.142 215.439 C 116.948 209.070,116.723 206.569,116.224 205.241 C 115.735 203.938,115.477 201.240,115.231 194.841 C 114.995 188.706,114.725 185.794,114.301 184.800 C 113.866 183.779,113.642 181.127,113.474 175.000 C 113.290 168.263,113.111 166.334,112.571 165.257 C 112.032 164.180,111.859 162.318,111.700 155.857 C 111.556 150.005,111.339 147.417,110.908 146.400 C 110.026 144.320,109.732 137.920,110.489 137.292 C 111.093 136.791,111.800 136.787,243.969 136.498 C 285.335 136.408,288.996 136.453,289.669 137.062 " stroke="none" fill="#e85225" fill-rule="evenodd"></path><path id="path1" d="M85.697 26.500 L 85.800 53.000 93.520 53.109 C 103.434 53.248,102.474 54.165,102.417 44.614 C 102.355 34.341,101.577 35.198,110.962 35.206 C 120.262 35.214,119.359 34.245,119.600 44.485 L 119.800 53.000 127.971 53.109 C 134.241 53.192,136.217 53.099,136.465 52.709 C 136.643 52.429,136.791 40.455,136.794 26.100 L 136.800 0.000 128.200 0.000 L 119.600 0.000 119.600 8.571 C 119.600 19.469,120.490 18.484,110.789 18.324 C 100.767 18.159,101.600 19.064,101.600 8.338 L 101.600 0.000 93.597 0.000 L 85.594 0.000 85.697 26.500 M146.092 8.700 L 146.200 17.400 153.658 17.509 C 159.233 17.590,161.227 17.750,161.554 18.144 C 161.852 18.503,162.025 24.147,162.096 35.836 L 162.200 53.000 169.200 53.114 C 173.050 53.177,176.605 53.128,177.100 53.006 L 178.000 52.785 178.000 35.606 C 178.000 15.271,176.947 17.600,186.141 17.600 C 194.942 17.600,194.000 18.684,194.000 8.557 L 194.000 0.000 169.992 0.000 L 145.984 0.000 146.092 8.700 M203.297 26.500 L 203.400 53.000 211.600 53.000 L 219.800 53.000 220.000 41.000 C 220.110 34.400,220.346 28.775,220.524 28.500 C 220.993 27.774,221.984 27.887,222.281 28.700 C 222.421 29.085,222.956 29.909,223.468 30.531 C 223.981 31.153,224.400 31.980,224.400 32.369 C 224.400 32.758,224.782 33.419,225.249 33.838 C 225.716 34.257,226.629 35.500,227.278 36.600 C 227.926 37.700,228.987 39.320,229.634 40.200 C 230.282 41.080,231.070 42.385,231.385 43.100 C 232.040 44.582,233.824 44.952,234.281 43.700 C 234.421 43.315,234.956 42.491,235.468 41.869 C 235.981 41.247,236.400 40.543,236.400 40.303 C 236.400 40.063,236.674 39.582,237.010 39.234 C 237.810 38.402,239.600 35.651,239.600 35.252 C 239.600 35.080,240.050 34.517,240.600 34.000 C 241.150 33.483,241.600 32.754,241.600 32.379 C 241.600 32.005,241.880 31.465,242.223 31.181 C 242.566 30.896,243.097 30.064,243.403 29.332 C 243.709 28.599,244.216 28.000,244.531 28.000 C 245.943 28.000,246.043 28.910,245.976 41.066 L 245.910 53.000 254.255 53.000 L 262.600 53.000 262.703 26.500 L 262.806 -0.000 254.003 -0.000 C 248.341 -0.000,245.200 0.144,245.200 0.404 C 245.200 0.626,244.570 1.705,243.800 2.800 C 243.030 3.895,242.400 4.949,242.400 5.142 C 242.400 5.335,242.009 5.989,241.531 6.597 C 241.053 7.205,240.313 8.354,239.887 9.151 C 239.460 9.948,238.848 11.095,238.526 11.700 C 238.205 12.305,237.802 12.800,237.631 12.800 C 237.461 12.800,237.020 13.475,236.652 14.300 C 234.424 19.289,232.416 20.063,230.938 16.503 C 230.595 15.676,230.063 14.856,229.757 14.680 C 229.451 14.504,229.200 14.123,229.200 13.834 C 229.200 13.545,228.851 12.864,228.425 12.322 C 227.998 11.780,227.528 10.851,227.379 10.258 C 227.230 9.664,226.769 8.997,226.354 8.775 C 225.939 8.553,225.596 8.153,225.591 7.886 C 225.585 7.619,224.685 6.070,223.591 4.445 C 222.496 2.820,221.600 1.155,221.600 0.745 C 221.600 0.040,221.109 0.000,212.397 0.000 L 203.194 0.000 203.297 26.500 M273.114 26.300 C 273.051 40.765,273.060 52.690,273.133 52.800 C 273.320 53.080,313.199 53.283,314.300 53.009 C 315.572 52.692,315.725 38.599,314.469 37.462 C 313.824 36.879,312.383 36.800,302.330 36.800 C 291.788 36.800,290.874 36.745,290.262 36.069 C 289.667 35.411,289.600 33.548,289.600 17.669 L 289.600 0.000 281.414 0.000 L 273.228 0.000 273.114 26.300 " stroke="none" fill="#040404" fill-rule="evenodd"></path><path id="path2" d="M0.000 200.000 L 0.000 400.000 98.200 400.000 C 183.023 400.000,196.400 399.922,196.400 399.429 C 196.400 399.034,195.696 398.770,194.118 398.572 C 192.863 398.416,191.108 397.957,190.218 397.552 C 189.328 397.148,188.060 396.806,187.400 396.791 C 186.740 396.777,185.480 396.485,184.600 396.143 C 183.720 395.801,181.997 395.292,180.772 395.013 C 179.546 394.733,178.191 394.316,177.761 394.086 C 177.331 393.856,175.842 393.461,174.452 393.209 C 173.062 392.957,171.357 392.515,170.662 392.226 C 169.968 391.937,168.320 391.423,167.000 391.082 C 161.775 389.735,160.914 389.499,158.600 388.778 C 157.280 388.367,155.480 387.909,154.600 387.762 C 153.720 387.614,152.550 387.273,152.000 387.005 C 151.450 386.736,149.880 386.302,148.511 386.040 C 147.142 385.778,145.522 385.303,144.911 384.985 C 144.300 384.666,143.260 384.400,142.600 384.394 C 141.940 384.387,140.642 384.039,139.717 383.618 C 138.791 383.198,137.171 382.728,136.117 382.575 C 135.062 382.422,133.690 382.037,133.066 381.720 C 132.443 381.404,130.844 380.969,129.513 380.755 C 128.182 380.541,126.619 380.120,126.039 379.820 C 125.458 379.520,123.928 379.079,122.637 378.841 C 121.346 378.602,120.090 378.251,119.845 378.061 C 119.600 377.870,118.232 377.491,116.805 377.219 C 115.378 376.946,113.758 376.493,113.205 376.213 C 112.652 375.933,111.372 375.584,110.361 375.437 C 109.349 375.289,107.592 374.816,106.456 374.385 C 105.321 373.953,103.966 373.600,103.447 373.600 C 102.927 373.600,101.714 373.258,100.751 372.840 C 99.788 372.422,98.190 371.951,97.200 371.793 C 96.210 371.636,95.040 371.314,94.600 371.078 C 94.160 370.842,92.720 370.423,91.400 370.146 C 88.981 369.639,85.571 368.501,84.327 367.786 C 83.769 367.464,83.610 366.447,83.393 361.799 C 83.249 358.720,82.788 353.770,82.368 350.800 C 81.948 347.830,81.594 343.870,81.581 342.000 C 81.557 338.579,81.204 334.878,80.428 329.917 C 80.197 328.441,79.833 323.851,79.619 319.717 C 79.404 315.582,79.055 311.570,78.843 310.800 C 78.631 310.030,78.249 305.800,77.995 301.400 C 77.741 297.000,77.367 292.770,77.164 292.000 C 76.961 291.230,76.613 287.450,76.389 283.600 C 76.166 279.750,75.627 273.754,75.191 270.275 C 74.756 266.797,74.400 262.500,74.400 260.727 C 74.400 258.953,74.130 255.680,73.800 253.451 C 73.470 251.223,72.941 245.575,72.624 240.900 C 72.306 236.225,71.949 232.241,71.830 232.048 C 71.710 231.855,71.333 227.490,70.991 222.348 C 70.650 217.207,70.199 212.460,69.991 211.800 C 69.782 211.140,69.421 207.000,69.187 202.600 C 68.954 198.200,68.585 193.700,68.368 192.600 C 68.151 191.500,67.789 187.630,67.564 184.000 C 67.339 180.370,66.805 174.739,66.378 171.487 C 65.950 168.235,65.589 164.095,65.575 162.287 C 65.562 160.479,65.384 157.650,65.180 156.000 C 64.142 147.587,63.962 145.684,63.611 139.400 C 63.401 135.660,63.055 131.970,62.840 131.200 C 62.625 130.430,62.254 126.380,62.014 122.200 C 61.775 118.020,61.324 112.890,61.013 110.800 C 60.702 108.710,60.341 104.750,60.210 102.000 C 60.080 99.250,59.619 94.130,59.187 90.623 C 58.251 83.040,58.177 79.483,58.942 78.848 C 59.341 78.517,96.570 78.425,200.442 78.499 L 341.400 78.600 341.351 84.018 C 341.323 86.999,341.098 90.386,340.849 91.546 C 340.600 92.706,340.214 96.837,339.991 100.727 C 339.768 104.617,339.321 109.690,338.997 112.000 C 338.674 114.310,338.216 119.440,337.981 123.400 C 337.746 127.360,337.376 131.278,337.159 132.107 C 336.943 132.936,336.593 136.806,336.383 140.707 C 336.172 144.608,335.817 149.240,335.594 151.000 C 334.845 156.908,334.421 161.779,334.410 164.600 C 334.404 166.140,334.142 168.857,333.829 170.639 C 333.515 172.420,333.056 177.460,332.809 181.839 C 332.561 186.217,332.181 190.430,331.965 191.200 C 331.748 191.970,331.405 195.801,331.202 199.713 C 330.999 203.626,330.558 208.486,330.223 210.513 C 329.888 212.541,329.434 217.530,329.214 221.600 C 328.993 225.670,328.560 230.440,328.250 232.200 C 327.941 233.960,327.562 238.189,327.409 241.597 C 327.257 245.005,326.872 249.505,326.556 251.597 C 326.239 253.689,325.803 258.604,325.587 262.521 C 325.371 266.437,325.017 270.430,324.801 271.394 C 324.585 272.358,324.218 276.263,323.984 280.073 C 323.750 283.883,323.390 288.170,323.184 289.600 C 322.978 291.030,322.537 296.160,322.205 301.000 C 321.872 305.840,321.405 310.610,321.165 311.600 C 320.926 312.590,320.578 316.460,320.391 320.200 C 320.204 323.940,319.766 329.212,319.418 331.916 C 319.070 334.621,318.618 339.661,318.414 343.116 C 318.209 346.572,317.857 350.390,317.632 351.600 C 317.407 352.810,317.051 356.811,316.840 360.491 C 316.402 368.155,316.504 367.839,314.283 368.413 C 313.357 368.651,312.060 369.086,311.400 369.377 C 310.740 369.669,309.300 370.033,308.200 370.185 C 307.100 370.338,305.825 370.703,305.367 370.997 C 304.908 371.291,303.648 371.663,302.567 371.824 C 301.485 371.986,299.820 372.451,298.867 372.859 C 297.914 373.266,296.701 373.600,296.171 373.600 C 295.642 373.600,294.279 373.953,293.144 374.385 C 292.008 374.816,290.251 375.289,289.239 375.437 C 288.228 375.584,286.948 375.933,286.395 376.213 C 285.842 376.493,284.222 376.946,282.795 377.219 C 281.368 377.491,280.012 377.860,279.783 378.038 C 279.554 378.215,278.204 378.621,276.783 378.940 C 275.362 379.259,273.480 379.800,272.600 380.143 C 271.720 380.485,270.498 380.773,269.884 380.782 C 269.270 380.792,268.100 381.135,267.284 381.545 C 266.468 381.955,264.876 382.408,263.746 382.553 C 262.616 382.697,261.143 383.089,260.471 383.425 C 259.799 383.760,258.257 384.195,257.043 384.393 C 255.830 384.590,254.483 384.942,254.049 385.174 C 253.616 385.406,252.303 385.786,251.131 386.020 C 249.959 386.253,248.370 386.688,247.600 386.987 C 246.830 387.285,245.120 387.801,243.800 388.132 C 239.129 389.305,237.767 389.680,234.711 390.635 C 233.012 391.166,231.248 391.600,230.791 391.600 C 230.334 391.600,229.472 391.853,228.875 392.161 C 228.278 392.470,226.622 392.946,225.195 393.219 C 223.768 393.491,222.414 393.858,222.187 394.034 C 221.960 394.209,220.456 394.628,218.843 394.964 C 217.231 395.300,215.700 395.751,215.442 395.965 C 215.184 396.179,213.864 396.533,212.508 396.752 C 211.153 396.970,209.629 397.374,209.122 397.650 C 208.615 397.926,207.044 398.344,205.632 398.580 C 197.378 399.955,200.408 400.000,301.367 400.000 L 400.000 400.000 400.000 200.000 L 400.000 0.000 345.400 0.000 L 290.800 0.000 290.800 17.392 L 290.800 34.785 291.700 34.986 C 292.195 35.097,297.766 35.236,304.081 35.294 C 312.843 35.375,315.684 35.523,316.081 35.919 C 316.900 36.738,317.056 52.319,316.256 53.400 C 315.342 54.635,273.070 54.658,272.168 53.424 C 271.691 52.772,271.600 48.426,271.600 26.324 L 271.600 0.000 267.800 0.000 L 264.000 0.000 264.000 26.311 C 264.000 49.477,263.926 52.728,263.377 53.511 C 262.404 54.901,246.396 54.901,245.423 53.511 C 244.894 52.756,244.799 50.844,244.791 40.811 L 244.782 29.000 244.011 30.700 C 243.586 31.635,243.050 32.400,242.820 32.400 C 242.589 32.400,242.397 32.625,242.393 32.900 C 242.386 33.389,240.512 36.429,239.507 37.582 C 239.228 37.902,238.784 38.667,238.519 39.282 C 238.255 39.897,237.850 40.400,237.619 40.400 C 237.389 40.400,237.200 40.646,237.200 40.946 C 237.200 41.246,236.801 41.999,236.313 42.619 C 235.826 43.239,235.149 44.298,234.810 44.973 C 233.932 46.717,230.800 46.062,230.800 44.134 C 230.800 43.836,230.440 43.284,230.000 42.907 C 229.560 42.530,229.200 42.006,229.200 41.742 C 229.200 41.478,228.750 40.727,228.200 40.073 C 227.650 39.419,227.200 38.756,227.200 38.600 C 227.200 38.444,226.750 37.781,226.200 37.127 C 225.650 36.473,225.200 35.689,225.200 35.383 C 225.200 35.078,224.840 34.635,224.400 34.400 C 223.960 34.165,223.600 33.640,223.600 33.235 C 223.600 32.830,223.302 32.251,222.939 31.949 C 222.575 31.647,222.042 30.860,221.754 30.200 C 221.308 29.176,221.229 30.730,221.216 40.811 C 221.196 55.971,222.300 54.400,211.657 54.400 C 205.737 54.400,203.222 54.262,202.880 53.920 C 202.516 53.556,202.400 46.969,202.400 26.720 L 202.400 0.000 199.000 0.000 L 195.600 0.000 195.600 8.776 C 195.600 15.358,195.475 17.634,195.100 17.876 C 194.825 18.054,191.270 18.290,187.200 18.400 L 179.800 18.600 179.696 36.038 L 179.592 53.475 178.577 53.938 C 177.204 54.563,163.074 54.570,161.874 53.946 C 161.393 53.696,160.910 53.411,160.800 53.313 C 160.690 53.214,160.510 45.364,160.400 35.867 L 160.200 18.600 152.916 18.400 C 143.627 18.145,144.429 19.098,144.413 8.300 L 144.400 0.000 141.000 0.000 L 137.600 0.000 137.600 26.571 C 137.600 50.194,137.530 53.213,136.971 53.771 C 136.157 54.586,120.081 54.721,119.280 53.920 C 118.939 53.579,118.800 51.154,118.800 45.553 C 118.800 35.301,119.742 36.400,110.957 36.400 L 103.600 36.400 103.600 44.771 C 103.600 51.848,103.503 53.240,102.971 53.771 C 101.950 54.793,85.996 54.701,85.062 53.669 C 84.460 53.003,84.400 50.536,84.400 26.469 L 84.400 0.000 42.200 0.000 L 0.000 0.000 0.000 200.000 M103.600 8.609 L 103.600 17.218 111.100 17.109 L 118.600 17.000 118.708 8.500 L 118.816 0.000 111.208 0.000 L 103.600 0.000 103.600 8.609 M222.800 0.738 C 222.800 1.144,223.160 1.802,223.600 2.200 C 224.040 2.598,224.400 3.185,224.400 3.504 C 224.400 3.823,224.850 4.619,225.400 5.273 C 225.950 5.927,226.400 6.690,226.400 6.969 C 226.400 7.248,226.760 7.802,227.200 8.200 C 227.640 8.598,228.000 9.153,228.000 9.433 C 228.000 9.714,228.277 10.219,228.615 10.557 C 228.953 10.895,229.495 11.808,229.820 12.586 C 230.145 13.364,230.574 14.000,230.774 14.000 C 230.974 14.000,231.337 14.603,231.581 15.341 C 232.304 17.533,233.747 17.886,234.562 16.069 C 235.730 13.464,236.798 11.600,237.123 11.600 C 237.297 11.600,237.661 10.987,237.932 10.238 C 238.203 9.489,238.689 8.775,239.012 8.651 C 239.335 8.527,239.600 8.087,239.600 7.675 C 239.600 7.262,239.960 6.598,240.400 6.200 C 240.840 5.802,241.200 5.248,241.200 4.969 C 241.200 4.690,241.638 3.940,242.174 3.304 C 242.710 2.667,243.269 1.663,243.417 1.073 L 243.687 0.000 233.243 0.000 C 223.359 0.000,222.800 0.040,222.800 0.738 M157.000 137.997 C 125.700 138.142,112.782 138.329,112.246 138.646 C 111.536 139.066,111.518 139.351,111.934 143.646 C 112.177 146.151,112.482 150.279,112.612 152.819 C 112.742 155.360,113.009 158.150,113.206 159.019 C 113.403 159.889,113.762 163.840,114.004 167.800 C 114.246 171.760,114.702 176.620,115.017 178.600 C 115.333 180.580,115.796 185.620,116.046 189.800 C 116.296 193.980,116.649 197.795,116.832 198.278 C 117.014 198.761,117.353 202.631,117.584 206.878 C 117.815 211.125,118.270 216.130,118.596 218.000 C 118.921 219.870,119.369 224.640,119.591 228.600 C 119.952 235.055,120.230 237.642,121.134 243.000 L 121.404 244.600 181.962 244.701 C 225.913 244.775,242.669 244.925,243.061 245.250 C 243.689 245.772,243.741 249.425,243.168 252.800 C 242.963 254.010,242.524 258.690,242.192 263.200 C 241.861 267.710,241.401 272.390,241.169 273.600 C 240.938 274.810,240.588 278.925,240.391 282.746 C 239.921 291.843,240.461 291.137,232.400 293.194 C 231.410 293.447,229.520 294.000,228.200 294.424 C 226.880 294.847,224.900 295.314,223.800 295.460 C 222.700 295.607,221.440 295.946,221.000 296.213 C 220.560 296.481,219.030 296.920,217.600 297.188 C 216.170 297.456,214.787 297.850,214.527 298.064 C 214.267 298.278,212.862 298.621,211.404 298.828 C 209.947 299.034,208.248 299.465,207.630 299.784 C 207.012 300.104,205.413 300.542,204.075 300.757 C 202.738 300.972,201.277 301.345,200.828 301.585 C 199.998 302.029,197.124 301.507,192.800 300.128 C 191.810 299.812,189.802 299.306,188.338 299.004 C 186.874 298.702,185.344 298.268,184.938 298.041 C 184.532 297.813,182.940 297.369,181.400 297.053 C 179.860 296.737,178.060 296.292,177.400 296.063 C 174.691 295.124,168.943 293.590,168.149 293.595 C 167.681 293.598,166.648 293.329,165.854 292.997 C 165.061 292.665,163.522 292.203,162.435 291.970 C 160.026 291.453,159.604 290.573,159.593 286.040 C 159.589 284.368,159.317 281.114,158.990 278.808 C 158.662 276.502,158.281 272.272,158.142 269.408 C 158.004 266.544,157.713 263.975,157.497 263.700 C 157.053 263.138,123.405 262.943,123.063 263.500 C 122.780 263.959,123.529 276.091,123.961 278.062 C 124.170 279.018,124.543 283.310,124.789 287.600 C 125.036 291.890,125.413 296.285,125.629 297.366 C 125.844 298.448,126.298 303.305,126.638 308.159 C 127.374 318.681,127.238 318.438,133.200 319.813 C 134.410 320.092,136.120 320.601,137.000 320.943 C 137.880 321.285,139.104 321.573,139.720 321.582 C 140.336 321.592,141.326 321.849,141.920 322.154 C 142.514 322.459,144.080 322.930,145.400 323.200 C 146.720 323.470,148.286 323.941,148.880 324.246 C 149.474 324.551,150.415 324.800,150.971 324.800 C 151.527 324.800,153.177 325.250,154.638 325.800 C 156.100 326.350,157.769 326.804,158.348 326.809 C 158.926 326.814,160.126 327.147,161.013 327.550 C 161.900 327.953,163.518 328.417,164.608 328.580 C 165.698 328.744,167.049 329.115,167.612 329.406 C 168.174 329.697,169.796 330.145,171.217 330.402 C 172.638 330.660,173.993 331.030,174.230 331.226 C 174.466 331.421,175.949 331.853,177.525 332.184 C 179.101 332.516,180.707 332.956,181.095 333.163 C 181.483 333.369,182.880 333.808,184.200 334.137 C 187.246 334.896,189.391 335.469,193.400 336.594 C 199.342 338.263,199.757 338.314,202.612 337.727 C 204.078 337.425,205.883 336.925,206.623 336.616 C 207.364 336.307,208.831 335.929,209.885 335.776 C 210.938 335.624,212.005 335.336,212.256 335.137 C 212.507 334.938,214.014 334.504,215.606 334.172 C 217.199 333.840,219.009 333.305,219.631 332.984 C 220.252 332.663,221.215 332.400,221.771 332.400 C 222.327 332.400,223.977 331.950,225.438 331.400 C 226.900 330.850,228.621 330.400,229.264 330.400 C 229.906 330.400,231.100 330.064,231.916 329.653 C 232.732 329.241,234.228 328.785,235.239 328.637 C 236.251 328.490,238.008 328.016,239.144 327.585 C 240.279 327.153,241.702 326.799,242.304 326.798 C 242.907 326.796,243.900 326.534,244.511 326.215 C 245.122 325.897,246.742 325.422,248.111 325.160 C 249.480 324.898,251.050 324.461,251.600 324.189 C 252.150 323.917,253.410 323.561,254.400 323.398 C 255.390 323.236,257.062 322.764,258.115 322.351 C 259.168 321.938,260.424 321.600,260.907 321.600 C 261.390 321.600,262.688 321.245,263.792 320.811 C 264.897 320.377,266.824 319.826,268.076 319.588 C 272.550 318.734,272.984 317.622,273.612 305.400 C 273.804 301.660,274.231 296.800,274.559 294.600 C 274.888 292.400,275.266 288.260,275.400 285.400 C 275.533 282.540,275.895 278.400,276.205 276.200 C 276.514 274.000,276.965 268.923,277.207 264.917 C 277.448 260.911,277.818 257.041,278.027 256.317 C 278.237 255.593,278.585 251.630,278.802 247.511 C 279.018 243.392,279.459 238.352,279.781 236.311 C 280.104 234.270,280.482 230.080,280.623 227.000 C 280.764 223.920,281.212 218.984,281.620 216.030 C 282.028 213.077,282.269 210.512,282.157 210.330 C 282.045 210.149,253.118 209.997,217.876 209.994 C 182.634 209.991,153.565 209.839,153.278 209.657 C 152.934 209.438,152.692 208.044,152.567 205.563 C 152.463 203.493,152.192 200.630,151.964 199.200 C 151.736 197.770,151.199 192.370,150.770 187.200 C 150.341 182.030,149.886 177.055,149.757 176.144 C 149.624 175.194,149.721 174.122,149.985 173.627 L 150.446 172.766 216.523 173.047 C 282.560 173.328,285.586 173.285,285.604 172.069 C 285.639 169.683,286.532 159.133,286.981 155.800 C 288.147 147.137,288.494 139.167,287.740 138.334 C 287.013 137.530,268.671 137.483,157.000 137.997 " stroke="none" fill="#faf9f9" fill-rule="evenodd"></path><path id="path3" d="M58.881 78.879 C 58.188 79.572,58.285 83.317,59.187 90.623 C 59.619 94.130,60.080 99.250,60.210 102.000 C 60.341 104.750,60.702 108.710,61.013 110.800 C 61.324 112.890,61.775 118.020,62.014 122.200 C 62.254 126.380,62.625 130.430,62.840 131.200 C 63.055 131.970,63.401 135.660,63.611 139.400 C 63.962 145.684,64.142 147.587,65.180 156.000 C 65.384 157.650,65.562 160.479,65.575 162.287 C 65.589 164.095,65.950 168.235,66.378 171.487 C 66.805 174.739,67.339 180.370,67.564 184.000 C 67.789 187.630,68.151 191.500,68.368 192.600 C 68.585 193.700,68.954 198.200,69.187 202.600 C 69.421 207.000,69.782 211.140,69.991 211.800 C 70.199 212.460,70.650 217.207,70.991 222.348 C 71.333 227.490,71.710 231.855,71.830 232.048 C 71.949 232.241,72.306 236.225,72.624 240.900 C 72.941 245.575,73.470 251.223,73.800 253.451 C 74.130 255.680,74.400 258.953,74.400 260.727 C 74.400 262.500,74.756 266.797,75.191 270.275 C 75.627 273.754,76.166 279.750,76.389 283.600 C 76.613 287.450,76.961 291.230,77.164 292.000 C 77.367 292.770,77.741 297.000,77.995 301.400 C 78.249 305.800,78.631 310.030,78.843 310.800 C 79.055 311.570,79.404 315.582,79.619 319.717 C 79.833 323.851,80.197 328.441,80.428 329.917 C 81.204 334.878,81.557 338.579,81.581 342.000 C 81.594 343.870,81.948 347.830,82.368 350.800 C 82.788 353.770,83.249 358.720,83.393 361.799 C 83.610 366.447,83.769 367.464,84.327 367.786 C 85.571 368.501,88.981 369.639,91.400 370.146 C 92.720 370.423,94.160 370.842,94.600 371.078 C 95.040 371.314,96.210 371.636,97.200 371.793 C 98.190 371.951,99.788 372.422,100.751 372.840 C 101.714 373.258,102.927 373.600,103.447 373.600 C 103.966 373.600,105.321 373.953,106.456 374.385 C 107.592 374.816,109.349 375.289,110.361 375.437 C 111.372 375.584,112.652 375.933,113.205 376.213 C 113.758 376.493,115.378 376.946,116.805 377.219 C 118.232 377.491,119.600 377.870,119.845 378.061 C 120.090 378.251,121.346 378.602,122.637 378.841 C 123.928 379.079,125.458 379.520,126.039 379.820 C 126.619 380.120,128.182 380.541,129.513 380.755 C 130.844 380.969,132.443 381.404,133.066 381.720 C 133.690 382.037,135.062 382.422,136.117 382.575 C 137.171 382.728,138.791 383.198,139.717 383.618 C 140.642 384.039,141.940 384.387,142.600 384.394 C 143.260 384.400,144.300 384.666,144.911 384.985 C 145.522 385.303,147.142 385.778,148.511 386.040 C 149.880 386.302,151.450 386.736,152.000 387.005 C 152.550 387.273,153.720 387.614,154.600 387.762 C 155.480 387.909,157.280 388.367,158.600 388.778 C 160.914 389.499,161.775 389.735,167.000 391.082 C 168.320 391.423,169.968 391.937,170.662 392.226 C 171.357 392.515,173.062 392.957,174.452 393.209 C 175.842 393.461,177.331 393.856,177.761 394.086 C 178.191 394.316,179.546 394.733,180.772 395.013 C 181.997 395.292,183.720 395.801,184.600 396.143 C 185.480 396.485,186.740 396.777,187.400 396.791 C 188.060 396.806,189.328 397.148,190.218 397.552 C 191.108 397.957,192.863 398.416,194.118 398.572 C 195.696 398.770,196.400 399.034,196.400 399.429 C 196.400 399.829,196.880 400.000,198.000 400.000 C 201.714 400.000,199.607 398.235,195.452 397.866 C 193.711 397.711,192.538 397.401,192.252 397.020 C 191.987 396.667,190.807 396.311,189.400 396.158 C 188.080 396.015,186.439 395.561,185.753 395.149 C 184.966 394.676,183.748 394.400,182.453 394.400 C 180.899 394.400,180.195 394.195,179.558 393.558 C 178.955 392.955,178.021 392.655,176.258 392.499 C 174.755 392.367,173.429 391.994,172.846 391.541 C 172.195 391.036,171.227 390.800,169.800 390.800 C 168.281 390.800,167.416 390.570,166.641 389.961 C 165.930 389.401,164.746 389.047,163.087 388.897 C 161.535 388.757,160.431 388.443,160.151 388.063 C 159.872 387.682,158.700 387.348,157.038 387.176 C 155.573 387.025,154.065 386.632,153.687 386.304 C 153.309 385.976,151.860 385.594,150.466 385.456 C 148.840 385.295,147.568 384.918,146.912 384.403 C 146.198 383.840,145.289 383.600,143.878 383.600 C 142.551 383.600,141.609 383.370,141.119 382.927 C 140.691 382.540,139.257 382.119,137.739 381.937 C 136.114 381.741,134.927 381.380,134.646 380.995 C 134.350 380.591,133.163 380.262,131.264 380.059 C 129.517 379.872,128.202 379.526,128.000 379.200 C 127.799 378.876,126.496 378.529,124.790 378.347 C 122.875 378.142,121.759 377.823,121.442 377.390 C 121.126 376.958,120.097 376.661,118.383 376.506 C 116.759 376.360,115.634 376.048,115.354 375.666 C 115.071 375.281,113.838 374.944,111.988 374.747 C 110.382 374.575,108.945 374.234,108.793 373.988 C 108.476 373.476,105.952 372.824,104.231 372.810 C 103.589 372.804,102.727 372.496,102.317 372.125 C 101.901 371.748,100.506 371.324,99.162 371.166 C 97.837 371.010,96.449 370.617,96.077 370.293 C 95.704 369.969,94.262 369.606,92.870 369.487 C 91.256 369.349,90.057 369.013,89.556 368.560 C 89.124 368.170,88.015 367.749,87.091 367.625 C 84.540 367.283,84.370 366.646,84.005 356.059 C 83.767 349.130,83.542 346.650,83.047 345.513 C 82.569 344.415,82.397 342.740,82.390 339.113 C 82.377 332.901,81.762 326.477,81.105 325.686 C 80.746 325.253,80.540 322.468,80.393 316.039 C 80.240 309.346,80.040 306.740,79.625 306.000 C 79.227 305.290,78.968 302.506,78.733 296.400 C 78.492 290.183,78.231 287.412,77.790 286.400 C 77.346 285.379,77.088 282.564,76.839 276.000 C 76.594 269.527,76.329 266.607,75.898 265.600 C 75.452 264.561,75.248 262.027,75.105 255.773 C 74.946 248.790,74.799 247.170,74.244 246.323 C 73.691 245.479,73.532 243.779,73.335 236.551 C 73.158 230.110,72.937 227.430,72.496 226.400 C 72.066 225.394,71.807 222.523,71.577 216.200 C 71.331 209.449,71.102 207.033,70.591 205.824 C 70.071 204.593,69.881 202.447,69.722 196.024 C 69.571 189.930,69.365 187.489,68.929 186.600 C 68.500 185.725,68.250 182.959,68.010 176.400 C 67.776 170.033,67.508 166.990,67.093 166.000 C 66.675 165.003,66.432 162.191,66.250 156.235 C 66.046 149.565,65.859 147.620,65.330 146.635 C 64.793 145.635,64.621 143.688,64.426 136.400 C 64.250 129.795,64.037 127.134,63.625 126.400 C 63.227 125.690,62.968 122.906,62.733 116.800 C 62.492 110.583,62.231 107.812,61.790 106.800 C 61.346 105.779,61.088 102.964,60.839 96.400 C 60.576 89.447,60.346 87.051,59.830 85.867 C 59.403 84.888,59.205 83.550,59.281 82.163 L 59.400 79.991 200.079 79.896 C 335.079 79.804,340.767 79.829,340.947 80.518 C 341.229 81.598,340.523 85.970,339.956 86.654 C 339.612 87.068,339.369 90.056,339.171 96.327 C 338.968 102.708,338.708 105.875,338.294 107.000 C 337.881 108.121,337.634 111.082,337.471 116.883 C 337.284 123.515,337.104 125.424,336.568 126.462 C 336.028 127.506,335.849 129.477,335.642 136.625 C 335.447 143.380,335.251 145.656,334.821 146.175 C 334.394 146.690,334.180 149.054,333.946 155.867 C 333.721 162.417,333.466 165.333,333.013 166.539 C 332.567 167.728,332.292 170.726,332.048 177.095 C 331.795 183.668,331.562 186.164,331.153 186.656 C 330.738 187.156,330.537 189.524,330.348 196.161 C 330.151 203.100,329.949 205.387,329.408 206.800 C 328.877 208.191,328.677 210.329,328.529 216.200 C 328.400 221.337,328.147 224.383,327.750 225.600 C 327.363 226.783,327.039 230.440,326.806 236.271 C 326.551 242.628,326.287 245.462,325.873 246.271 C 325.442 247.112,325.250 249.542,325.120 255.800 C 324.971 263.026,324.842 264.396,324.198 265.600 C 323.556 266.801,323.415 268.276,323.205 276.000 C 323.014 283.019,322.822 285.264,322.335 286.200 C 321.849 287.131,321.658 289.325,321.478 296.000 C 321.292 302.929,321.116 304.861,320.574 305.941 C 320.031 307.022,319.851 309.010,319.643 316.188 C 319.444 323.069,319.255 325.252,318.809 325.790 C 318.365 326.325,318.160 328.603,317.922 335.649 C 317.689 342.564,317.465 345.100,317.009 345.983 C 316.559 346.852,316.343 349.137,316.169 354.876 C 315.811 366.642,315.559 367.582,312.754 367.594 C 311.927 367.597,310.877 367.939,310.303 368.391 C 309.704 368.862,308.348 369.288,306.949 369.444 C 305.657 369.588,304.291 369.975,303.913 370.303 C 303.535 370.632,302.060 371.021,300.634 371.169 C 299.208 371.316,297.719 371.719,297.322 372.065 C 296.924 372.411,295.464 372.805,294.066 372.944 C 292.440 373.105,291.168 373.482,290.512 373.997 C 289.788 374.568,288.889 374.800,287.408 374.800 C 285.882 374.800,285.143 375.000,284.649 375.546 C 284.171 376.074,283.209 376.354,281.367 376.502 C 279.643 376.640,278.490 376.957,277.959 377.437 C 277.450 377.897,276.197 378.262,274.531 378.435 C 273.087 378.584,271.776 378.915,271.619 379.169 C 271.462 379.424,270.088 379.823,268.566 380.056 C 267.045 380.290,265.522 380.726,265.183 381.027 C 264.844 381.328,263.494 381.692,262.183 381.838 C 260.872 381.983,259.239 382.439,258.553 382.851 C 257.794 383.307,256.551 383.600,255.379 383.600 C 254.004 383.600,253.208 383.829,252.602 384.398 C 252.021 384.944,250.938 385.277,249.176 385.452 C 247.759 385.592,246.279 385.987,245.885 386.329 C 245.493 386.671,244.087 387.078,242.762 387.234 C 241.437 387.390,240.049 387.786,239.677 388.113 C 239.294 388.450,237.920 388.782,236.515 388.879 C 234.840 388.993,233.762 389.291,233.209 389.792 C 232.684 390.267,231.560 390.602,230.094 390.720 C 228.832 390.821,227.350 391.215,226.800 391.595 C 226.250 391.974,224.728 392.407,223.417 392.556 C 222.103 392.705,220.705 393.124,220.302 393.489 C 219.845 393.902,218.636 394.215,217.085 394.320 C 215.480 394.429,214.317 394.738,213.800 395.192 C 213.305 395.627,212.008 395.992,210.400 396.149 C 208.710 396.314,207.633 396.627,207.324 397.045 C 207.000 397.482,205.974 397.755,204.124 397.896 C 201.318 398.110,200.400 398.493,200.400 399.449 C 200.400 400.180,202.645 400.181,202.925 399.450 C 203.051 399.123,204.083 398.782,205.468 398.609 C 206.750 398.449,208.309 398.054,208.933 397.731 C 209.557 397.409,211.171 396.967,212.520 396.750 C 213.869 396.532,215.184 396.179,215.442 395.965 C 215.700 395.751,217.231 395.300,218.843 394.964 C 220.456 394.628,221.960 394.209,222.187 394.034 C 222.414 393.858,223.768 393.491,225.195 393.219 C 226.622 392.946,228.278 392.470,228.875 392.161 C 229.472 391.853,230.334 391.600,230.791 391.600 C 231.248 391.600,233.012 391.166,234.711 390.635 C 237.767 389.680,239.129 389.305,243.800 388.132 C 245.120 387.801,246.830 387.285,247.600 386.987 C 248.370 386.688,249.959 386.253,251.131 386.020 C 252.303 385.786,253.616 385.406,254.049 385.174 C 254.483 384.942,255.830 384.590,257.043 384.393 C 258.257 384.195,259.799 383.760,260.471 383.425 C 261.143 383.089,262.616 382.697,263.746 382.553 C 264.876 382.408,266.468 381.955,267.284 381.545 C 268.100 381.135,269.270 380.792,269.884 380.782 C 270.498 380.773,271.720 380.485,272.600 380.143 C 273.480 379.800,275.362 379.259,276.783 378.940 C 278.204 378.621,279.554 378.215,279.783 378.038 C 280.012 377.860,281.368 377.491,282.795 377.219 C 284.222 376.946,285.842 376.493,286.395 376.213 C 286.948 375.933,288.228 375.584,289.239 375.437 C 290.251 375.289,292.008 374.816,293.144 374.385 C 294.279 373.953,295.642 373.600,296.171 373.600 C 296.701 373.600,297.914 373.266,298.867 372.859 C 299.820 372.451,301.485 371.986,302.567 371.824 C 303.648 371.663,304.908 371.291,305.367 370.997 C 305.825 370.703,307.100 370.338,308.200 370.185 C 309.300 370.033,310.740 369.669,311.400 369.377 C 312.060 369.086,313.357 368.651,314.283 368.413 C 316.504 367.839,316.402 368.155,316.840 360.491 C 317.051 356.811,317.407 352.810,317.632 351.600 C 317.857 350.390,318.209 346.572,318.414 343.116 C 318.618 339.661,319.070 334.621,319.418 331.916 C 319.766 329.212,320.204 323.940,320.391 320.200 C 320.578 316.460,320.926 312.590,321.165 311.600 C 321.405 310.610,321.872 305.840,322.205 301.000 C 322.537 296.160,322.978 291.030,323.184 289.600 C 323.390 288.170,323.750 283.883,323.984 280.073 C 324.218 276.263,324.585 272.358,324.801 271.394 C 325.017 270.430,325.371 266.437,325.587 262.521 C 325.803 258.604,326.239 253.689,326.556 251.597 C 326.872 249.505,327.257 245.005,327.409 241.597 C 327.562 238.189,327.941 233.960,328.250 232.200 C 328.560 230.440,328.993 225.670,329.214 221.600 C 329.434 217.530,329.888 212.541,330.223 210.513 C 330.558 208.486,330.999 203.626,331.202 199.713 C 331.405 195.801,331.748 191.970,331.965 191.200 C 332.181 190.430,332.561 186.217,332.809 181.839 C 333.056 177.460,333.515 172.420,333.829 170.639 C 334.142 168.857,334.404 166.140,334.410 164.600 C 334.421 161.779,334.845 156.908,335.594 151.000 C 335.817 149.240,336.172 144.608,336.383 140.707 C 336.593 136.806,336.943 132.936,337.159 132.107 C 337.376 131.278,337.746 127.360,337.981 123.400 C 338.216 119.440,338.674 114.310,338.997 112.000 C 339.321 109.690,339.768 104.617,339.991 100.727 C 340.214 96.837,340.600 92.706,340.849 91.546 C 341.098 90.386,341.323 86.999,341.351 84.018 L 341.400 78.600 200.381 78.499 C 91.029 78.421,59.253 78.507,58.881 78.879 M155.039 136.700 C 121.135 136.780,110.943 136.915,110.489 137.292 C 109.732 137.920,110.026 144.320,110.908 146.400 C 111.339 147.417,111.556 150.005,111.700 155.857 C 111.859 162.318,112.032 164.180,112.571 165.257 C 113.111 166.334,113.290 168.263,113.474 175.000 C 113.642 181.127,113.866 183.779,114.301 184.800 C 114.725 185.794,114.995 188.706,115.231 194.841 C 115.477 201.240,115.735 203.938,116.224 205.241 C 116.723 206.569,116.948 209.070,117.142 215.439 C 117.328 221.512,117.548 224.057,117.927 224.513 C 118.300 224.962,118.561 227.744,118.824 234.073 C 119.115 241.056,119.339 243.269,119.853 244.234 L 120.511 245.468 181.727 245.739 C 215.396 245.888,243.033 246.100,243.143 246.210 C 243.253 246.320,242.921 246.981,242.405 247.678 C 241.500 248.903,241.461 249.269,241.280 258.173 C 241.113 266.398,241.011 267.504,240.346 268.354 C 239.673 269.214,239.600 270.116,239.598 277.554 C 239.595 284.427,239.486 286.000,238.941 287.000 C 238.581 287.660,238.175 288.830,238.038 289.600 L 237.789 291.000 235.340 291.118 C 233.521 291.205,232.710 291.437,232.184 292.018 C 231.624 292.637,230.949 292.800,228.954 292.800 C 226.895 292.800,226.285 292.957,225.638 293.652 C 225.019 294.316,224.218 294.548,222.007 294.707 C 219.855 294.861,219.079 295.079,218.795 295.609 C 218.507 296.148,217.765 296.346,215.567 296.470 C 213.338 296.596,212.590 296.799,212.153 297.397 C 211.722 297.986,210.972 298.198,208.896 298.319 C 207.114 298.422,206.039 298.680,205.724 299.081 C 204.659 300.438,195.429 300.572,194.107 299.250 C 193.722 298.865,192.408 298.522,190.735 298.368 C 189.118 298.220,187.706 297.859,187.296 297.489 C 186.911 297.141,185.439 296.735,184.000 296.580 C 182.570 296.425,181.075 296.015,180.678 295.668 C 180.276 295.316,178.794 294.917,177.331 294.765 C 175.887 294.616,174.579 294.289,174.424 294.039 C 174.045 293.425,171.746 292.800,169.866 292.800 C 168.932 292.800,167.926 292.485,167.309 292.000 C 166.649 291.481,165.686 291.200,164.565 291.200 C 160.570 291.200,160.400 290.794,160.400 281.237 C 160.400 276.389,160.229 273.979,159.774 272.387 C 159.429 271.184,159.013 268.539,158.849 266.509 C 158.685 264.479,158.472 262.748,158.376 262.663 C 157.289 261.706,155.448 261.600,139.885 261.600 L 123.317 261.600 122.258 262.581 C 121.095 263.659,120.938 264.378,121.700 265.139 C 122.056 265.495,122.259 268.146,122.406 274.319 C 122.557 280.718,122.759 283.263,123.173 284.000 C 123.572 284.709,123.840 287.551,124.096 293.780 C 124.346 299.881,124.636 302.989,125.044 303.966 C 125.424 304.877,125.705 307.418,125.841 311.186 C 126.080 317.815,126.219 318.800,126.911 318.800 C 127.184 318.800,127.632 319.160,127.907 319.600 C 128.315 320.254,128.840 320.400,130.775 320.400 C 132.393 320.400,133.342 320.599,133.771 321.028 C 134.541 321.798,136.543 322.400,138.334 322.400 C 139.071 322.400,140.131 322.760,140.691 323.200 C 141.376 323.739,142.314 324.000,143.565 324.000 C 144.675 324.000,145.818 324.277,146.406 324.689 C 146.947 325.068,148.523 325.495,149.908 325.639 C 151.488 325.802,152.727 326.172,153.234 326.631 C 153.750 327.098,154.994 327.461,156.669 327.635 C 158.113 327.784,159.424 328.115,159.581 328.369 C 159.738 328.624,161.112 329.023,162.634 329.256 C 164.155 329.490,165.670 329.919,166.000 330.210 C 166.330 330.501,167.724 330.866,169.098 331.021 C 170.631 331.194,171.930 331.592,172.459 332.051 C 173.065 332.577,173.944 332.800,175.407 332.800 C 176.850 332.800,177.790 333.034,178.459 333.560 C 179.010 333.994,180.450 334.444,181.813 334.607 C 183.164 334.769,184.547 335.199,185.000 335.597 C 185.525 336.059,186.723 336.371,188.481 336.503 C 190.157 336.629,191.398 336.941,191.791 337.334 C 192.137 337.680,193.492 338.084,194.803 338.232 C 196.114 338.380,197.388 338.744,197.633 339.040 C 198.491 340.074,200.757 340.183,202.017 339.251 C 202.861 338.626,203.751 338.400,205.361 338.400 C 207.118 338.400,207.669 338.237,208.128 337.581 C 208.583 336.933,209.304 336.711,211.586 336.520 C 213.783 336.336,214.579 336.102,214.931 335.539 C 215.299 334.949,215.894 334.800,217.881 334.800 C 219.930 334.800,220.514 334.645,221.190 333.919 C 221.831 333.230,222.582 333.001,224.617 332.871 C 226.585 332.746,227.315 332.532,227.601 331.998 C 227.894 331.451,228.623 331.255,230.833 331.130 C 232.932 331.012,233.820 330.788,234.188 330.284 C 234.554 329.784,235.272 329.600,236.866 329.600 C 238.562 329.600,239.345 329.378,240.400 328.600 C 241.445 327.829,242.242 327.600,243.882 327.600 C 245.513 327.600,246.167 327.414,246.693 326.800 C 247.208 326.199,247.877 325.999,249.389 325.995 C 251.910 325.988,253.200 325.652,253.200 325.003 C 253.200 324.435,254.949 324.000,257.234 324.000 C 258.218 324.000,259.026 323.729,259.484 323.246 C 260.010 322.693,260.931 322.448,262.948 322.324 C 265.047 322.196,265.827 321.978,266.247 321.404 C 266.651 320.850,267.453 320.604,269.273 320.472 C 271.396 320.319,271.939 320.109,273.075 319.006 L 274.400 317.719 274.402 310.560 C 274.404 304.981,274.537 303.146,275.004 302.251 C 275.694 300.928,275.927 298.366,276.178 289.321 C 276.320 284.193,276.503 282.567,277.053 281.521 C 277.634 280.418,277.776 278.779,277.912 271.600 C 278.048 264.457,278.188 262.831,278.738 262.000 C 279.285 261.174,279.440 259.436,279.630 252.000 C 279.829 244.233,279.964 242.808,280.613 241.600 C 281.269 240.381,281.387 239.060,281.526 231.400 C 281.660 223.982,281.788 222.484,282.338 221.863 C 283.393 220.672,283.568 210.025,282.549 209.006 C 281.838 208.295,279.636 208.279,217.765 208.547 L 153.717 208.825 153.458 206.354 C 153.316 204.995,153.198 201.704,153.195 199.041 C 153.192 195.668,152.962 193.271,152.438 191.134 C 151.897 188.934,151.645 186.167,151.542 181.334 L 151.400 174.600 218.400 174.731 C 264.282 174.821,285.589 174.731,286.000 174.447 C 286.467 174.123,286.644 172.795,286.800 168.457 C 286.958 164.045,287.138 162.727,287.660 162.141 C 288.220 161.512,288.342 160.080,288.465 152.682 C 288.575 146.051,288.735 143.887,289.134 143.641 C 290.381 142.870,290.772 138.060,289.669 137.062 C 288.876 136.345,296.720 136.366,155.039 136.700 M287.740 138.334 C 288.494 139.167,288.147 147.137,286.981 155.800 C 286.532 159.133,285.639 169.683,285.604 172.069 C 285.586 173.285,282.560 173.328,216.523 173.047 L 150.446 172.766 149.985 173.627 C 149.721 174.122,149.624 175.194,149.757 176.144 C 149.886 177.055,150.341 182.030,150.770 187.200 C 151.199 192.370,151.736 197.770,151.964 199.200 C 152.192 200.630,152.463 203.493,152.567 205.563 C 152.692 208.044,152.934 209.438,153.278 209.657 C 153.565 209.839,182.634 209.991,217.876 209.994 C 253.118 209.997,282.045 210.149,282.157 210.330 C 282.269 210.512,282.028 213.077,281.620 216.030 C 281.212 218.984,280.764 223.920,280.623 227.000 C 280.482 230.080,280.104 234.270,279.781 236.311 C 279.459 238.352,279.018 243.392,278.802 247.511 C 278.585 251.630,278.237 255.593,278.027 256.317 C 277.818 257.041,277.448 260.911,277.207 264.917 C 276.965 268.923,276.514 274.000,276.205 276.200 C 275.895 278.400,275.533 282.540,275.400 285.400 C 275.266 288.260,274.888 292.400,274.559 294.600 C 274.231 296.800,273.804 301.660,273.612 305.400 C 272.984 317.622,272.550 318.734,268.076 319.588 C 266.824 319.826,264.897 320.377,263.792 320.811 C 262.688 321.245,261.390 321.600,260.907 321.600 C 260.424 321.600,259.168 321.938,258.115 322.351 C 257.062 322.764,255.390 323.236,254.400 323.398 C 253.410 323.561,252.150 323.917,251.600 324.189 C 251.050 324.461,249.480 324.898,248.111 325.160 C 246.742 325.422,245.122 325.897,244.511 326.215 C 243.900 326.534,242.907 326.796,242.304 326.798 C 241.702 326.799,240.279 327.153,239.144 327.585 C 238.008 328.016,236.251 328.490,235.239 328.637 C 234.228 328.785,232.732 329.241,231.916 329.653 C 231.100 330.064,229.906 330.400,229.264 330.400 C 228.621 330.400,226.900 330.850,225.438 331.400 C 223.977 331.950,222.327 332.400,221.771 332.400 C 221.215 332.400,220.252 332.663,219.631 332.984 C 219.009 333.305,217.199 333.840,215.606 334.172 C 214.014 334.504,212.507 334.938,212.256 335.137 C 212.005 335.336,210.938 335.624,209.885 335.776 C 208.831 335.929,207.364 336.307,206.623 336.616 C 205.883 336.925,204.078 337.425,202.612 337.727 C 199.757 338.314,199.342 338.263,193.400 336.594 C 189.391 335.469,187.246 334.896,184.200 334.137 C 182.880 333.808,181.483 333.369,181.095 333.163 C 180.707 332.956,179.101 332.516,177.525 332.184 C 175.949 331.853,174.466 331.421,174.230 331.226 C 173.993 331.030,172.638 330.660,171.217 330.402 C 169.796 330.145,168.174 329.697,167.612 329.406 C 167.049 329.115,165.698 328.744,164.608 328.580 C 163.518 328.417,161.900 327.953,161.013 327.550 C 160.126 327.147,158.926 326.814,158.348 326.809 C 157.769 326.804,156.100 326.350,154.638 325.800 C 153.177 325.250,151.527 324.800,150.971 324.800 C 150.415 324.800,149.474 324.551,148.880 324.246 C 148.286 323.941,146.720 323.470,145.400 323.200 C 144.080 322.930,142.514 322.459,141.920 322.154 C 141.326 321.849,140.336 321.592,139.720 321.582 C 139.104 321.573,137.880 321.285,137.000 320.943 C 136.120 320.601,134.410 320.092,133.200 319.813 C 127.238 318.438,127.374 318.681,126.638 308.159 C 126.298 303.305,125.844 298.448,125.629 297.366 C 125.413 296.285,125.036 291.890,124.789 287.600 C 124.543 283.310,124.170 279.018,123.961 278.062 C 123.529 276.091,122.780 263.959,123.063 263.500 C 123.405 262.943,157.053 263.138,157.497 263.700 C 157.713 263.975,158.004 266.544,158.142 269.408 C 158.281 272.272,158.662 276.502,158.990 278.808 C 159.317 281.114,159.589 284.368,159.593 286.040 C 159.604 290.573,160.026 291.453,162.435 291.970 C 163.522 292.203,165.061 292.665,165.854 292.997 C 166.648 293.329,167.681 293.598,168.149 293.595 C 168.943 293.590,174.691 295.124,177.400 296.063 C 178.060 296.292,179.860 296.737,181.400 297.053 C 182.940 297.369,184.532 297.813,184.938 298.041 C 185.344 298.268,186.874 298.702,188.338 299.004 C 189.802 299.306,191.810 299.812,192.800 300.128 C 197.124 301.507,199.998 302.029,200.828 301.585 C 201.277 301.345,202.738 300.972,204.075 300.757 C 205.413 300.542,207.012 300.104,207.630 299.784 C 208.248 299.465,209.947 299.034,211.404 298.828 C 212.862 298.621,214.267 298.278,214.527 298.064 C 214.787 297.850,216.170 297.456,217.600 297.188 C 219.030 296.920,220.560 296.481,221.000 296.213 C 221.440 295.946,222.700 295.607,223.800 295.460 C 224.900 295.314,226.880 294.847,228.200 294.424 C 229.520 294.000,231.410 293.447,232.400 293.194 C 240.461 291.137,239.921 291.843,240.391 282.746 C 240.588 278.925,240.938 274.810,241.169 273.600 C 241.401 272.390,241.861 267.710,242.192 263.200 C 242.524 258.690,242.963 254.010,243.168 252.800 C 243.741 249.425,243.689 245.772,243.061 245.250 C 242.669 244.925,225.913 244.775,181.962 244.701 L 121.404 244.600 121.134 243.000 C 120.230 237.642,119.952 235.055,119.591 228.600 C 119.369 224.640,118.921 219.870,118.596 218.000 C 118.270 216.130,117.815 211.125,117.584 206.878 C 117.353 202.631,117.014 198.761,116.832 198.278 C 116.649 197.795,116.296 193.980,116.046 189.800 C 115.796 185.620,115.333 180.580,115.017 178.600 C 114.702 176.620,114.246 171.760,114.004 167.800 C 113.762 163.840,113.403 159.889,113.206 159.019 C 113.009 158.150,112.742 155.360,112.612 152.819 C 112.482 150.279,112.177 146.151,111.934 143.646 C 111.518 139.351,111.536 139.066,112.246 138.646 C 113.024 138.186,151.951 137.906,244.038 137.697 C 285.346 137.604,287.103 137.630,287.740 138.334 " stroke="none" fill="#ec745c" fill-rule="evenodd"></path><path id="path4" d="M84.400 26.538 C 84.400 51.740,84.437 53.109,85.131 53.738 C 86.200 54.705,102.008 54.735,102.971 53.771 C 103.503 53.240,103.600 51.848,103.600 44.771 L 103.600 36.400 110.957 36.400 C 119.742 36.400,118.800 35.301,118.800 45.553 C 118.800 51.154,118.939 53.579,119.280 53.920 C 120.081 54.721,136.157 54.586,136.971 53.771 C 137.728 53.015,137.953 0.000,137.200 0.000 C 136.937 0.000,136.798 8.971,136.794 26.100 C 136.791 40.455,136.643 52.429,136.465 52.709 C 136.217 53.099,134.241 53.192,127.971 53.109 L 119.800 53.000 119.600 44.485 C 119.359 34.245,120.262 35.214,110.962 35.206 C 101.577 35.198,102.355 34.341,102.417 44.614 C 102.474 54.165,103.434 53.248,93.520 53.109 L 85.800 53.000 85.697 26.500 C 85.607 3.313,85.520 0.000,84.997 0.000 C 84.474 0.000,84.400 3.272,84.400 26.538 M101.600 8.338 C 101.600 19.064,100.767 18.159,110.789 18.324 C 117.304 18.431,118.382 18.361,118.948 17.795 C 119.710 17.033,119.959 0.000,119.208 -0.000 C 118.968 -0.000,118.774 3.288,118.708 8.500 L 118.600 17.000 111.100 17.109 L 103.600 17.218 103.600 8.609 L 103.600 0.000 102.600 0.000 L 101.600 0.000 101.600 8.338 M144.413 8.300 C 144.429 19.098,143.627 18.145,152.916 18.400 L 160.200 18.600 160.400 35.867 C 160.510 45.364,160.690 53.214,160.800 53.313 C 160.910 53.411,161.393 53.696,161.874 53.946 C 163.074 54.570,177.204 54.563,178.577 53.938 L 179.592 53.475 179.696 36.038 L 179.800 18.600 187.200 18.400 C 191.270 18.290,194.825 18.054,195.100 17.876 C 196.080 17.242,195.791 0.000,194.800 0.000 C 194.025 0.000,194.000 0.267,194.000 8.557 C 194.000 18.684,194.942 17.600,186.141 17.600 C 176.947 17.600,178.000 15.271,178.000 35.606 L 178.000 52.785 177.100 53.006 C 176.605 53.128,173.050 53.177,169.200 53.114 L 162.200 53.000 162.096 35.836 C 162.025 24.147,161.852 18.503,161.554 18.144 C 161.227 17.750,159.233 17.590,153.658 17.509 L 146.200 17.400 146.092 8.700 C 145.989 0.332,145.954 0.000,145.192 0.000 C 144.428 0.000,144.400 0.290,144.413 8.300 M202.400 26.720 C 202.400 46.969,202.516 53.556,202.880 53.920 C 203.222 54.262,205.737 54.400,211.657 54.400 C 222.300 54.400,221.196 55.971,221.216 40.811 C 221.229 30.730,221.308 29.176,221.754 30.200 C 222.042 30.860,222.575 31.647,222.939 31.949 C 223.302 32.251,223.600 32.830,223.600 33.235 C 223.600 33.640,223.960 34.165,224.400 34.400 C 224.840 34.635,225.200 35.078,225.200 35.383 C 225.200 35.689,225.650 36.473,226.200 37.127 C 226.750 37.781,227.200 38.444,227.200 38.600 C 227.200 38.756,227.650 39.419,228.200 40.073 C 228.750 40.727,229.200 41.478,229.200 41.742 C 229.200 42.006,229.560 42.530,230.000 42.907 C 230.440 43.284,230.800 43.836,230.800 44.134 C 230.800 46.062,233.932 46.717,234.810 44.973 C 235.149 44.298,235.826 43.239,236.313 42.619 C 236.801 41.999,237.200 41.246,237.200 40.946 C 237.200 40.646,237.389 40.400,237.619 40.400 C 237.850 40.400,238.255 39.897,238.519 39.282 C 238.784 38.667,239.228 37.902,239.507 37.582 C 240.512 36.429,242.386 33.389,242.393 32.900 C 242.397 32.625,242.589 32.400,242.820 32.400 C 243.050 32.400,243.586 31.635,244.011 30.700 L 244.782 29.000 244.791 40.811 C 244.799 50.844,244.894 52.756,245.423 53.511 C 246.396 54.901,262.404 54.901,263.377 53.511 C 264.303 52.189,264.328 0.000,263.403 -0.000 C 262.880 -0.000,262.793 3.313,262.703 26.500 L 262.600 53.000 254.255 53.000 L 245.910 53.000 245.976 41.066 C 246.043 28.910,245.943 28.000,244.531 28.000 C 244.216 28.000,243.709 28.599,243.403 29.332 C 243.097 30.064,242.566 30.896,242.223 31.181 C 241.880 31.465,241.600 32.005,241.600 32.379 C 241.600 32.754,241.150 33.483,240.600 34.000 C 240.050 34.517,239.600 35.080,239.600 35.252 C 239.600 35.651,237.810 38.402,237.010 39.234 C 236.674 39.582,236.400 40.063,236.400 40.303 C 236.400 40.543,235.981 41.247,235.468 41.869 C 234.956 42.491,234.421 43.315,234.281 43.700 C 233.824 44.952,232.040 44.582,231.385 43.100 C 231.070 42.385,230.282 41.080,229.634 40.200 C 228.987 39.320,227.926 37.700,227.278 36.600 C 226.629 35.500,225.716 34.257,225.249 33.838 C 224.782 33.419,224.400 32.758,224.400 32.369 C 224.400 31.980,223.981 31.153,223.468 30.531 C 222.956 29.909,222.421 29.085,222.281 28.700 C 221.984 27.887,220.993 27.774,220.524 28.500 C 220.346 28.775,220.110 34.400,220.000 41.000 L 219.800 53.000 211.600 53.000 L 203.400 53.000 203.297 26.500 C 203.230 9.296,203.055 -0.000,202.797 -0.000 C 202.538 -0.000,202.400 9.301,202.400 26.720 M221.600 0.745 C 221.600 1.155,222.496 2.820,223.591 4.445 C 224.685 6.070,225.585 7.619,225.591 7.886 C 225.596 8.153,225.939 8.553,226.354 8.775 C 226.769 8.997,227.230 9.664,227.379 10.258 C 227.528 10.851,227.998 11.780,228.425 12.322 C 228.851 12.864,229.200 13.545,229.200 13.834 C 229.200 14.123,229.451 14.504,229.757 14.680 C 230.063 14.856,230.595 15.676,230.938 16.503 C 232.416 20.063,234.424 19.289,236.652 14.300 C 237.020 13.475,237.461 12.800,237.631 12.800 C 237.802 12.800,238.205 12.305,238.526 11.700 C 238.848 11.095,239.460 9.948,239.887 9.151 C 240.313 8.354,241.053 7.205,241.531 6.597 C 242.009 5.989,242.400 5.335,242.400 5.142 C 242.400 4.949,243.030 3.895,243.800 2.800 C 245.394 0.533,245.516 0.000,244.443 0.000 C 243.956 0.000,243.591 0.382,243.417 1.073 C 243.269 1.663,242.710 2.667,242.174 3.304 C 241.638 3.940,241.200 4.690,241.200 4.969 C 241.200 5.248,240.840 5.802,240.400 6.200 C 239.960 6.598,239.600 7.262,239.600 7.675 C 239.600 8.087,239.335 8.527,239.012 8.651 C 238.689 8.775,238.203 9.489,237.932 10.238 C 237.661 10.987,237.297 11.600,237.123 11.600 C 236.798 11.600,235.730 13.464,234.562 16.069 C 233.747 17.886,232.304 17.533,231.581 15.341 C 231.337 14.603,230.974 14.000,230.774 14.000 C 230.574 14.000,230.145 13.364,229.820 12.586 C 229.495 11.808,228.953 10.895,228.615 10.557 C 228.277 10.219,228.000 9.714,228.000 9.433 C 228.000 9.153,227.640 8.598,227.200 8.200 C 226.760 7.802,226.400 7.248,226.400 6.969 C 226.400 6.690,225.950 5.927,225.400 5.273 C 224.850 4.619,224.400 3.823,224.400 3.504 C 224.400 3.185,224.040 2.598,223.600 2.200 C 223.160 1.802,222.800 1.144,222.800 0.738 C 222.800 0.332,222.530 0.000,222.200 0.000 C 221.870 0.000,221.600 0.335,221.600 0.745 M271.600 26.324 C 271.600 48.426,271.691 52.772,272.168 53.424 C 273.070 54.658,315.342 54.635,316.256 53.400 C 317.056 52.319,316.900 36.738,316.081 35.919 C 315.684 35.523,312.843 35.375,304.081 35.294 C 297.766 35.236,292.195 35.097,291.700 34.986 L 290.800 34.785 290.800 17.392 C 290.800 2.199,290.724 0.000,290.200 0.000 C 289.180 0.000,289.308 35.212,290.331 36.138 C 290.976 36.721,292.417 36.800,302.470 36.800 C 313.012 36.800,313.926 36.855,314.538 37.531 C 315.510 38.606,315.537 52.585,314.567 52.957 C 313.762 53.266,275.692 53.278,274.150 52.970 L 273.000 52.740 273.116 26.370 C 273.232 0.054,273.231 -0.000,272.416 -0.000 C 271.603 -0.000,271.600 0.092,271.600 26.324 " stroke="none" fill="#949494" fill-rule="evenodd"></path></g></svg>