<?xml version="1.0" standalone="no"?>
<!DOCTYPE svg PUBLIC "-//W3C//DTD SVG 20010904//EN"
 "http://www.w3.org/TR/2001/REC-SVG-20010904/DTD/svg10.dtd">
<svg version="1.0" xmlns="http://www.w3.org/2000/svg"
 width="225.000000pt" height="225.000000pt" viewBox="0 0 225.000000 225.000000"
 preserveAspectRatio="xMidYMid meet">

<g transform="translate(0.000000,225.000000) scale(0.100000,-0.100000)"
fill="#000000" stroke="none">
<path d="M480 2100 l0 -150 50 0 50 0 0 50 0 50 45 0 45 0 0 -50 0 -50 50 0
50 0 0 150 0 150 -50 0 -50 0 0 -50 0 -50 -45 0 -45 0 0 50 0 50 -50 0 -50 0
0 -150z"/>
<path d="M820 2200 l0 -50 45 0 45 0 0 -100 0 -100 50 0 50 0 0 100 0 100 43
0 42 0 -3 50 -4 50 -134 0 -134 0 0 -50z"/>
<path d="M1140 2100 l0 -150 50 0 49 0 3 73 3 72 28 -47 c15 -27 32 -48 36
-48 5 0 23 21 40 48 l31 47 0 -72 0 -73 50 0 50 0 0 150 0 150 -52 0 -53 0
-28 -50 c-16 -28 -31 -50 -35 -50 -5 0 -21 23 -37 50 l-29 50 -53 0 -53 0 0
-150z"/>
<path d="M1530 2100 l0 -150 126 0 125 0 -3 48 -3 47 -72 3 -73 3 0 99 0 100
-50 0 -50 0 0 -150z"/>
<path d="M334 1773 c2 -16 35 -377 72 -803 37 -426 70 -778 74 -783 8 -9 618
-179 645 -179 25 0 638 171 646 180 3 4 36 356 73 782 37 426 70 787 72 803
l6 27 -797 0 -797 0 6 -27z m1292 -330 c-3 -21 -8 -68 -11 -105 l-7 -68 -380
0 -381 0 6 -67 c4 -38 7 -83 7 -101 l0 -32 365 6 c311 6 365 5 365 -7 1 -46
-53 -605 -59 -611 -3 -3 -96 -31 -206 -61 l-200 -56 -200 56 c-110 30 -203 58
-207 61 -8 8 -36 311 -29 317 2 3 48 5 102 5 l98 0 5 -52 c3 -29 7 -66 8 -83
3 -29 6 -30 108 -59 l105 -29 113 28 c61 16 112 29 113 29 0 1 6 58 13 128
l12 128 -346 2 -345 3 -22 240 c-11 132 -24 268 -27 303 l-7 62 507 0 506 0
-6 -37z"/>
</g>
</svg>
