<svg id="svg" version="1.1" xmlns="http://www.w3.org/2000/svg" xmlns:xlink="http://www.w3.org/1999/xlink" width="400" height="400" viewBox="0, 0, 400,400"><g id="svgg"><path id="path0" d="M152.903 88.423 C 149.679 89.058,149.547 89.573,152.600 89.602 C 165.051 89.718,169.795 94.520,174.338 111.600 C 177.630 123.979,179.310 137.081,179.363 150.792 C 179.406 161.596,179.433 161.526,176.164 158.791 C 171.311 154.731,171.083 154.693,151.816 154.772 C 131.636 154.854,132.662 154.521,131.419 161.400 C 128.646 176.746,126.807 186.662,125.594 192.800 C 120.940 216.356,120.799 215.069,128.000 214.698 C 133.582 214.410,133.977 214.012,135.795 206.825 C 137.593 199.721,138.343 199.212,147.060 199.174 C 159.203 199.122,161.950 198.761,166.173 196.665 C 177.227 191.177,183.290 178.579,180.583 166.724 L 179.846 163.499 180.932 161.450 C 182.374 158.726,182.887 154.720,182.934 145.800 C 183.014 130.841,181.016 120.112,175.726 107.083 C 173.670 102.021,173.759 101.436,176.898 99.334 C 182.031 95.897,209.436 92.585,222.948 93.769 C 225.240 93.970,226.411 93.941,226.255 93.688 C 225.948 93.192,219.073 92.498,209.800 92.027 C 199.893 91.524,190.909 92.093,178.400 94.017 C 171.904 95.016,171.145 94.906,168.413 92.574 C 163.862 88.689,158.638 87.291,152.903 88.423 M241.800 96.995 C 242.460 97.295,243.810 97.806,244.800 98.132 C 254.503 101.327,268.229 108.595,279.488 116.500 C 286.828 121.653,284.926 121.136,297.500 121.395 C 303.385 121.516,316.120 121.791,325.800 122.005 C 345.594 122.444,345.125 122.490,349.762 119.647 C 356.086 115.768,358.134 115.227,359.571 117.054 C 361.998 120.140,359.075 128.800,355.606 128.800 C 354.419 128.800,346.129 126.759,344.200 125.992 C 343.412 125.679,339.497 125.475,332.800 125.398 C 327.190 125.333,316.512 125.161,309.070 125.014 C 291.139 124.660,291.563 124.364,296.430 133.831 C 310.082 160.384,307.884 187.807,289.864 215.783 C 286.571 220.895,286.372 221.951,288.288 224.134 C 289.733 225.780,289.712 225.638,290.479 238.600 C 291.085 248.831,291.092 275.066,290.490 279.950 L 290.078 283.300 287.539 285.881 C 284.869 288.595,283.118 289.714,280.800 290.189 C 280.030 290.347,278.735 291.000,277.921 291.640 C 274.753 294.133,271.758 294.199,260.400 292.024 C 259.190 291.792,257.531 291.505,256.713 291.385 C 255.084 291.148,250.431 287.720,248.869 285.607 C 248.009 284.445,247.861 284.400,244.878 284.400 C 242.246 284.400,241.420 284.221,239.390 283.213 C 238.075 282.559,236.789 282.019,236.531 282.013 C 236.273 282.006,235.500 281.528,234.814 280.950 C 233.317 279.691,232.823 279.952,233.798 281.488 C 235.859 284.735,239.104 286.752,242.755 287.055 C 247.147 287.420,247.430 287.537,250.434 290.230 C 262.277 300.850,287.834 298.740,293.999 286.634 L 295.400 283.882 295.388 272.641 C 295.381 266.459,295.291 251.500,295.188 239.400 C 294.977 214.708,294.672 217.461,298.206 212.204 C 309.271 195.750,313.732 163.314,307.448 144.999 C 306.920 143.460,305.468 139.808,304.222 136.885 C 300.647 128.499,299.299 128.993,324.724 129.375 L 344.084 129.666 347.154 130.980 C 359.343 136.198,364.619 133.736,365.107 122.604 C 365.667 109.822,361.539 107.941,349.259 115.384 C 342.927 119.222,344.595 119.004,321.800 118.975 C 292.745 118.938,292.243 118.865,283.600 113.463 C 270.197 105.085,248.602 96.283,241.800 96.426 L 240.600 96.451 241.800 96.995 M116.200 103.490 L 113.400 104.502 107.069 103.995 C 84.670 102.204,55.546 107.244,49.572 113.947 C 45.731 118.256,38.640 141.934,36.408 157.903 C 36.185 159.500,35.809 161.660,35.573 162.703 C 34.214 168.711,31.807 189.592,30.143 209.800 C 28.573 228.873,29.627 272.110,31.855 279.988 C 34.569 289.588,46.460 297.094,52.522 293.035 C 54.167 291.933,56.294 288.765,56.656 286.875 C 56.962 285.285,55.906 269.904,54.976 262.400 C 51.793 236.700,58.895 217.329,74.213 209.935 C 92.722 201.000,102.327 218.995,103.033 263.924 C 103.153 271.556,103.325 278.175,103.416 278.633 C 103.915 281.146,109.666 285.691,114.295 287.232 C 117.218 288.204,118.609 289.410,119.025 291.332 C 121.309 301.873,136.068 308.293,152.000 305.676 C 160.497 304.280,164.701 302.809,168.804 299.797 C 173.584 296.288,174.049 293.780,174.296 270.200 C 174.414 258.867,174.634 252.015,174.891 251.700 C 175.459 251.003,176.999 251.074,180.868 251.978 C 190.300 254.182,205.658 254.686,218.765 253.223 C 227.765 252.217,227.046 252.209,228.167 253.331 C 228.984 254.148,229.162 254.928,229.623 259.731 C 229.911 262.739,230.249 265.199,230.374 265.199 C 230.694 265.197,232.439 257.510,232.824 254.406 C 233.218 251.227,233.749 250.724,237.636 249.846 C 244.979 248.188,245.283 248.529,245.975 259.200 C 246.216 262.909,246.569 265.215,247.102 266.564 L 247.877 268.527 248.381 267.164 C 248.658 266.414,249.020 263.649,249.185 261.021 L 249.486 256.241 251.365 254.611 C 252.699 253.454,253.170 252.786,252.987 252.311 C 252.846 251.943,253.043 251.112,253.425 250.465 C 254.390 248.832,253.981 248.148,251.849 247.828 C 249.096 247.415,248.402 246.640,248.019 243.554 C 247.543 239.711,246.893 238.800,244.629 238.800 C 243.537 238.800,242.691 239.688,241.854 241.714 C 240.313 245.447,215.105 250.020,199.400 249.417 C 181.327 248.723,173.187 246.353,170.678 241.055 C 169.819 239.242,169.423 238.800,168.654 238.800 C 166.654 238.800,166.553 239.572,167.741 245.733 C 170.886 262.025,171.185 285.287,168.367 294.243 C 167.532 296.895,158.312 301.896,153.266 302.434 C 151.580 302.614,149.571 302.950,148.803 303.180 C 146.385 303.907,140.836 303.689,138.856 302.791 C 137.897 302.356,136.421 302.000,135.576 302.000 C 133.752 302.000,126.959 298.615,124.850 296.655 C 122.185 294.179,122.008 293.285,121.766 281.123 C 121.541 269.784,121.437 268.400,120.811 268.400 C 120.348 268.400,120.182 269.533,119.621 276.539 C 118.926 285.225,117.616 286.767,113.937 283.231 C 113.039 282.369,111.831 281.545,111.252 281.400 C 106.510 280.217,105.877 278.228,106.456 266.323 C 107.715 240.434,103.436 219.581,94.993 210.462 C 92.041 207.274,91.833 206.101,93.736 203.399 C 100.639 193.603,102.713 188.029,103.187 178.000 C 103.369 174.150,103.642 170.615,103.794 170.145 C 104.189 168.919,103.570 168.715,100.399 169.028 C 97.537 169.310,96.820 169.789,98.596 170.235 C 103.636 171.500,103.616 184.287,98.563 191.804 C 93.428 199.441,87.175 203.758,80.394 204.347 C 74.049 204.899,69.460 206.973,64.856 211.370 C 50.955 224.649,47.469 241.612,51.041 278.600 C 51.896 287.449,50.887 289.993,46.520 289.999 C 35.964 290.011,32.718 281.793,31.991 253.215 C 31.101 218.228,31.631 198.335,33.842 183.704 C 34.149 181.672,34.401 179.242,34.402 178.304 C 34.403 177.367,34.948 173.990,35.614 170.800 C 36.279 167.610,37.102 163.574,37.441 161.830 C 38.374 157.031,40.929 147.315,43.189 139.971 C 44.301 136.357,45.856 130.970,46.645 128.000 C 49.304 117.986,52.948 113.608,60.400 111.472 C 70.934 108.452,87.268 106.269,97.800 106.472 C 105.742 106.626,106.592 106.858,107.018 108.989 C 107.775 112.776,108.431 112.810,112.767 109.284 C 121.108 102.502,121.699 101.503,116.200 103.490 M68.404 126.091 C 66.453 127.126,67.087 129.206,69.349 129.193 C 70.870 129.185,76.367 127.793,76.871 127.289 C 78.129 126.031,70.540 124.957,68.404 126.091 M194.561 138.359 C 193.211 139.182,192.259 141.141,191.819 144.000 C 191.667 144.990,190.828 149.220,189.956 153.400 C 187.683 164.286,184.030 182.352,183.202 186.800 C 182.813 188.890,182.294 191.320,182.050 192.200 C 180.719 196.982,182.190 198.800,187.389 198.800 C 193.509 198.800,193.619 198.642,196.595 185.600 C 201.473 164.224,201.721 163.795,209.200 163.807 C 218.104 163.822,220.743 167.663,218.266 177.001 C 217.916 178.321,216.888 183.064,215.983 187.540 C 213.737 198.638,213.900 198.980,221.319 198.738 C 228.503 198.504,229.545 196.585,232.585 178.000 C 233.143 174.590,233.780 170.931,234.000 169.869 C 236.052 159.971,232.631 156.170,220.800 155.201 C 217.830 154.958,213.632 154.613,211.471 154.436 C 204.958 153.901,203.665 152.261,204.426 145.497 C 204.976 140.610,204.529 139.147,202.186 138.168 C 200.180 137.330,196.079 137.433,194.561 138.359 M69.887 142.757 C 67.103 145.838,67.447 153.620,70.438 155.221 C 71.563 155.822,71.794 155.468,71.034 154.309 C 69.627 152.160,69.776 150.064,71.580 146.638 C 74.162 141.736,73.070 139.233,69.887 142.757 M80.016 144.157 C 79.816 144.684,79.528 145.779,79.375 146.592 C 79.218 147.427,78.450 148.818,77.606 149.793 C 75.115 152.672,74.980 156.832,77.400 156.159 C 81.208 155.101,85.056 149.470,84.228 146.168 C 83.602 143.676,80.722 142.300,80.016 144.157 M247.009 154.858 C 243.876 155.581,242.874 157.343,242.003 163.661 C 241.780 165.277,241.320 167.860,240.981 169.400 C 240.643 170.940,239.753 175.530,239.005 179.600 C 238.256 183.670,237.372 188.350,237.039 190.000 C 236.707 191.650,235.962 195.700,235.384 199.000 C 234.806 202.300,233.989 206.573,233.567 208.496 C 232.271 214.404,232.562 214.800,238.213 214.800 C 244.553 214.800,245.139 214.306,246.969 207.414 C 249.102 199.378,248.925 199.477,261.724 199.150 C 273.613 198.847,275.506 198.394,281.246 194.480 C 295.788 184.566,296.109 159.534,281.749 155.327 C 279.074 154.543,250.071 154.152,247.009 154.858 M160.002 165.415 C 171.241 172.443,162.659 190.022,148.000 189.999 C 140.658 189.987,139.759 187.721,142.162 175.267 C 144.264 164.366,145.091 163.484,153.009 163.687 C 157.387 163.799,157.437 163.812,160.002 165.415 M270.076 165.141 C 277.855 168.853,278.542 176.901,271.714 184.312 C 265.273 191.302,252.736 191.983,252.110 185.376 C 251.649 180.518,254.858 167.213,256.968 165.230 C 259.216 163.118,265.745 163.074,270.076 165.141 M108.800 225.587 C 108.800 226.074,109.646 227.013,111.016 228.047 C 115.030 231.078,118.173 235.497,119.219 239.583 C 119.948 242.430,120.476 240.674,120.706 234.634 C 120.947 228.320,120.792 228.020,117.696 228.814 C 115.403 229.402,114.412 229.016,111.591 226.437 C 109.621 224.637,108.800 224.386,108.800 225.587 M119.875 245.459 C 119.345 245.989,119.564 256.598,120.121 257.359 C 121.031 258.605,123.120 255.182,122.481 253.491 C 121.499 250.889,123.591 249.583,127.519 250.346 C 130.040 250.836,131.600 250.605,131.600 249.743 C 131.600 248.828,129.593 248.309,127.109 248.584 C 124.510 248.872,123.699 248.573,121.575 246.545 C 120.791 245.796,120.026 245.307,119.875 245.459 " stroke="none" fill="#373a48" fill-rule="evenodd"></path><path id="path1" d="M0.000 200.000 L 0.000 400.000 200.000 400.000 L 400.000 400.000 400.000 200.000 L 400.000 0.000 200.000 0.000 L 0.000 0.000 0.000 200.000 M159.966 86.422 C 163.250 86.955,166.208 88.364,169.324 90.880 C 172.227 93.224,171.245 93.192,184.600 91.367 C 220.122 86.511,256.260 93.967,284.581 111.995 C 292.358 116.945,294.359 117.200,325.431 117.200 C 343.864 117.200,342.303 117.458,349.389 113.234 C 359.619 107.134,363.824 107.616,366.583 115.205 C 370.079 124.820,365.509 136.000,358.083 136.000 C 356.139 136.000,347.683 133.852,345.200 132.727 C 342.801 131.641,305.489 131.069,305.089 132.112 C 304.967 132.431,305.813 134.741,306.969 137.246 C 314.690 153.973,314.614 181.437,306.795 200.000 C 306.100 201.650,305.299 203.720,305.014 204.600 C 304.325 206.733,300.718 213.308,298.876 215.788 L 297.400 217.775 297.579 237.988 C 297.678 249.104,297.768 264.144,297.779 271.409 L 297.800 284.618 296.485 287.290 C 289.878 300.706,264.495 303.541,249.832 292.500 C 246.727 290.162,246.072 289.842,243.326 289.323 C 237.342 288.194,232.764 284.926,230.415 280.109 C 228.133 275.430,228.001 274.772,227.988 268.050 C 227.963 255.801,227.288 254.585,221.000 255.459 C 208.971 257.131,193.736 256.854,183.057 254.770 C 180.888 254.346,178.593 254.000,177.957 254.000 L 176.800 254.000 176.800 268.280 C 176.800 285.091,175.966 294.384,174.182 297.454 C 172.247 300.782,165.739 305.297,161.375 306.338 C 160.509 306.545,158.720 307.008,157.400 307.368 C 150.803 309.165,139.609 308.922,133.519 306.849 C 124.872 303.905,121.688 301.356,118.463 294.800 C 116.539 290.890,115.990 290.100,114.800 289.531 C 114.030 289.164,112.140 288.264,110.600 287.531 C 108.674 286.616,106.910 285.326,104.948 283.400 C 101.313 279.832,101.286 279.699,101.221 264.800 C 101.037 222.462,92.112 203.791,75.857 211.737 C 60.908 219.045,54.398 236.782,57.334 262.200 C 60.083 285.994,59.819 289.526,54.955 293.971 C 50.308 298.219,43.509 296.815,36.419 290.145 C 29.826 283.943,28.910 280.206,27.954 255.600 C 26.131 208.679,31.192 162.381,42.021 126.912 C 46.792 111.286,48.502 109.572,62.934 105.947 C 74.284 103.096,82.067 102.308,99.432 102.251 L 115.064 102.200 125.832 96.840 C 140.498 89.540,146.692 87.159,153.000 86.399 C 156.583 85.967,157.171 85.969,159.966 86.422 M148.479 92.624 C 137.419 95.600,118.956 104.880,121.166 106.352 C 122.089 106.967,124.406 106.411,127.600 104.807 C 129.250 103.979,133.122 102.032,136.205 100.480 C 142.980 97.069,146.334 95.905,152.615 94.782 C 155.247 94.312,157.637 93.731,157.927 93.492 C 159.563 92.142,152.634 91.505,148.479 92.624 M91.200 108.278 C 80.714 109.086,61.958 112.438,58.113 114.192 C 53.440 116.323,50.619 120.190,49.010 126.666 C 48.473 128.830,47.656 131.680,47.194 133.000 C 37.794 159.885,33.474 190.850,33.511 231.089 C 33.543 266.693,34.604 277.739,38.438 282.400 L 39.261 283.400 39.014 282.200 C 38.609 280.236,38.077 269.899,37.614 255.000 C 36.542 220.547,39.247 182.530,44.043 164.645 C 44.273 163.790,44.700 161.810,44.992 160.245 C 47.295 147.937,53.570 129.424,58.160 121.400 C 61.713 115.187,77.397 111.303,97.399 111.681 C 103.731 111.801,104.836 111.554,104.794 110.024 C 104.747 108.325,99.441 107.644,91.200 108.278 M74.376 146.281 C 72.793 147.613,71.871 149.703,72.202 151.208 C 72.626 153.142,73.442 152.934,74.874 150.528 C 75.603 149.303,76.455 147.901,76.767 147.413 C 78.084 145.350,76.419 144.562,74.376 146.281 M106.000 229.127 C 106.000 229.747,106.252 231.142,106.560 232.227 C 107.230 234.588,107.805 238.745,108.449 245.878 C 108.948 251.402,109.291 252.671,109.994 251.600 C 110.918 250.193,110.289 240.486,108.969 235.765 C 108.656 234.646,108.400 233.047,108.400 232.212 C 108.400 230.718,107.088 228.000,106.367 228.000 C 106.165 228.000,106.000 228.507,106.000 229.127 M123.397 233.502 C 122.706 235.184,122.678 243.403,123.359 244.720 C 125.029 247.950,126.138 245.748,125.571 240.325 C 124.931 234.204,124.135 231.706,123.397 233.502 M109.069 256.165 C 108.950 256.475,108.741 258.950,108.606 261.665 C 108.470 264.379,108.175 268.519,107.951 270.864 C 107.436 276.243,108.923 279.762,110.689 277.345 C 111.288 276.527,111.287 276.565,110.810 266.200 C 110.364 256.540,109.916 253.956,109.069 256.165 M123.949 257.862 C 123.350 258.585,123.365 264.214,123.975 267.480 C 124.157 268.451,124.133 270.779,123.923 272.695 C 123.225 279.043,123.657 291.956,124.621 293.598 C 126.215 296.310,128.235 296.235,128.148 293.467 C 127.974 287.915,126.680 271.338,126.355 270.480 C 126.093 269.793,126.121 268.492,126.437 266.529 C 127.434 260.349,126.007 255.380,123.949 257.862 M234.294 262.649 C 232.944 264.836,232.838 273.935,234.145 275.454 C 235.045 276.500,235.108 276.516,235.475 275.776 C 236.341 274.030,235.187 261.202,234.294 262.649 M196.800 274.200 C 196.800 274.530,196.620 274.800,196.400 274.800 C 196.180 274.800,196.000 274.530,196.000 274.200 C 196.000 273.870,196.180 273.600,196.400 273.600 C 196.620 273.600,196.800 273.870,196.800 274.200 M215.120 274.480 C 215.849 275.209,215.694 276.000,214.824 276.000 C 213.903 276.000,213.442 275.389,213.752 274.581 C 214.023 273.874,214.481 273.841,215.120 274.480 " stroke="none" fill="#ededed" fill-rule="evenodd"></path><path id="path2" d="M153.000 86.399 C 146.692 87.159,140.498 89.540,125.832 96.840 L 115.064 102.200 99.432 102.251 C 82.067 102.308,74.284 103.096,62.934 105.947 C 48.502 109.572,46.792 111.286,42.021 126.912 C 31.192 162.381,26.131 208.679,27.954 255.600 C 28.910 280.206,29.826 283.943,36.419 290.145 C 43.509 296.815,50.308 298.219,54.955 293.971 C 59.819 289.526,60.083 285.994,57.334 262.200 C 54.398 236.782,60.908 219.045,75.857 211.737 C 92.112 203.791,101.037 222.462,101.221 264.800 C 101.286 279.699,101.313 279.832,104.948 283.400 C 106.910 285.326,108.674 286.616,110.600 287.531 C 112.140 288.264,114.030 289.164,114.800 289.531 C 115.990 290.100,116.539 290.890,118.463 294.800 C 121.688 301.356,124.872 303.905,133.519 306.849 C 139.609 308.922,150.803 309.165,157.400 307.368 C 158.720 307.008,160.509 306.545,161.375 306.338 C 165.739 305.297,172.247 300.782,174.182 297.454 C 175.966 294.384,176.800 285.091,176.800 268.280 L 176.800 254.000 177.957 254.000 C 178.593 254.000,180.888 254.346,183.057 254.770 C 193.736 256.854,208.971 257.131,221.000 255.459 C 227.288 254.585,227.963 255.801,227.988 268.050 C 228.001 274.772,228.133 275.430,230.415 280.109 C 232.764 284.926,237.342 288.194,243.326 289.323 C 246.072 289.842,246.727 290.162,249.832 292.500 C 264.495 303.541,289.878 300.706,296.485 287.290 L 297.800 284.618 297.779 271.409 C 297.768 264.144,297.678 249.104,297.579 237.988 L 297.400 217.775 298.876 215.788 C 300.718 213.308,304.325 206.733,305.014 204.600 C 305.299 203.720,306.100 201.650,306.795 200.000 C 314.614 181.437,314.690 153.973,306.969 137.246 C 305.813 134.741,304.967 132.431,305.089 132.112 C 305.489 131.069,342.801 131.641,345.200 132.727 C 347.683 133.852,356.139 136.000,358.083 136.000 C 365.509 136.000,370.079 124.820,366.583 115.205 C 363.824 107.616,359.619 107.134,349.389 113.234 C 342.303 117.458,343.864 117.200,325.431 117.200 C 294.359 117.200,292.358 116.945,284.581 111.995 C 256.260 93.967,220.122 86.511,184.600 91.367 C 171.245 93.192,172.227 93.224,169.324 90.880 C 166.208 88.364,163.250 86.955,159.966 86.422 C 157.171 85.969,156.583 85.967,153.000 86.399 M163.313 88.369 C 164.585 88.863,166.385 89.879,167.313 90.627 C 168.241 91.375,169.690 92.474,170.534 93.069 L 172.067 94.151 179.734 93.076 C 192.435 91.295,195.353 91.081,206.400 91.118 C 235.474 91.216,261.086 98.302,283.400 112.422 C 292.120 117.940,291.774 117.885,320.200 118.259 C 342.922 118.557,342.456 118.615,348.910 114.685 C 361.308 107.134,366.002 108.965,366.122 121.400 C 366.244 134.021,360.087 137.306,346.600 131.815 L 343.400 130.512 324.600 130.296 C 300.119 130.014,301.905 129.280,305.681 138.067 C 310.271 148.748,310.978 152.372,310.978 165.200 C 310.977 184.687,306.412 202.250,298.343 213.806 L 296.229 216.835 295.896 223.118 C 295.697 226.883,295.753 237.492,296.035 249.600 C 296.851 284.569,296.667 286.452,291.994 290.842 C 281.769 300.448,260.091 300.341,249.315 290.631 C 247.122 288.656,245.578 288.000,243.118 288.000 C 238.457 288.000,232.726 283.469,230.722 278.200 C 229.331 274.540,229.270 274.088,228.804 264.036 C 228.265 252.381,228.873 252.968,218.600 254.184 C 206.036 255.671,191.612 255.216,181.416 253.012 C 174.564 251.530,175.033 250.829,175.306 262.145 C 175.714 279.022,174.713 293.050,172.840 296.722 C 167.831 306.540,142.126 310.501,128.356 303.578 C 123.146 300.958,120.713 298.277,118.755 293.000 C 117.568 289.798,116.787 289.018,113.527 287.772 C 108.625 285.899,104.207 282.398,103.000 279.429 C 102.651 278.570,102.430 273.983,102.267 264.200 C 101.518 219.294,92.260 201.825,74.087 211.026 C 59.339 218.492,53.082 236.479,55.938 263.200 C 58.369 285.953,58.263 288.293,54.614 292.331 C 47.878 299.787,32.909 290.684,30.579 277.715 C 26.408 254.506,28.637 195.596,35.002 160.796 C 40.090 132.980,45.617 115.529,50.502 111.863 C 58.238 106.058,84.104 102.009,105.618 103.235 L 113.436 103.681 116.818 102.348 C 118.678 101.615,124.520 98.835,129.800 96.171 C 146.591 87.699,155.967 85.516,163.313 88.369 M147.800 91.558 C 134.898 95.039,124.128 100.671,115.950 108.211 C 108.707 114.890,106.000 115.265,106.000 109.589 C 106.000 107.511,105.472 107.400,95.637 107.404 C 85.313 107.409,82.276 107.743,69.660 110.254 C 54.305 113.311,50.012 116.460,48.012 126.132 C 47.747 127.415,46.552 131.555,45.356 135.332 C 36.224 164.182,32.414 191.502,32.405 228.200 C 32.394 277.714,34.775 288.918,45.173 288.278 C 49.496 288.012,50.067 287.118,49.566 281.400 C 48.252 266.403,48.000 262.287,48.000 255.846 C 48.000 243.388,51.013 227.603,54.475 221.919 C 61.661 210.121,70.027 203.763,79.668 202.774 C 92.040 201.504,102.059 188.052,100.010 175.461 C 99.539 172.565,99.553 172.584,97.399 172.042 C 91.861 170.647,92.762 166.501,98.507 166.947 C 102.656 167.269,103.579 166.861,104.400 164.342 C 105.429 161.187,107.039 160.275,108.578 161.976 C 109.989 163.535,109.228 166.662,106.745 169.514 C 106.115 170.237,105.580 171.047,105.556 171.314 C 105.531 171.581,105.467 174.410,105.413 177.600 C 105.249 187.268,102.057 195.749,95.626 203.600 C 93.708 205.941,93.730 206.470,95.844 208.849 C 104.613 218.722,109.696 248.090,106.836 272.350 C 106.278 277.077,108.515 280.272,112.065 279.820 C 113.923 279.583,113.934 279.588,114.865 281.261 C 117.000 285.097,117.580 283.575,118.068 272.857 C 118.696 259.061,118.275 255.690,116.092 257.043 C 114.266 258.176,113.962 259.771,114.155 267.200 C 114.323 273.630,114.050 276.817,113.471 275.200 C 113.353 274.870,113.182 270.396,113.092 265.257 L 112.928 255.914 114.870 254.719 C 117.648 253.010,117.666 252.938,117.360 245.099 C 117.047 237.092,117.014 236.995,113.225 233.000 C 108.645 228.170,107.656 226.893,107.207 225.224 C 106.137 221.251,108.756 220.824,112.551 224.354 C 115.336 226.945,116.373 227.457,117.559 226.822 C 120.586 225.202,122.604 226.764,122.139 230.368 C 120.480 243.242,122.346 249.176,127.249 246.613 C 131.558 244.359,136.722 247.186,135.348 251.046 C 132.838 258.094,131.451 259.057,127.199 256.701 L 124.855 255.403 123.749 256.228 C 122.360 257.265,121.896 258.839,122.225 261.400 C 122.366 262.500,122.536 269.790,122.602 277.600 C 122.682 287.117,122.875 292.196,123.185 293.000 C 124.035 295.205,126.315 297.126,128.660 297.612 C 129.829 297.855,130.891 298.224,131.020 298.433 C 131.391 299.032,134.285 300.400,135.184 300.400 C 137.818 300.400,138.012 298.303,136.759 283.445 C 135.974 274.141,133.271 271.835,131.198 278.700 C 130.716 280.295,130.168 281.600,129.979 281.600 C 128.833 281.600,128.609 271.316,129.729 270.079 C 130.624 269.090,133.494 269.110,134.053 270.110 C 134.552 271.001,136.400 271.039,136.400 270.157 C 136.400 269.750,136.620 269.599,137.000 269.745 C 137.330 269.871,137.600 269.822,137.600 269.634 C 137.600 269.132,139.160 268.811,139.435 269.257 C 139.579 269.489,139.892 269.455,140.236 269.170 C 140.704 268.782,140.800 268.947,140.800 270.137 C 140.800 271.146,140.570 271.695,140.027 271.986 C 138.287 272.917,138.514 275.604,140.315 275.408 C 141.436 275.285,145.600 271.164,145.600 270.178 C 145.600 269.907,145.870 269.582,146.200 269.455 C 146.530 269.329,146.800 268.880,146.800 268.459 C 146.800 268.030,147.151 267.601,147.600 267.484 C 148.040 267.369,148.400 266.988,148.400 266.637 C 148.400 266.224,148.752 266.000,149.400 266.000 C 150.200 266.000,150.400 265.800,150.400 265.000 C 150.400 264.267,150.613 264.000,151.200 264.000 C 151.733 264.000,152.000 263.733,152.000 263.200 C 152.000 262.556,152.267 262.400,153.366 262.400 L 154.732 262.400 154.939 259.700 C 155.052 258.215,155.216 256.505,155.303 255.900 C 155.389 255.295,155.492 254.395,155.531 253.900 C 155.637 252.554,158.000 252.494,158.000 253.838 C 158.000 255.130,159.116 259.276,159.592 259.752 C 160.557 260.717,161.223 257.651,161.189 252.399 L 161.164 248.599 162.836 247.015 L 164.508 245.430 164.259 241.927 C 164.032 238.731,164.095 238.264,164.969 236.620 C 165.496 235.628,166.008 234.588,166.105 234.308 C 166.240 233.923,166.466 233.958,167.042 234.454 C 167.459 234.814,168.727 235.573,169.861 236.141 C 171.994 237.210,173.591 238.832,173.613 239.954 C 173.631 240.887,174.416 241.782,175.880 242.539 C 177.665 243.461,178.000 243.376,178.000 242.000 C 178.000 241.340,178.168 240.800,178.373 240.800 C 178.578 240.800,178.867 240.419,179.015 239.953 C 179.245 239.228,179.509 239.136,180.842 239.315 C 181.699 239.430,182.400 239.361,182.400 239.162 C 182.400 238.963,182.760 238.800,183.200 238.800 C 183.644 238.800,184.000 238.533,184.000 238.200 C 184.000 237.769,184.440 237.600,185.557 237.600 C 187.234 237.600,188.053 236.693,186.940 236.070 C 186.372 235.753,186.373 235.696,186.949 235.475 C 187.300 235.340,187.493 234.986,187.378 234.686 C 187.255 234.367,187.587 233.952,188.185 233.680 C 188.743 233.425,189.200 232.943,189.200 232.609 C 189.200 232.190,189.606 231.998,190.500 231.994 C 191.336 231.990,191.615 231.870,191.281 231.659 C 190.868 231.397,190.892 231.221,191.399 230.801 C 191.750 230.510,191.940 230.021,191.822 229.714 C 191.383 228.570,193.229 226.800,194.861 226.800 C 195.962 226.800,196.488 226.583,196.800 226.000 C 197.035 225.560,197.492 225.200,197.814 225.200 C 198.172 225.200,198.400 224.812,198.400 224.200 C 198.400 223.281,198.547 223.200,200.200 223.200 C 201.733 223.200,202.000 223.081,202.000 222.400 C 202.000 221.867,202.267 221.600,202.800 221.600 C 203.387 221.600,203.600 221.333,203.600 220.600 C 203.600 219.800,203.800 219.600,204.600 219.600 C 205.333 219.600,205.600 219.387,205.600 218.800 C 205.600 218.267,205.867 218.000,206.400 218.000 C 206.987 218.000,207.200 217.733,207.200 217.000 C 207.200 216.081,207.347 216.000,209.000 216.000 L 210.800 216.000 210.800 213.600 C 210.800 211.467,210.889 211.200,211.600 211.200 C 212.267 211.200,212.400 210.933,212.400 209.600 C 212.400 208.015,212.864 207.536,213.464 208.500 C 213.635 208.775,213.723 209.406,213.659 209.901 C 213.506 211.082,214.415 211.404,216.524 210.917 L 218.200 210.530 217.100 210.075 C 215.168 209.276,215.775 208.573,219.011 207.862 C 220.668 207.498,222.423 207.199,222.911 207.198 C 225.542 207.191,226.905 206.400,226.679 205.011 C 226.264 202.453,229.023 200.516,230.938 202.022 L 231.914 202.790 232.557 201.435 C 232.911 200.689,233.202 199.206,233.205 198.140 C 233.207 197.073,233.432 195.300,233.705 194.200 C 234.287 191.848,234.165 188.678,233.501 188.900 C 233.052 189.049,232.434 190.678,231.609 193.891 C 230.423 198.503,226.910 200.800,221.041 200.800 C 213.403 200.800,211.305 198.676,212.771 192.430 C 213.227 190.489,213.606 188.473,213.613 187.950 C 213.620 187.428,213.974 186.010,214.400 184.800 C 214.826 183.590,215.182 181.970,215.192 181.200 C 215.202 180.430,215.658 178.398,216.205 176.685 C 218.592 169.211,217.120 166.041,210.958 165.381 C 203.862 164.621,202.388 166.793,198.997 183.000 C 198.629 184.760,197.997 187.775,197.593 189.699 C 196.431 195.225,195.718 197.297,194.460 198.800 L 193.288 200.200 188.383 200.400 C 185.178 200.531,183.105 200.442,182.401 200.145 C 180.375 199.290,179.433 194.949,180.418 191.000 C 181.094 188.286,182.033 182.300,181.816 182.083 C 181.703 181.970,181.318 182.580,180.961 183.439 C 179.445 187.081,177.001 190.498,173.625 193.695 C 167.303 199.682,163.208 200.713,145.460 200.782 L 140.720 200.800 139.360 202.160 C 138.612 202.908,138.000 203.861,138.000 204.278 C 138.000 205.417,136.024 212.794,135.391 214.018 C 134.507 215.728,132.773 216.200,127.382 216.200 C 119.440 216.200,119.433 216.184,121.976 203.200 C 122.643 199.790,123.653 194.570,124.219 191.600 C 124.785 188.630,125.682 184.220,126.214 181.800 C 126.745 179.380,127.280 176.410,127.402 175.200 C 127.525 173.990,127.893 171.740,128.220 170.200 C 128.547 168.660,129.269 165.060,129.825 162.200 C 131.628 152.917,130.379 153.400,152.606 153.400 L 170.212 153.400 172.939 154.799 C 174.439 155.568,175.853 156.423,176.082 156.699 C 179.130 160.371,177.861 134.473,174.173 117.723 C 170.763 102.236,166.090 93.316,160.468 91.562 C 157.763 90.718,150.919 90.716,147.800 91.558 M157.527 92.543 C 158.992 93.355,157.956 93.828,152.615 94.782 C 146.334 95.905,142.980 97.069,136.205 100.480 C 133.122 102.032,129.250 103.979,127.600 104.807 C 124.406 106.411,122.089 106.967,121.166 106.352 C 118.956 104.880,137.419 95.600,148.479 92.624 C 151.152 91.904,156.293 91.858,157.527 92.543 M206.400 95.030 C 206.070 95.106,203.280 95.354,200.200 95.582 C 188.809 96.425,179.425 98.495,177.283 100.637 C 175.609 102.311,175.611 102.326,178.414 109.600 C 183.215 122.057,185.605 138.443,184.717 152.813 C 184.360 158.607,184.168 159.761,183.128 162.397 C 181.994 165.273,181.966 165.499,182.427 167.943 C 182.742 169.611,182.818 172.171,182.649 175.346 C 182.243 182.959,183.053 180.289,186.395 163.000 C 187.033 159.700,188.026 154.840,188.602 152.200 C 189.178 149.560,189.906 145.970,190.219 144.222 C 191.386 137.726,192.766 136.358,198.432 136.078 C 204.937 135.757,206.997 138.246,205.997 145.220 C 205.101 151.469,206.347 152.800,213.325 153.050 C 227.320 153.551,230.973 154.393,233.553 157.710 C 236.816 161.906,237.032 162.453,236.480 165.126 C 236.216 166.403,235.998 168.067,235.995 168.824 C 235.992 169.581,235.624 171.910,235.177 174.000 C 234.301 178.101,233.757 186.603,234.348 186.968 C 235.288 187.549,238.383 176.886,238.402 173.000 C 238.406 172.120,238.675 170.410,239.000 169.200 C 239.325 167.990,239.593 165.914,239.595 164.586 C 239.605 159.705,241.733 155.187,244.682 153.788 C 246.295 153.023,267.882 152.162,276.015 152.538 C 278.554 152.656,280.872 152.603,281.166 152.421 C 282.073 151.861,281.293 151.288,279.240 151.005 C 277.821 150.810,277.304 150.570,277.368 150.136 C 277.594 148.595,279.838 148.388,281.330 149.770 C 282.373 150.736,283.124 150.934,285.400 150.838 C 286.330 150.799,286.465 150.700,286.000 150.400 C 285.499 150.077,285.529 150.011,286.176 150.006 C 286.945 150.000,286.945 149.994,286.176 149.413 C 285.657 149.020,285.582 148.821,285.949 148.813 C 286.383 148.803,286.397 148.679,286.016 148.219 C 285.492 147.588,285.806 146.000,286.454 146.000 C 286.681 146.000,286.736 145.629,286.581 145.139 C 286.360 144.444,286.437 144.329,286.981 144.537 C 287.535 144.750,287.508 144.609,286.827 143.744 C 285.868 142.525,285.755 141.101,286.564 140.430 C 287.316 139.806,287.758 140.516,287.430 141.823 C 287.284 142.406,287.358 142.800,287.616 142.800 C 287.853 142.800,287.936 142.980,287.800 143.200 C 287.664 143.420,287.754 143.600,288.000 143.600 C 288.246 143.600,288.347 143.762,288.225 143.960 C 288.102 144.158,288.625 144.262,289.387 144.191 C 291.271 144.016,292.400 143.626,292.400 143.149 C 292.400 142.931,292.575 142.861,292.788 142.993 C 293.537 143.456,293.725 141.152,293.054 139.744 C 292.142 137.831,292.235 137.003,293.426 136.461 C 294.669 135.895,294.570 135.435,292.318 131.311 C 291.042 128.976,290.752 128.055,290.805 126.511 C 290.841 125.460,290.855 124.401,290.836 124.158 C 290.816 123.912,289.654 123.609,288.214 123.474 C 286.792 123.341,284.857 122.889,283.914 122.469 C 282.971 122.050,281.717 121.592,281.127 121.452 C 280.536 121.312,279.941 120.844,279.803 120.410 C 279.517 119.507,276.496 116.800,275.775 116.800 C 275.511 116.800,274.509 116.009,273.547 115.042 C 272.586 114.075,270.720 112.702,269.400 111.991 C 268.080 111.280,266.730 110.465,266.400 110.180 C 266.070 109.896,264.900 109.307,263.800 108.872 C 262.700 108.437,260.630 107.402,259.200 106.573 C 247.288 99.665,236.682 96.410,222.159 95.207 C 217.696 94.837,207.731 94.725,206.400 95.030 M102.141 108.367 C 104.638 108.777,105.279 109.592,104.232 111.024 C 103.704 111.744,103.214 111.791,97.399 111.681 C 77.397 111.303,61.713 115.187,58.160 121.400 C 53.570 129.424,47.295 147.937,44.992 160.245 C 44.700 161.810,44.273 163.790,44.043 164.645 C 39.247 182.530,36.542 220.547,37.614 255.000 C 38.077 269.899,38.609 280.236,39.014 282.200 L 39.261 283.400 38.438 282.400 C 34.604 277.739,33.543 266.693,33.511 231.089 C 33.474 190.850,37.794 159.885,47.194 133.000 C 47.656 131.680,48.473 128.830,49.010 126.666 C 51.495 116.660,54.571 114.359,69.400 111.411 C 83.325 108.642,96.413 107.425,102.141 108.367 M78.902 125.194 C 81.512 126.175,82.317 127.187,81.650 128.651 C 81.176 129.690,81.015 129.724,77.159 129.611 C 75.681 129.568,73.581 129.812,72.387 130.167 C 66.994 131.768,63.176 128.609,66.633 125.404 C 68.443 123.727,74.709 123.620,78.902 125.194 M77.777 137.289 C 78.120 137.778,78.400 138.747,78.400 139.442 C 78.400 140.615,78.535 140.739,80.300 141.183 C 86.866 142.833,87.737 149.084,82.176 154.646 C 74.028 162.793,64.432 156.804,66.914 145.121 C 67.992 140.047,75.778 134.434,77.777 137.289 M74.132 144.900 C 71.096 147.690,70.255 151.257,72.123 153.429 C 73.402 154.916,74.637 154.492,75.208 152.371 C 75.442 151.501,76.185 150.161,76.859 149.394 C 80.589 145.146,78.181 141.179,74.132 144.900 M77.079 145.863 C 77.219 146.227,77.079 146.925,76.767 147.413 C 76.455 147.901,75.603 149.303,74.874 150.528 C 73.442 152.934,72.626 153.142,72.202 151.208 C 71.582 148.384,76.133 143.397,77.079 145.863 M290.362 150.561 C 291.242 151.049,291.139 151.082,289.162 150.944 C 287.748 150.845,287.272 150.910,287.785 151.132 C 288.494 151.437,288.456 151.499,287.406 151.763 C 286.672 151.947,286.418 152.164,286.719 152.350 C 286.982 152.513,287.485 153.625,287.838 154.823 C 289.083 159.058,291.350 160.466,291.120 156.862 C 291.026 155.385,291.115 154.547,291.351 154.693 C 291.573 154.830,291.626 154.645,291.477 154.256 C 291.260 153.691,291.345 153.649,292.001 154.001 C 292.722 154.387,292.764 154.317,292.529 153.110 C 292.388 152.389,292.122 151.740,291.937 151.667 C 291.751 151.593,291.600 151.298,291.600 151.009 C 291.600 150.483,290.738 149.988,289.867 150.014 C 289.610 150.022,289.833 150.268,290.362 150.561 M293.784 162.827 C 293.639 163.061,293.616 163.349,293.733 163.467 C 294.020 163.753,294.800 163.248,294.800 162.776 C 294.800 162.265,294.109 162.299,293.784 162.827 M148.600 165.375 C 146.844 166.025,145.307 167.548,145.023 168.919 C 144.923 169.404,144.542 171.240,144.177 173.000 C 141.711 184.884,141.763 186.640,144.619 187.834 C 148.866 189.608,157.696 186.768,160.068 182.866 C 160.558 182.060,161.508 180.707,162.178 179.860 C 167.943 172.581,157.945 161.915,148.600 165.375 M260.100 166.488 C 259.005 167.016,258.927 167.600,259.951 167.600 C 260.364 167.600,260.934 167.880,261.218 168.222 C 262.400 169.646,264.800 169.924,264.800 168.637 C 264.800 167.262,266.736 167.202,267.570 168.551 C 268.082 169.379,268.941 170.054,269.891 170.375 C 272.931 171.399,273.415 173.308,271.742 177.678 C 270.906 179.860,271.161 180.380,272.605 179.433 C 274.037 178.495,274.473 177.134,274.000 175.087 C 273.785 174.159,273.512 172.743,273.394 171.939 C 272.787 167.822,264.435 164.398,260.100 166.488 M258.244 168.966 C 258.433 169.462,258.387 169.639,258.113 169.470 C 257.419 169.041,256.853 170.100,256.213 173.030 C 255.880 174.553,255.430 176.520,255.213 177.400 C 254.239 181.356,254.842 182.994,256.768 181.622 C 257.622 181.014,257.985 180.928,258.134 181.297 C 258.246 181.574,258.364 181.350,258.397 180.800 C 258.452 179.878,258.483 179.862,258.800 180.600 C 259.105 181.309,259.147 181.275,259.172 180.300 C 259.201 179.152,260.400 178.663,260.400 179.800 C 260.400 180.550,260.958 180.574,261.558 179.851 C 262.111 179.184,261.727 178.000,260.957 178.000 C 260.651 178.000,260.400 177.820,260.400 177.600 C 260.400 177.380,260.760 177.200,261.200 177.200 C 261.640 177.200,262.000 177.000,262.000 176.757 C 262.000 176.483,261.616 176.410,261.000 176.564 C 260.371 176.722,260.000 176.646,260.000 176.359 C 260.000 176.026,259.845 176.031,259.426 176.378 C 258.500 177.147,258.038 174.711,258.538 171.697 C 258.858 169.771,258.838 169.079,258.453 168.697 C 258.053 168.300,258.011 168.354,258.244 168.966 M229.476 207.921 C 228.397 209.046,228.131 210.575,228.743 212.126 C 229.190 213.261,230.315 211.784,230.742 209.500 C 231.204 207.024,230.808 206.530,229.476 207.921 M249.839 207.494 C 249.390 207.943,249.599 208.800,250.157 208.800 C 250.913 208.800,251.282 207.717,250.614 207.461 C 250.319 207.348,249.971 207.363,249.839 207.494 M233.600 217.951 C 233.600 219.174,235.702 219.353,236.157 218.169 C 236.319 217.744,236.023 217.600,234.987 217.600 C 234.224 217.600,233.600 217.758,233.600 217.951 M199.211 226.493 C 198.013 228.005,197.731 229.522,198.585 229.850 C 198.923 229.979,199.200 230.296,199.200 230.554 C 199.200 232.050,202.595 233.011,203.600 231.800 C 203.874 231.470,204.550 231.200,205.102 231.200 C 206.306 231.200,208.899 229.683,208.579 229.166 C 208.455 228.965,208.183 228.800,207.976 228.800 C 207.467 228.800,206.015 227.319,206.272 227.061 C 206.703 226.630,203.162 225.201,201.716 225.222 C 200.510 225.240,199.997 225.500,199.211 226.493 M107.567 229.347 C 108.028 230.092,108.400 231.373,108.400 232.212 C 108.400 233.047,108.656 234.646,108.969 235.765 C 110.289 240.486,110.918 250.193,109.994 251.600 C 109.291 252.671,108.948 251.402,108.449 245.878 C 107.805 238.745,107.230 234.588,106.560 232.227 C 105.467 228.376,106.009 226.826,107.567 229.347 M124.759 234.717 C 126.600 241.888,125.597 249.049,123.359 244.720 C 122.814 243.666,122.733 242.624,122.904 238.820 C 123.179 232.678,123.853 231.187,124.759 234.717 M164.992 251.021 C 164.847 251.669,164.587 252.740,164.414 253.400 C 163.936 255.222,163.996 256.299,164.603 256.803 C 164.905 257.053,165.063 257.492,164.953 257.778 C 164.844 258.063,165.034 258.404,165.377 258.536 C 165.915 258.742,165.999 258.244,165.994 254.887 C 165.987 250.802,165.479 248.840,164.992 251.021 M124.000 252.357 C 124.000 253.339,124.932 253.684,125.822 253.033 C 126.711 252.383,126.249 251.600,124.976 251.600 C 124.285 251.600,124.000 251.821,124.000 252.357 M110.170 256.900 C 110.401 258.010,111.156 271.740,111.189 275.424 C 111.213 278.116,109.368 278.659,108.156 276.316 C 107.636 275.310,107.605 274.477,107.951 270.864 C 108.175 268.519,108.470 264.379,108.606 261.665 C 108.913 255.523,109.507 253.712,110.170 256.900 M234.030 257.852 C 232.649 259.608,231.638 265.610,231.610 272.222 C 231.594 276.010,234.851 280.400,237.678 280.400 C 238.459 280.400,239.383 280.829,240.261 281.600 C 242.056 283.176,245.029 283.345,245.535 281.900 C 245.999 280.579,245.305 268.317,244.556 264.600 C 243.533 259.517,242.366 258.661,239.996 261.253 C 238.310 263.098,237.982 262.934,237.451 259.986 C 236.907 256.967,235.444 256.055,234.030 257.852 M125.763 257.724 C 126.731 258.431,127.057 262.689,126.437 266.529 C 126.121 268.492,126.093 269.793,126.355 270.480 C 126.680 271.338,127.974 287.915,128.148 293.467 C 128.235 296.235,126.215 296.310,124.621 293.598 C 123.657 291.956,123.225 279.043,123.923 272.695 C 124.133 270.779,124.157 268.451,123.975 267.480 C 122.741 260.870,123.606 256.146,125.763 257.724 M251.702 261.281 C 250.855 262.308,250.358 266.752,250.122 275.400 L 249.882 284.200 251.027 285.560 C 252.677 287.520,255.152 289.200,256.390 289.200 C 256.978 289.200,258.796 289.663,260.430 290.229 C 262.773 291.041,263.873 291.213,265.640 291.042 C 267.247 290.886,268.096 290.987,268.640 291.400 C 271.434 293.514,276.613 291.655,276.222 288.679 C 276.101 287.755,275.826 284.660,275.612 281.800 C 274.990 273.500,273.197 269.544,270.595 270.730 C 270.060 270.973,269.543 271.584,269.447 272.086 C 268.887 275.009,268.236 282.165,268.333 284.339 C 268.457 287.118,268.136 289.200,267.582 289.200 C 266.713 289.200,266.322 287.038,265.821 279.486 C 265.392 273.009,265.113 270.962,264.416 269.200 C 261.832 262.668,259.384 264.052,258.172 272.727 C 257.246 279.360,256.065 278.305,255.598 270.429 C 255.156 262.985,253.501 259.098,251.702 261.281 M235.613 269.400 C 235.903 275.989,235.618 277.166,234.145 275.454 C 233.054 274.186,232.831 269.744,233.639 265.373 C 234.543 260.476,235.286 261.992,235.613 269.400 M196.000 274.200 C 196.000 274.530,196.180 274.800,196.400 274.800 C 196.620 274.800,196.800 274.530,196.800 274.200 C 196.800 273.870,196.620 273.600,196.400 273.600 C 196.180 273.600,196.000 273.870,196.000 274.200 M213.752 274.581 C 213.442 275.389,213.903 276.000,214.824 276.000 C 215.694 276.000,215.849 275.209,215.120 274.480 C 214.481 273.841,214.023 273.874,213.752 274.581 M150.267 275.867 C 149.732 276.401,150.019 278.293,150.731 278.938 C 152.092 280.169,153.170 279.465,153.195 277.329 C 153.208 276.177,151.039 275.094,150.267 275.867 M141.911 279.484 C 139.724 281.768,139.438 283.104,139.278 291.813 C 139.102 301.423,139.158 301.575,143.042 302.009 C 148.726 302.644,149.036 302.137,148.518 293.078 L 148.101 285.800 146.351 282.200 C 144.367 278.120,143.642 277.677,141.911 279.484 " stroke="none" fill="#8999c1" fill-rule="evenodd"></path><path id="path3" d="M150.000 88.004 C 143.282 89.803,138.946 91.556,129.800 96.171 C 124.520 98.835,118.678 101.615,116.818 102.348 L 113.436 103.681 105.618 103.235 C 84.104 102.009,58.238 106.058,50.502 111.863 C 45.617 115.529,40.090 132.980,35.002 160.796 C 28.637 195.596,26.408 254.506,30.579 277.715 C 32.909 290.684,47.878 299.787,54.614 292.331 C 58.263 288.293,58.369 285.953,55.938 263.200 C 53.082 236.479,59.339 218.492,74.087 211.026 C 92.260 201.825,101.518 219.294,102.267 264.200 C 102.430 273.983,102.651 278.570,103.000 279.429 C 104.207 282.398,108.625 285.899,113.527 287.772 C 116.787 289.018,117.568 289.798,118.755 293.000 C 120.713 298.277,123.146 300.958,128.356 303.578 C 142.126 310.501,167.831 306.540,172.840 296.722 C 174.713 293.050,175.714 279.022,175.306 262.145 C 175.033 250.829,174.564 251.530,181.416 253.012 C 191.612 255.216,206.036 255.671,218.600 254.184 C 228.873 252.968,228.265 252.381,228.804 264.036 C 229.270 274.088,229.331 274.540,230.722 278.200 C 232.726 283.469,238.457 288.000,243.118 288.000 C 245.578 288.000,247.122 288.656,249.315 290.631 C 260.091 300.341,281.769 300.448,291.994 290.842 C 296.667 286.452,296.851 284.569,296.035 249.600 C 295.753 237.492,295.697 226.883,295.896 223.118 L 296.229 216.835 298.343 213.806 C 306.412 202.250,310.977 184.687,310.978 165.200 C 310.978 152.372,310.271 148.748,305.681 138.067 C 301.905 129.280,300.119 130.014,324.600 130.296 L 343.400 130.512 346.600 131.815 C 360.087 137.306,366.244 134.021,366.122 121.400 C 366.002 108.965,361.308 107.134,348.910 114.685 C 342.456 118.615,342.922 118.557,320.200 118.259 C 291.774 117.885,292.120 117.940,283.400 112.422 C 261.086 98.302,235.474 91.216,206.400 91.118 C 195.353 91.081,192.435 91.295,179.734 93.076 L 172.067 94.151 170.534 93.069 C 169.690 92.474,168.241 91.375,167.313 90.627 C 163.345 87.429,156.196 86.345,150.000 88.004 M160.928 88.598 C 163.980 89.393,165.850 90.386,168.413 92.574 C 171.145 94.906,171.904 95.016,178.400 94.017 C 190.909 92.093,199.893 91.524,209.800 92.027 C 219.073 92.498,225.948 93.192,226.255 93.688 C 226.411 93.941,225.240 93.970,222.948 93.769 C 209.436 92.585,182.031 95.897,176.898 99.334 C 173.759 101.436,173.670 102.021,175.726 107.083 C 181.016 120.112,183.014 130.841,182.934 145.800 C 182.887 154.720,182.374 158.726,180.932 161.450 L 179.846 163.499 180.583 166.724 C 183.290 178.579,177.227 191.177,166.173 196.665 C 161.950 198.761,159.203 199.122,147.060 199.174 C 138.343 199.212,137.593 199.721,135.795 206.825 C 133.977 214.012,133.582 214.410,128.000 214.698 C 120.799 215.069,120.940 216.356,125.594 192.800 C 126.807 186.662,128.646 176.746,131.419 161.400 C 132.662 154.521,131.636 154.854,151.816 154.772 C 171.083 154.693,171.311 154.731,176.164 158.791 C 179.433 161.526,179.406 161.596,179.363 150.792 C 179.310 137.081,177.630 123.979,174.338 111.600 C 169.795 94.520,165.051 89.718,152.600 89.602 C 150.491 89.582,149.973 89.475,150.503 89.167 C 152.486 88.011,157.605 87.732,160.928 88.598 M160.468 91.562 C 163.932 92.643,168.148 97.961,170.171 103.800 C 175.241 118.436,177.585 132.804,177.595 149.300 C 177.600 157.349,177.407 158.295,176.082 156.699 C 175.853 156.423,174.439 155.568,172.939 154.799 L 170.212 153.400 152.606 153.400 C 130.379 153.400,131.628 152.917,129.825 162.200 C 129.269 165.060,128.547 168.660,128.220 170.200 C 127.893 171.740,127.525 173.990,127.402 175.200 C 127.280 176.410,126.745 179.380,126.214 181.800 C 125.682 184.220,124.785 188.630,124.219 191.600 C 123.653 194.570,122.643 199.790,121.976 203.200 C 119.433 216.184,119.440 216.200,127.382 216.200 C 132.773 216.200,134.507 215.728,135.391 214.018 C 136.024 212.794,138.000 205.417,138.000 204.278 C 138.000 203.861,138.612 202.908,139.360 202.160 L 140.720 200.800 145.460 200.782 C 163.208 200.713,167.303 199.682,173.625 193.695 C 177.001 190.498,179.445 187.081,180.961 183.439 C 181.318 182.580,181.703 181.970,181.816 182.083 C 182.033 182.300,181.094 188.286,180.418 191.000 C 179.433 194.949,180.375 199.290,182.401 200.145 C 183.105 200.442,185.178 200.531,188.383 200.400 L 193.288 200.200 194.460 198.800 C 195.718 197.297,196.431 195.225,197.593 189.699 C 197.997 187.775,198.629 184.760,198.997 183.000 C 202.388 166.793,203.862 164.621,210.958 165.381 C 217.120 166.041,218.592 169.211,216.205 176.685 C 215.658 178.398,215.202 180.430,215.192 181.200 C 215.182 181.970,214.826 183.590,214.400 184.800 C 213.974 186.010,213.620 187.428,213.613 187.950 C 213.606 188.473,213.227 190.489,212.771 192.430 C 211.305 198.676,213.403 200.800,221.041 200.800 C 226.910 200.800,230.423 198.503,231.609 193.891 C 232.434 190.678,233.052 189.049,233.501 188.900 C 234.165 188.678,234.287 191.848,233.705 194.200 C 233.432 195.300,233.207 197.073,233.205 198.140 C 233.202 199.206,232.911 200.689,232.557 201.435 L 231.914 202.790 230.938 202.022 C 229.023 200.516,226.264 202.453,226.679 205.011 C 226.905 206.400,225.542 207.191,222.911 207.198 C 222.423 207.199,220.668 207.498,219.011 207.862 C 215.775 208.573,215.168 209.276,217.100 210.075 L 218.200 210.530 216.524 210.917 C 214.415 211.404,213.506 211.082,213.659 209.901 C 213.723 209.406,213.635 208.775,213.464 208.500 C 212.864 207.536,212.400 208.015,212.400 209.600 C 212.400 210.933,212.267 211.200,211.600 211.200 C 210.889 211.200,210.800 211.467,210.800 213.600 L 210.800 216.000 209.000 216.000 C 207.347 216.000,207.200 216.081,207.200 217.000 C 207.200 217.733,206.987 218.000,206.400 218.000 C 205.867 218.000,205.600 218.267,205.600 218.800 C 205.600 219.387,205.333 219.600,204.600 219.600 C 203.800 219.600,203.600 219.800,203.600 220.600 C 203.600 221.333,203.387 221.600,202.800 221.600 C 202.267 221.600,202.000 221.867,202.000 222.400 C 202.000 223.081,201.733 223.200,200.200 223.200 C 198.547 223.200,198.400 223.281,198.400 224.200 C 198.400 224.812,198.172 225.200,197.814 225.200 C 197.492 225.200,197.035 225.560,196.800 226.000 C 196.488 226.583,195.962 226.800,194.861 226.800 C 193.229 226.800,191.383 228.570,191.822 229.714 C 191.940 230.021,191.750 230.510,191.399 230.801 C 190.892 231.221,190.868 231.397,191.281 231.659 C 191.615 231.870,191.336 231.990,190.500 231.994 C 189.606 231.998,189.200 232.190,189.200 232.609 C 189.200 232.943,188.743 233.425,188.185 233.680 C 187.587 233.952,187.255 234.367,187.378 234.686 C 187.493 234.986,187.300 235.340,186.949 235.475 C 186.373 235.696,186.372 235.753,186.940 236.070 C 188.053 236.693,187.234 237.600,185.557 237.600 C 184.440 237.600,184.000 237.769,184.000 238.200 C 184.000 238.533,183.644 238.800,183.200 238.800 C 182.760 238.800,182.400 238.963,182.400 239.162 C 182.400 239.361,181.699 239.430,180.842 239.315 C 179.509 239.136,179.245 239.228,179.015 239.953 C 178.867 240.419,178.578 240.800,178.373 240.800 C 178.168 240.800,178.000 241.340,178.000 242.000 C 178.000 243.376,177.665 243.461,175.880 242.539 C 174.416 241.782,173.631 240.887,173.613 239.954 C 173.591 238.832,171.994 237.210,169.861 236.141 C 168.727 235.573,167.459 234.814,167.042 234.454 C 166.466 233.958,166.240 233.923,166.105 234.308 C 166.008 234.588,165.496 235.628,164.969 236.620 C 164.095 238.264,164.032 238.731,164.259 241.927 L 164.508 245.430 162.836 247.015 L 161.164 248.599 161.189 252.399 C 161.223 257.651,160.557 260.717,159.592 259.752 C 159.116 259.276,158.000 255.130,158.000 253.838 C 158.000 252.494,155.637 252.554,155.531 253.900 C 155.492 254.395,155.389 255.295,155.303 255.900 C 155.216 256.505,155.052 258.215,154.939 259.700 L 154.732 262.400 153.366 262.400 C 152.267 262.400,152.000 262.556,152.000 263.200 C 152.000 263.733,151.733 264.000,151.200 264.000 C 150.613 264.000,150.400 264.267,150.400 265.000 C 150.400 265.800,150.200 266.000,149.400 266.000 C 148.752 266.000,148.400 266.224,148.400 266.637 C 148.400 266.988,148.040 267.369,147.600 267.484 C 147.151 267.601,146.800 268.030,146.800 268.459 C 146.800 268.880,146.530 269.329,146.200 269.455 C 145.870 269.582,145.600 269.907,145.600 270.178 C 145.600 271.164,141.436 275.285,140.315 275.408 C 138.514 275.604,138.287 272.917,140.027 271.986 C 140.570 271.695,140.800 271.146,140.800 270.137 C 140.800 268.947,140.704 268.782,140.236 269.170 C 139.892 269.455,139.579 269.489,139.435 269.257 C 139.160 268.811,137.600 269.132,137.600 269.634 C 137.600 269.822,137.330 269.871,137.000 269.745 C 136.620 269.599,136.400 269.750,136.400 270.157 C 136.400 271.039,134.552 271.001,134.053 270.110 C 133.494 269.110,130.624 269.090,129.729 270.079 C 128.609 271.316,128.833 281.600,129.979 281.600 C 130.168 281.600,130.716 280.295,131.198 278.700 C 133.271 271.835,135.974 274.141,136.759 283.445 C 138.012 298.303,137.818 300.400,135.184 300.400 C 134.285 300.400,131.391 299.032,131.020 298.433 C 130.891 298.224,129.829 297.855,128.660 297.612 C 126.315 297.126,124.035 295.205,123.185 293.000 C 122.875 292.196,122.682 287.117,122.602 277.600 C 122.536 269.790,122.366 262.500,122.225 261.400 C 121.896 258.839,122.360 257.265,123.749 256.228 L 124.855 255.403 127.199 256.701 C 131.451 259.057,132.838 258.094,135.348 251.046 C 136.722 247.186,131.558 244.359,127.249 246.613 C 122.346 249.176,120.480 243.242,122.139 230.368 C 122.604 226.764,120.586 225.202,117.559 226.822 C 116.373 227.457,115.336 226.945,112.551 224.354 C 108.756 220.824,106.137 221.251,107.207 225.224 C 107.656 226.893,108.645 228.170,113.225 233.000 C 117.014 236.995,117.047 237.092,117.360 245.099 C 117.666 252.938,117.648 253.010,114.870 254.719 L 112.928 255.914 113.092 265.257 C 113.182 270.396,113.353 274.870,113.471 275.200 C 114.050 276.817,114.323 273.630,114.155 267.200 C 113.962 259.771,114.266 258.176,116.092 257.043 C 118.275 255.690,118.696 259.061,118.068 272.857 C 117.580 283.575,117.000 285.097,114.865 281.261 C 113.934 279.588,113.923 279.583,112.065 279.820 C 108.515 280.272,106.278 277.077,106.836 272.350 C 109.696 248.090,104.613 218.722,95.844 208.849 C 93.730 206.470,93.708 205.941,95.626 203.600 C 102.057 195.749,105.249 187.268,105.413 177.600 C 105.467 174.410,105.531 171.581,105.556 171.314 C 105.580 171.047,106.115 170.237,106.745 169.514 C 109.228 166.662,109.989 163.535,108.578 161.976 C 107.039 160.275,105.429 161.187,104.400 164.342 C 103.579 166.861,102.656 167.269,98.507 166.947 C 92.762 166.501,91.861 170.647,97.399 172.042 C 99.553 172.584,99.539 172.565,100.010 175.461 C 102.059 188.052,92.040 201.504,79.668 202.774 C 70.027 203.763,61.661 210.121,54.475 221.919 C 51.013 227.603,48.000 243.388,48.000 255.846 C 48.000 262.287,48.252 266.403,49.566 281.400 C 50.067 287.118,49.496 288.012,45.173 288.278 C 34.775 288.918,32.394 277.714,32.405 228.200 C 32.414 191.502,36.224 164.182,45.356 135.332 C 46.552 131.555,47.747 127.415,48.012 126.132 C 50.012 116.460,54.305 113.311,69.660 110.254 C 82.276 107.743,85.313 107.409,95.637 107.404 C 105.472 107.400,106.000 107.511,106.000 109.589 C 106.000 115.265,108.707 114.890,115.950 108.211 C 123.390 101.351,127.282 99.074,139.600 94.374 C 149.016 90.781,155.265 89.939,160.468 91.562 M222.159 95.207 C 236.682 96.410,247.288 99.665,259.200 106.573 C 260.630 107.402,262.700 108.437,263.800 108.872 C 264.900 109.307,266.070 109.896,266.400 110.180 C 266.730 110.465,268.080 111.280,269.400 111.991 C 270.720 112.702,272.586 114.075,273.547 115.042 C 274.509 116.009,275.511 116.800,275.775 116.800 C 276.496 116.800,279.517 119.507,279.803 120.410 C 279.941 120.844,280.536 121.312,281.127 121.452 C 281.717 121.592,282.971 122.050,283.914 122.469 C 284.857 122.889,286.792 123.341,288.214 123.474 C 289.654 123.609,290.816 123.912,290.836 124.158 C 290.855 124.401,290.841 125.460,290.805 126.511 C 290.752 128.055,291.042 128.976,292.318 131.311 C 294.570 135.435,294.669 135.895,293.426 136.461 C 292.235 137.003,292.142 137.831,293.054 139.744 C 293.725 141.152,293.537 143.456,292.788 142.993 C 292.575 142.861,292.400 142.931,292.400 143.149 C 292.400 143.626,291.271 144.016,289.387 144.191 C 288.625 144.262,288.102 144.158,288.225 143.960 C 288.347 143.762,288.246 143.600,288.000 143.600 C 287.754 143.600,287.664 143.420,287.800 143.200 C 287.936 142.980,287.853 142.800,287.616 142.800 C 287.358 142.800,287.284 142.406,287.430 141.823 C 287.758 140.516,287.316 139.806,286.564 140.430 C 285.755 141.101,285.868 142.525,286.827 143.744 C 287.508 144.609,287.535 144.750,286.981 144.537 C 286.437 144.329,286.360 144.444,286.581 145.139 C 286.736 145.629,286.681 146.000,286.454 146.000 C 285.806 146.000,285.492 147.588,286.016 148.219 C 286.397 148.679,286.383 148.803,285.949 148.813 C 285.582 148.821,285.657 149.020,286.176 149.413 C 286.945 149.994,286.945 150.000,286.176 150.006 C 285.529 150.011,285.499 150.077,286.000 150.400 C 286.465 150.700,286.330 150.799,285.400 150.838 C 283.124 150.934,282.373 150.736,281.330 149.770 C 279.838 148.388,277.594 148.595,277.368 150.136 C 277.304 150.570,277.821 150.810,279.240 151.005 C 281.293 151.288,282.073 151.861,281.166 152.421 C 280.872 152.603,278.554 152.656,276.015 152.538 C 267.882 152.162,246.295 153.023,244.682 153.788 C 241.733 155.187,239.605 159.705,239.595 164.586 C 239.593 165.914,239.325 167.990,239.000 169.200 C 238.675 170.410,238.406 172.120,238.402 173.000 C 238.383 176.886,235.288 187.549,234.348 186.968 C 233.757 186.603,234.301 178.101,235.177 174.000 C 235.624 171.910,235.992 169.581,235.995 168.824 C 235.998 168.067,236.216 166.403,236.480 165.126 C 237.032 162.453,236.816 161.906,233.553 157.710 C 230.973 154.393,227.320 153.551,213.325 153.050 C 206.347 152.800,205.101 151.469,205.997 145.220 C 206.997 138.246,204.937 135.757,198.432 136.078 C 192.766 136.358,191.386 137.726,190.219 144.222 C 189.906 145.970,189.178 149.560,188.602 152.200 C 188.026 154.840,187.033 159.700,186.395 163.000 C 183.053 180.289,182.243 182.959,182.649 175.346 C 182.818 172.171,182.742 169.611,182.427 167.943 C 181.966 165.499,181.994 165.273,183.128 162.397 C 184.168 159.761,184.360 158.607,184.717 152.813 C 185.605 138.443,183.215 122.057,178.414 109.600 C 175.611 102.326,175.609 102.311,177.283 100.637 C 179.425 98.495,188.809 96.425,200.200 95.582 C 203.280 95.354,206.070 95.106,206.400 95.030 C 207.731 94.725,217.696 94.837,222.159 95.207 M247.154 97.427 C 258.123 100.135,272.155 106.309,283.600 113.463 C 292.243 118.865,292.745 118.938,321.800 118.975 C 344.595 119.004,342.927 119.222,349.259 115.384 C 361.539 107.941,365.667 109.822,365.107 122.604 C 364.619 133.736,359.343 136.198,347.154 130.980 L 344.084 129.666 324.724 129.375 C 299.299 128.993,300.647 128.499,304.222 136.885 C 305.468 139.808,306.920 143.460,307.448 144.999 C 313.732 163.314,309.271 195.750,298.206 212.204 C 294.672 217.461,294.977 214.708,295.188 239.400 C 295.291 251.500,295.381 266.459,295.388 272.641 L 295.400 283.882 293.999 286.634 C 287.834 298.740,262.277 300.850,250.434 290.230 C 247.430 287.537,247.147 287.420,242.755 287.055 C 239.104 286.752,235.859 284.735,233.798 281.488 C 232.823 279.952,233.317 279.691,234.814 280.950 C 235.500 281.528,236.273 282.006,236.531 282.013 C 236.789 282.019,238.075 282.559,239.390 283.213 C 241.420 284.221,242.246 284.400,244.878 284.400 C 247.861 284.400,248.009 284.445,248.869 285.607 C 250.431 287.720,255.084 291.148,256.713 291.385 C 257.531 291.505,259.190 291.792,260.400 292.024 C 271.758 294.199,274.753 294.133,277.921 291.640 C 278.735 291.000,280.030 290.347,280.800 290.189 C 283.118 289.714,284.869 288.595,287.539 285.881 L 290.078 283.300 290.490 279.950 C 291.092 275.066,291.085 248.831,290.479 238.600 C 289.712 225.638,289.733 225.780,288.288 224.134 C 286.372 221.951,286.571 220.895,289.864 215.783 C 307.884 187.807,310.082 160.384,296.430 133.831 C 291.563 124.364,291.139 124.660,309.070 125.014 C 316.512 125.161,327.190 125.333,332.800 125.398 C 339.497 125.475,343.412 125.679,344.200 125.992 C 346.129 126.759,354.419 128.800,355.606 128.800 C 359.075 128.800,361.998 120.140,359.571 117.054 C 358.134 115.227,356.086 115.768,349.762 119.647 C 345.125 122.490,345.594 122.444,325.800 122.005 C 316.120 121.791,303.385 121.516,297.500 121.395 C 284.926 121.136,286.828 121.653,279.488 116.500 C 268.229 108.595,254.503 101.327,244.800 98.132 C 243.810 97.806,242.460 97.295,241.800 96.995 L 240.600 96.451 241.800 96.426 C 242.460 96.412,244.869 96.862,247.154 97.427 M120.000 102.729 C 120.000 103.293,111.455 110.607,109.696 111.549 C 109.235 111.795,108.582 111.891,108.244 111.762 C 107.619 111.522,107.446 111.131,107.018 108.989 C 106.592 106.858,105.742 106.626,97.800 106.472 C 87.268 106.269,70.934 108.452,60.400 111.472 C 52.948 113.608,49.304 117.986,46.645 128.000 C 45.856 130.970,44.301 136.357,43.189 139.971 C 40.929 147.315,38.374 157.031,37.441 161.830 C 37.102 163.574,36.279 167.610,35.614 170.800 C 34.948 173.990,34.403 177.367,34.402 178.304 C 34.401 179.242,34.149 181.672,33.842 183.704 C 31.631 198.335,31.101 218.228,31.991 253.215 C 32.718 281.793,35.964 290.011,46.520 289.999 C 50.887 289.993,51.896 287.449,51.041 278.600 C 47.469 241.612,50.955 224.649,64.856 211.370 C 69.460 206.973,74.049 204.899,80.394 204.347 C 87.175 203.758,93.428 199.441,98.563 191.804 C 103.616 184.287,103.636 171.500,98.596 170.235 C 96.820 169.789,97.537 169.310,100.399 169.028 C 103.570 168.715,104.189 168.919,103.794 170.145 C 103.642 170.615,103.369 174.150,103.187 178.000 C 102.713 188.029,100.639 193.603,93.736 203.399 C 91.833 206.101,92.041 207.274,94.993 210.462 C 103.436 219.581,107.715 240.434,106.456 266.323 C 105.877 278.228,106.510 280.217,111.252 281.400 C 111.831 281.545,113.039 282.369,113.937 283.231 C 117.616 286.767,118.926 285.225,119.621 276.539 C 120.182 269.533,120.348 268.400,120.811 268.400 C 121.437 268.400,121.541 269.784,121.766 281.123 C 122.008 293.285,122.185 294.179,124.850 296.655 C 126.959 298.615,133.752 302.000,135.576 302.000 C 136.421 302.000,137.897 302.356,138.856 302.791 C 140.836 303.689,146.385 303.907,148.803 303.180 C 149.571 302.950,151.580 302.614,153.266 302.434 C 158.312 301.896,167.532 296.895,168.367 294.243 C 171.185 285.287,170.886 262.025,167.741 245.733 C 166.553 239.572,166.654 238.800,168.654 238.800 C 169.423 238.800,169.819 239.242,170.678 241.055 C 175.044 250.277,204.529 252.270,234.200 245.349 C 240.259 243.936,241.102 243.535,241.854 241.714 C 242.691 239.688,243.537 238.800,244.629 238.800 C 246.893 238.800,247.543 239.711,248.019 243.554 C 248.402 246.640,249.096 247.415,251.849 247.828 C 253.981 248.148,254.390 248.832,253.425 250.465 C 253.043 251.112,252.846 251.943,252.987 252.311 C 253.170 252.786,252.699 253.454,251.365 254.611 L 249.486 256.241 249.185 261.021 C 249.020 263.649,248.658 266.414,248.381 267.164 L 247.877 268.527 247.102 266.564 C 246.569 265.215,246.216 262.909,245.975 259.200 C 245.283 248.529,244.979 248.188,237.636 249.846 C 233.749 250.724,233.218 251.227,232.824 254.406 C 232.439 257.510,230.694 265.197,230.374 265.199 C 230.249 265.199,229.911 262.739,229.623 259.731 C 229.162 254.928,228.984 254.148,228.167 253.331 C 227.046 252.209,227.765 252.217,218.765 253.223 C 205.658 254.686,190.300 254.182,180.868 251.978 C 176.999 251.074,175.459 251.003,174.891 251.700 C 174.634 252.015,174.414 258.867,174.296 270.200 C 174.091 289.772,173.760 293.251,171.777 296.662 C 169.901 299.889,164.255 303.137,158.232 304.454 C 137.697 308.945,121.679 303.584,119.025 291.332 C 118.609 289.410,117.218 288.204,114.295 287.232 C 109.666 285.691,103.915 281.146,103.416 278.633 C 103.325 278.175,103.153 271.556,103.033 263.924 C 102.327 218.995,92.722 201.000,74.213 209.935 C 58.895 217.329,51.793 236.700,54.976 262.400 C 55.906 269.904,56.962 285.285,56.656 286.875 C 54.288 299.211,35.842 294.089,31.855 279.988 C 29.627 272.110,28.573 228.873,30.143 209.800 C 31.807 189.592,34.214 168.711,35.573 162.703 C 35.809 161.660,36.185 159.500,36.408 157.903 C 38.640 141.934,45.731 118.256,49.572 113.947 C 55.546 107.244,84.670 102.204,107.069 103.995 L 113.400 104.502 116.200 103.490 C 119.275 102.379,120.000 102.234,120.000 102.729 M68.533 124.251 C 65.764 124.876,64.617 128.368,66.654 129.971 C 67.916 130.964,69.519 131.019,72.387 130.167 C 73.581 129.812,75.681 129.568,77.159 129.611 C 81.015 129.724,81.176 129.690,81.650 128.651 C 82.932 125.837,74.315 122.948,68.533 124.251 M76.588 126.390 C 77.511 127.156,76.935 127.541,73.554 128.419 C 68.872 129.635,66.893 129.292,67.271 127.329 C 67.597 125.636,74.804 124.909,76.588 126.390 M72.680 137.630 C 67.449 141.095,65.167 148.008,67.358 153.746 C 70.137 161.022,80.711 159.256,84.918 150.814 C 87.177 146.281,85.340 142.449,80.300 141.183 C 78.535 140.739,78.400 140.615,78.400 139.442 C 78.400 136.286,75.903 135.495,72.680 137.630 M202.186 138.168 C 204.529 139.147,204.976 140.610,204.426 145.497 C 203.665 152.261,204.958 153.901,211.471 154.436 C 213.632 154.613,217.830 154.958,220.800 155.201 C 232.631 156.170,236.052 159.971,234.000 169.869 C 233.780 170.931,233.143 174.590,232.585 178.000 C 229.545 196.585,228.503 198.504,221.319 198.738 C 213.900 198.980,213.737 198.638,215.983 187.540 C 216.888 183.064,217.916 178.321,218.266 177.001 C 220.743 167.663,218.104 163.822,209.200 163.807 C 204.042 163.798,203.041 164.343,201.228 168.142 C 200.184 170.328,199.438 173.142,196.595 185.600 C 193.619 198.642,193.509 198.800,187.389 198.800 C 182.190 198.800,180.719 196.982,182.050 192.200 C 182.294 191.320,182.813 188.890,183.202 186.800 C 184.030 182.352,187.683 164.286,189.956 153.400 C 190.828 149.220,191.667 144.990,191.819 144.000 C 192.695 138.306,196.880 135.951,202.186 138.168 M73.121 142.441 C 73.195 143.075,72.592 144.717,71.580 146.638 C 69.776 150.064,69.627 152.160,71.034 154.309 C 71.794 155.468,71.563 155.822,70.438 155.221 C 68.638 154.257,67.485 149.472,68.171 145.814 C 68.777 142.584,72.818 139.831,73.121 142.441 M78.380 144.147 C 78.910 145.542,78.254 147.805,76.859 149.394 C 76.185 150.161,75.442 151.501,75.208 152.371 C 74.340 155.595,71.200 154.337,71.200 150.765 C 71.200 146.385,77.147 140.904,78.380 144.147 M83.002 144.166 C 86.105 147.269,82.632 154.705,77.400 156.159 C 74.980 156.832,75.115 152.672,77.606 149.793 C 78.450 148.818,79.218 147.427,79.375 146.592 C 80.048 143.007,81.124 142.287,83.002 144.166 M290.967 150.243 C 291.315 150.376,291.600 150.721,291.600 151.009 C 291.600 151.298,291.751 151.593,291.937 151.667 C 292.122 151.740,292.388 152.389,292.529 153.110 C 292.764 154.317,292.722 154.387,292.001 154.001 C 291.345 153.649,291.260 153.691,291.477 154.256 C 291.626 154.645,291.573 154.830,291.351 154.693 C 291.115 154.547,291.026 155.385,291.120 156.862 C 291.350 160.466,289.083 159.058,287.838 154.823 C 287.485 153.625,286.982 152.513,286.719 152.350 C 286.418 152.164,286.672 151.947,287.406 151.763 C 288.456 151.499,288.494 151.437,287.785 151.132 C 287.272 150.910,287.748 150.845,289.162 150.944 C 291.139 151.082,291.242 151.049,290.362 150.561 C 289.386 150.021,289.809 149.798,290.967 150.243 M281.749 155.327 C 296.109 159.534,295.788 184.566,281.246 194.480 C 275.506 198.394,273.613 198.847,261.724 199.150 C 248.925 199.477,249.102 199.378,246.969 207.414 C 245.139 214.306,244.553 214.800,238.213 214.800 C 232.562 214.800,232.271 214.404,233.567 208.496 C 233.989 206.573,234.806 202.300,235.384 199.000 C 235.962 195.700,236.707 191.650,237.039 190.000 C 237.372 188.350,238.256 183.670,239.005 179.600 C 239.753 175.530,240.643 170.940,240.981 169.400 C 241.320 167.860,241.780 165.277,242.003 163.661 C 242.874 157.343,243.876 155.581,247.009 154.858 C 250.071 154.152,279.074 154.543,281.749 155.327 M294.800 162.776 C 294.800 163.248,294.020 163.753,293.733 163.467 C 293.447 163.180,293.952 162.400,294.424 162.400 C 294.631 162.400,294.800 162.569,294.800 162.776 M146.962 164.340 C 144.404 165.535,143.752 167.019,142.162 175.267 C 139.759 187.721,140.658 189.987,148.000 189.999 C 162.659 190.022,171.241 172.443,160.002 165.415 C 156.789 163.406,150.133 162.857,146.962 164.340 M259.048 163.988 C 255.988 164.972,254.832 167.429,253.192 176.430 C 251.258 187.046,251.859 189.175,256.967 189.813 C 269.913 191.431,281.499 176.403,273.942 167.795 C 271.187 164.658,263.265 162.633,259.048 163.988 M157.839 166.019 C 163.520 168.769,165.631 175.501,162.178 179.860 C 161.508 180.707,160.558 182.060,160.068 182.866 C 157.696 186.768,148.866 189.608,144.619 187.834 C 141.763 186.640,141.711 184.884,144.177 173.000 C 144.542 171.240,144.923 169.404,145.023 168.919 C 145.798 165.181,152.825 163.592,157.839 166.019 M267.400 166.640 C 270.735 167.405,273.024 169.428,273.394 171.939 C 273.512 172.743,273.785 174.159,274.000 175.087 C 274.473 177.134,274.037 178.495,272.605 179.433 C 271.161 180.380,270.906 179.860,271.742 177.678 C 273.415 173.308,272.931 171.399,269.891 170.375 C 268.941 170.054,268.082 169.379,267.570 168.551 C 266.736 167.202,264.800 167.262,264.800 168.637 C 264.800 169.924,262.400 169.646,261.218 168.222 C 260.934 167.880,260.364 167.600,259.951 167.600 C 258.927 167.600,259.005 167.016,260.100 166.488 C 261.419 165.852,264.218 165.910,267.400 166.640 M258.538 171.697 C 258.038 174.711,258.500 177.147,259.426 176.378 C 259.845 176.031,260.000 176.026,260.000 176.359 C 260.000 176.646,260.371 176.722,261.000 176.564 C 261.616 176.410,262.000 176.483,262.000 176.757 C 262.000 177.000,261.640 177.200,261.200 177.200 C 260.760 177.200,260.400 177.380,260.400 177.600 C 260.400 177.820,260.651 178.000,260.957 178.000 C 261.727 178.000,262.111 179.184,261.558 179.851 C 260.958 180.574,260.400 180.550,260.400 179.800 C 260.400 178.663,259.201 179.152,259.172 180.300 C 259.147 181.275,259.105 181.309,258.800 180.600 C 258.483 179.862,258.452 179.878,258.397 180.800 C 258.364 181.350,258.246 181.574,258.134 181.297 C 257.985 180.928,257.622 181.014,256.768 181.622 C 254.842 182.994,254.239 181.356,255.213 177.400 C 255.430 176.520,255.880 174.553,256.213 173.030 C 256.853 170.100,257.419 169.041,258.113 169.470 C 258.387 169.639,258.433 169.462,258.244 168.966 C 258.011 168.354,258.053 168.300,258.453 168.697 C 258.838 169.079,258.858 169.771,258.538 171.697 M230.742 209.500 C 230.315 211.784,229.190 213.261,228.743 212.126 C 228.131 210.575,228.397 209.046,229.476 207.921 C 230.808 206.530,231.204 207.024,230.742 209.500 M250.932 208.233 C 250.656 208.951,249.600 208.978,249.600 208.267 C 249.600 207.523,249.983 207.219,250.614 207.461 C 250.908 207.574,251.052 207.921,250.932 208.233 M236.157 218.169 C 235.844 218.983,234.792 219.291,234.149 218.758 C 233.236 218.000,233.525 217.600,234.987 217.600 C 236.023 217.600,236.319 217.744,236.157 218.169 M111.591 226.437 C 114.412 229.016,115.403 229.402,117.696 228.814 C 120.792 228.020,120.947 228.320,120.706 234.634 C 120.476 240.674,119.948 242.430,119.219 239.583 C 118.173 235.497,115.030 231.078,111.016 228.047 C 109.646 227.013,108.800 226.074,108.800 225.587 C 108.800 224.386,109.621 224.637,111.591 226.437 M204.855 226.028 C 205.747 226.483,206.385 226.948,206.272 227.061 C 206.015 227.319,207.467 228.800,207.976 228.800 C 208.183 228.800,208.455 228.965,208.579 229.166 C 208.899 229.683,206.306 231.200,205.102 231.200 C 204.550 231.200,203.874 231.470,203.600 231.800 C 202.595 233.011,199.200 232.050,199.200 230.554 C 199.200 230.296,198.923 229.979,198.585 229.850 C 197.731 229.522,198.013 228.005,199.211 226.493 C 200.431 224.953,202.425 224.789,204.855 226.028 M123.909 248.372 C 124.484 248.666,125.660 248.745,127.109 248.584 C 129.593 248.309,131.600 248.828,131.600 249.743 C 131.600 250.605,130.040 250.836,127.519 250.346 C 123.591 249.583,121.499 250.889,122.481 253.491 C 123.120 255.182,121.031 258.605,120.121 257.359 C 119.564 256.598,119.345 245.989,119.875 245.459 C 120.026 245.307,120.791 245.796,121.575 246.545 C 122.359 247.293,123.409 248.115,123.909 248.372 M165.994 254.887 C 165.999 258.244,165.915 258.742,165.377 258.536 C 165.034 258.404,164.844 258.063,164.953 257.778 C 165.063 257.492,164.905 257.053,164.603 256.803 C 163.996 256.299,163.936 255.222,164.414 253.400 C 164.587 252.740,164.847 251.669,164.992 251.021 C 165.479 248.840,165.987 250.802,165.994 254.887 M126.238 252.061 C 126.597 252.643,125.310 253.617,124.561 253.330 C 124.253 253.211,124.000 252.774,124.000 252.357 C 124.000 251.499,125.747 251.268,126.238 252.061 M236.575 257.686 C 236.917 258.174,237.311 259.209,237.451 259.986 C 237.982 262.934,238.310 263.098,239.996 261.253 C 242.366 258.661,243.533 259.517,244.556 264.600 C 245.305 268.317,245.999 280.579,245.535 281.900 C 245.029 283.345,242.056 283.176,240.261 281.600 C 239.383 280.829,238.459 280.400,237.678 280.400 C 234.851 280.400,231.594 276.010,231.610 272.222 C 231.656 261.500,234.144 254.216,236.575 257.686 M254.550 263.200 C 255.018 264.574,255.411 267.288,255.598 270.429 C 256.065 278.305,257.246 279.360,258.172 272.727 C 259.384 264.052,261.832 262.668,264.416 269.200 C 265.113 270.962,265.392 273.009,265.821 279.486 C 266.322 287.038,266.713 289.200,267.582 289.200 C 268.136 289.200,268.457 287.118,268.333 284.339 C 268.236 282.165,268.887 275.009,269.447 272.086 C 269.543 271.584,270.060 270.973,270.595 270.730 C 273.197 269.544,274.990 273.500,275.612 281.800 C 275.826 284.660,276.101 287.755,276.222 288.679 C 276.613 291.655,271.434 293.514,268.640 291.400 C 268.096 290.987,267.247 290.886,265.640 291.042 C 263.873 291.213,262.773 291.041,260.430 290.229 C 258.796 289.663,256.978 289.200,256.390 289.200 C 255.152 289.200,252.677 287.520,251.027 285.560 L 249.882 284.200 250.122 275.400 C 250.444 263.612,251.032 260.605,252.965 260.881 C 253.581 260.969,253.997 261.577,254.550 263.200 M152.571 276.229 C 153.254 276.911,153.317 277.324,152.948 278.700 C 152.475 280.464,150.000 279.208,150.000 277.205 C 150.000 275.483,151.323 274.981,152.571 276.229 M146.351 282.200 L 148.101 285.800 148.518 293.078 C 149.036 302.137,148.726 302.644,143.042 302.009 C 139.158 301.575,139.102 301.423,139.278 291.813 C 139.438 283.104,139.724 281.768,141.911 279.484 C 143.642 277.677,144.367 278.120,146.351 282.200 " stroke="none" fill="#6c84ac" fill-rule="evenodd"></path></g></svg>