<svg id="svg" version="1.1" xmlns="http://www.w3.org/2000/svg" xmlns:xlink="http://www.w3.org/1999/xlink" width="400" height="400" viewBox="0, 0, 400,400"><g id="svgg"><path id="path0" d="M50.410 67.200 C 49.951 80.930,50.514 344.228,51.004 344.927 C 51.332 345.395,51.600 346.129,51.600 346.557 C 51.600 349.745,59.501 360.126,64.200 363.112 C 66.165 364.361,67.251 365.084,68.928 366.261 C 69.916 366.955,71.078 367.634,71.510 367.771 C 71.941 367.908,72.616 368.376,73.009 368.810 C 73.402 369.245,73.985 369.600,74.304 369.600 C 74.623 369.600,75.419 370.050,76.073 370.600 C 76.727 371.150,77.534 371.600,77.868 371.600 C 78.201 371.600,78.931 371.960,79.491 372.400 C 80.050 372.840,80.909 373.200,81.400 373.200 C 81.891 373.200,82.736 373.549,83.278 373.975 C 83.820 374.402,84.789 374.877,85.432 375.032 C 86.074 375.187,87.268 375.648,88.084 376.057 C 88.900 376.466,89.966 376.800,90.453 376.800 C 90.939 376.800,91.660 377.092,92.054 377.449 C 92.448 377.806,93.600 378.253,94.614 378.442 C 95.627 378.631,96.918 379.149,97.482 379.593 C 98.067 380.053,99.110 380.400,99.907 380.400 C 100.676 380.400,101.867 380.738,102.553 381.150 C 103.239 381.563,104.789 382.025,105.998 382.177 C 107.207 382.329,108.467 382.688,108.798 382.973 C 109.129 383.259,110.570 383.597,112.000 383.723 C 113.430 383.850,115.410 384.303,116.400 384.730 C 117.390 385.156,119.438 385.624,120.952 385.769 C 122.465 385.914,124.175 386.272,124.752 386.564 C 125.328 386.857,127.295 387.223,129.121 387.377 C 130.948 387.532,133.025 387.902,133.736 388.199 C 134.447 388.496,137.092 388.936,139.614 389.177 C 142.136 389.418,144.920 389.811,145.800 390.051 C 146.680 390.290,149.740 390.642,152.600 390.833 C 155.460 391.024,158.610 391.345,159.600 391.546 C 160.590 391.748,161.850 391.929,162.400 391.949 C 162.950 391.969,165.110 392.153,167.200 392.357 C 175.582 393.176,225.390 392.788,228.239 391.881 C 229.317 391.537,230.740 391.242,231.400 391.224 C 238.178 391.043,244.773 390.520,245.247 390.127 C 245.560 389.867,248.513 389.433,251.808 389.163 C 255.104 388.893,258.298 388.425,258.907 388.122 C 259.515 387.820,261.594 387.427,263.526 387.248 C 265.463 387.070,267.478 386.647,268.019 386.306 C 268.559 385.966,270.260 385.604,271.800 385.502 C 273.703 385.376,275.048 385.042,276.000 384.460 C 277.015 383.839,278.052 383.603,279.769 383.601 C 281.206 383.601,282.385 383.383,282.769 383.049 C 283.116 382.746,284.557 382.299,285.972 382.056 C 287.386 381.813,288.647 381.447,288.774 381.243 C 288.900 381.038,290.162 380.661,291.579 380.404 C 292.995 380.147,294.594 379.591,295.131 379.168 C 295.712 378.712,296.735 378.400,297.654 378.400 C 298.652 378.400,299.476 378.124,299.978 377.622 C 300.405 377.195,301.440 376.722,302.278 376.572 C 303.115 376.422,304.109 376.029,304.486 375.700 C 304.863 375.371,306.023 374.943,307.064 374.749 C 308.104 374.554,309.056 374.251,309.178 374.075 C 309.300 373.899,310.030 373.510,310.800 373.211 C 311.570 372.913,312.482 372.430,312.826 372.139 C 313.170 371.848,314.070 371.402,314.826 371.147 C 315.582 370.892,316.396 370.532,316.636 370.346 C 316.876 370.160,318.136 369.442,319.436 368.750 C 320.736 368.058,322.229 367.156,322.754 366.746 C 323.279 366.336,323.889 366.000,324.111 366.000 C 324.332 366.000,325.462 365.190,326.621 364.200 C 327.779 363.210,328.834 362.400,328.963 362.400 C 329.093 362.400,329.963 361.659,330.896 360.754 C 331.829 359.848,332.999 358.952,333.496 358.763 C 333.993 358.574,334.400 358.145,334.400 357.810 C 334.400 357.474,334.584 357.200,334.810 357.200 C 335.035 357.200,335.393 356.745,335.604 356.190 C 335.815 355.634,336.261 355.075,336.594 354.947 C 336.927 354.819,337.200 354.526,337.200 354.295 C 337.200 354.064,337.650 353.286,338.200 352.564 C 338.750 351.843,339.200 351.096,339.200 350.904 C 339.200 350.712,339.650 349.945,340.200 349.200 C 340.944 348.191,341.200 347.346,341.200 345.896 C 341.200 344.824,341.419 343.554,341.686 343.074 C 342.066 342.393,342.176 311.738,342.186 204.000 C 342.194 127.990,342.144 66.475,342.076 67.300 C 341.980 68.456,341.780 68.800,341.202 68.800 C 340.708 68.800,340.279 69.278,339.946 70.200 C 339.667 70.970,339.291 71.600,339.110 71.600 C 338.928 71.600,338.623 72.015,338.430 72.521 C 338.005 73.639,336.936 74.916,333.859 77.984 C 330.069 81.761,329.356 82.400,328.929 82.400 C 328.706 82.400,328.198 82.760,327.800 83.200 C 327.402 83.640,326.862 84.000,326.600 84.000 C 326.338 84.000,325.798 84.360,325.400 84.800 C 325.002 85.240,324.505 85.600,324.296 85.600 C 324.087 85.600,323.381 86.050,322.727 86.600 C 322.073 87.150,321.310 87.600,321.031 87.600 C 320.752 87.600,320.198 87.960,319.800 88.400 C 319.402 88.840,318.661 89.200,318.154 89.200 C 317.646 89.200,316.909 89.545,316.516 89.968 C 316.122 90.390,315.260 90.865,314.600 91.024 C 313.940 91.183,313.078 91.647,312.684 92.056 C 312.291 92.465,311.443 92.800,310.800 92.800 C 310.157 92.800,309.309 93.136,308.916 93.547 C 308.522 93.958,307.550 94.411,306.755 94.555 C 305.960 94.698,304.987 95.172,304.593 95.608 C 304.140 96.108,303.363 96.400,302.485 96.400 C 301.720 96.400,300.533 96.741,299.847 97.158 C 299.161 97.574,297.845 98.039,296.923 98.189 C 296.001 98.339,295.050 98.699,294.810 98.988 C 294.570 99.277,293.541 99.638,292.522 99.791 C 291.503 99.944,290.026 100.413,289.240 100.834 C 288.455 101.255,287.200 101.600,286.453 101.600 C 285.706 101.600,284.533 101.940,283.847 102.355 C 283.145 102.780,281.377 103.232,279.800 103.391 C 278.260 103.547,276.460 103.994,275.800 104.386 C 275.079 104.813,273.359 105.196,271.493 105.344 C 269.784 105.480,267.984 105.842,267.493 106.148 C 267.002 106.455,265.158 106.808,263.397 106.933 C 261.635 107.058,259.498 107.451,258.648 107.806 C 257.731 108.189,255.118 108.580,252.225 108.768 C 249.023 108.976,247.014 109.294,246.374 109.695 C 245.649 110.150,243.711 110.365,238.800 110.535 C 233.873 110.706,231.744 110.943,230.400 111.469 C 226.743 112.902,169.139 112.674,164.022 111.206 C 163.279 110.993,159.776 110.699,156.236 110.552 C 152.647 110.403,148.915 110.029,147.800 109.707 C 146.700 109.388,143.882 108.977,141.538 108.793 C 139.194 108.608,136.467 108.183,135.479 107.847 C 134.490 107.512,131.998 107.062,129.941 106.847 C 127.883 106.632,125.660 106.195,125.000 105.875 C 124.340 105.554,122.485 105.179,120.879 105.041 C 119.272 104.903,117.562 104.544,117.079 104.242 C 116.595 103.941,115.124 103.577,113.808 103.433 C 112.492 103.289,111.024 102.914,110.544 102.600 C 110.065 102.286,108.555 101.849,107.188 101.629 C 105.822 101.409,104.316 100.975,103.842 100.664 C 103.368 100.354,102.049 99.972,100.910 99.815 C 99.772 99.659,98.641 99.290,98.397 98.997 C 98.153 98.703,97.199 98.339,96.277 98.189 C 95.355 98.039,94.039 97.574,93.353 97.158 C 92.667 96.741,91.624 96.400,91.034 96.400 C 90.445 96.400,89.118 95.950,88.085 95.400 C 87.052 94.850,85.912 94.400,85.552 94.400 C 85.192 94.400,84.671 94.126,84.393 93.792 C 84.115 93.457,83.114 92.989,82.169 92.750 C 81.223 92.512,80.140 91.976,79.763 91.559 C 79.385 91.141,78.665 90.800,78.162 90.800 C 77.659 90.800,77.127 90.605,76.980 90.367 C 76.832 90.129,75.967 89.591,75.056 89.172 C 74.145 88.753,73.040 88.186,72.600 87.913 C 72.160 87.640,70.902 86.872,69.803 86.208 C 68.705 85.544,67.490 84.685,67.103 84.300 C 66.717 83.915,66.208 83.600,65.973 83.600 C 64.152 83.600,53.238 72.442,53.207 70.549 C 53.203 70.301,52.904 69.852,52.543 69.552 C 52.181 69.252,51.564 68.285,51.171 67.403 L 50.457 65.800 50.410 67.200 M137.490 187.314 C 138.199 187.697,139.856 188.123,141.172 188.260 C 143.119 188.464,143.828 188.752,144.982 189.809 L 146.400 191.108 146.400 199.094 C 146.400 207.138,146.063 209.600,144.961 209.600 C 144.652 209.600,144.400 209.434,144.400 209.231 C 144.400 209.028,143.784 208.659,143.032 208.411 C 142.280 208.162,141.446 207.697,141.180 207.376 C 140.914 207.055,140.008 206.683,139.166 206.548 C 138.325 206.414,137.331 205.965,136.956 205.552 C 136.526 205.076,135.737 204.800,134.808 204.800 C 134.001 204.800,131.679 204.515,129.648 204.166 C 124.413 203.266,117.969 204.018,116.054 205.751 C 115.660 206.108,115.171 206.400,114.969 206.400 C 113.528 206.400,112.400 209.187,112.400 212.748 L 112.400 216.339 115.129 219.070 C 117.698 221.640,128.032 227.610,129.900 227.602 C 130.175 227.601,130.400 227.760,130.400 227.957 C 130.400 228.153,131.120 228.601,132.000 228.953 C 132.880 229.305,133.600 229.761,133.600 229.966 C 133.600 230.170,134.208 230.539,134.952 230.784 C 135.695 231.029,136.623 231.583,137.014 232.015 C 137.404 232.447,137.900 232.800,138.116 232.800 C 138.332 232.800,138.903 233.205,139.385 233.700 C 139.866 234.195,140.785 234.960,141.426 235.400 C 143.846 237.061,147.996 242.262,148.003 243.641 C 148.004 243.949,148.363 244.740,148.800 245.400 C 149.257 246.090,149.597 247.280,149.600 248.200 C 149.602 249.080,149.806 250.520,150.053 251.400 C 150.688 253.664,149.794 262.991,148.805 264.416 C 148.418 264.974,147.974 266.008,147.819 266.713 C 147.664 267.418,147.308 268.131,147.027 268.298 C 146.746 268.464,146.286 269.039,146.004 269.575 C 144.165 273.073,135.467 279.593,132.631 279.598 C 132.209 279.599,131.558 279.876,131.185 280.213 C 130.797 280.564,129.198 280.974,127.447 281.170 C 125.764 281.359,124.092 281.758,123.732 282.057 C 122.810 282.822,105.827 282.844,104.492 282.082 C 103.992 281.796,102.122 281.396,100.336 281.193 C 98.549 280.989,96.798 280.570,96.444 280.262 C 96.090 279.954,95.158 279.587,94.373 279.446 C 93.588 279.306,92.190 278.635,91.266 277.956 L 89.586 276.721 89.693 266.860 L 89.800 257.000 90.742 256.867 C 91.324 256.784,92.240 257.170,93.142 257.878 C 95.974 260.102,100.805 262.800,101.956 262.800 C 102.327 262.800,103.344 263.199,104.215 263.686 C 105.697 264.515,106.305 264.573,113.600 264.586 L 121.400 264.600 123.283 263.283 C 129.936 258.630,128.422 250.904,119.994 246.496 C 118.781 245.861,117.341 245.052,116.794 244.698 C 116.247 244.344,115.318 243.936,114.729 243.791 C 114.140 243.646,113.561 243.274,113.441 242.964 C 113.322 242.654,112.904 242.399,112.513 242.398 C 112.121 242.397,111.080 241.952,110.200 241.410 C 109.320 240.868,108.313 240.419,107.962 240.412 C 107.611 240.406,107.002 240.045,106.609 239.610 C 106.216 239.176,105.513 238.701,105.047 238.555 C 104.581 238.410,103.660 237.858,103.000 237.328 C 102.340 236.799,101.381 236.059,100.869 235.683 C 98.632 234.042,96.271 231.730,94.903 229.840 C 94.091 228.718,93.314 227.710,93.176 227.600 C 90.545 225.499,88.178 212.555,89.743 208.828 C 90.073 208.042,90.428 206.641,90.531 205.714 C 90.635 204.786,91.098 203.547,91.560 202.960 C 92.022 202.373,92.400 201.634,92.400 201.319 C 92.400 199.835,98.407 193.556,101.408 191.903 C 102.504 191.299,104.158 190.439,105.083 189.991 C 106.009 189.544,106.860 189.026,106.974 188.841 C 107.089 188.657,108.131 188.381,109.291 188.229 C 110.451 188.077,111.776 187.708,112.236 187.409 C 114.150 186.165,135.212 186.086,137.490 187.314 M216.630 187.214 C 217.612 187.661,219.245 188.182,220.258 188.371 C 221.271 188.561,222.213 188.896,222.350 189.116 C 222.488 189.337,223.374 189.725,224.321 189.980 C 225.267 190.234,226.141 190.702,226.263 191.021 C 226.386 191.339,226.813 191.600,227.212 191.600 C 227.612 191.600,228.473 192.050,229.127 192.600 C 229.781 193.150,230.531 193.600,230.794 193.600 C 231.687 193.600,239.764 201.437,240.436 202.955 C 240.641 203.420,241.527 204.790,242.404 206.000 C 243.281 207.210,243.999 208.509,243.999 208.886 C 244.000 209.263,244.335 209.751,244.745 209.971 C 245.214 210.221,245.573 210.982,245.711 212.016 C 245.833 212.921,246.209 213.968,246.547 214.341 C 246.885 214.715,247.283 215.826,247.432 216.810 C 247.580 217.795,248.072 219.214,248.524 219.965 C 249.784 222.059,249.784 245.545,248.523 247.682 C 248.077 248.437,247.583 249.916,247.426 250.968 C 247.268 252.020,246.793 253.448,246.371 254.141 C 245.949 254.833,245.602 255.852,245.601 256.404 C 245.601 256.973,245.254 257.624,244.800 257.907 C 244.360 258.182,244.000 258.833,244.000 259.354 C 244.000 259.876,243.715 260.538,243.367 260.827 C 243.019 261.116,242.434 261.923,242.067 262.620 C 240.862 264.912,239.328 266.973,237.550 268.691 C 231.969 274.084,230.317 275.405,228.619 275.831 C 228.091 275.964,227.348 276.416,226.967 276.836 C 226.587 277.256,225.899 277.603,225.438 277.606 C 224.375 277.614,223.838 277.976,223.260 279.074 C 222.665 280.203,222.680 280.400,223.360 280.400 C 223.668 280.400,225.333 281.765,227.060 283.434 C 228.787 285.103,231.426 287.578,232.925 288.934 C 234.424 290.290,236.898 292.615,238.423 294.100 C 239.947 295.585,241.268 296.800,241.358 296.800 C 242.260 296.800,247.721 302.919,247.347 303.511 C 245.955 305.720,218.416 304.418,218.403 302.144 C 218.401 301.892,217.230 300.511,215.800 299.074 C 214.370 297.637,213.200 296.379,213.200 296.277 C 213.200 296.176,212.075 294.909,210.700 293.463 C 209.325 292.016,207.300 289.807,206.200 288.553 C 205.100 287.298,203.714 285.744,203.121 285.099 C 202.527 284.453,201.981 283.744,201.908 283.523 C 201.834 283.302,200.195 282.998,198.265 282.848 C 196.120 282.681,194.633 282.377,194.441 282.066 C 194.268 281.786,193.004 281.398,191.633 281.205 C 190.261 281.011,188.748 280.598,188.270 280.286 C 187.791 279.975,186.743 279.599,185.941 279.450 C 185.138 279.301,184.030 278.824,183.477 278.389 C 182.925 277.955,182.108 277.600,181.661 277.600 C 181.213 277.600,180.739 277.424,180.606 277.210 C 180.473 276.995,179.338 276.152,178.082 275.336 C 172.937 271.990,166.800 265.963,166.800 264.255 C 166.800 264.042,166.526 263.582,166.190 263.234 C 165.138 262.141,163.717 259.767,163.229 258.286 C 162.970 257.504,162.498 256.648,162.180 256.383 C 161.861 256.118,161.600 255.318,161.600 254.605 C 161.600 253.892,161.248 252.861,160.819 252.315 C 160.320 251.681,159.903 250.235,159.665 248.321 C 159.460 246.670,159.093 244.948,158.849 244.492 C 157.764 242.465,157.985 226.113,159.117 224.675 C 159.323 224.414,159.590 223.189,159.711 221.954 C 159.832 220.718,160.307 218.883,160.766 217.876 C 161.225 216.868,161.600 215.755,161.600 215.401 C 161.600 214.805,162.127 213.616,163.729 210.600 C 164.080 209.940,164.664 208.725,165.027 207.900 C 165.390 207.075,165.853 206.400,166.056 206.400 C 166.259 206.400,166.542 206.085,166.685 205.700 C 166.976 204.917,169.762 201.339,171.747 199.200 C 172.954 197.899,175.505 195.813,177.615 194.400 C 178.108 194.070,178.981 193.420,179.556 192.955 C 180.130 192.490,181.050 191.974,181.600 191.807 C 182.150 191.641,182.870 191.273,183.200 190.990 C 183.530 190.706,184.520 190.275,185.400 190.031 C 186.280 189.787,187.349 189.320,187.776 188.994 C 188.204 188.667,189.104 188.398,189.776 188.396 C 190.449 188.394,191.900 187.950,193.000 187.409 C 195.855 186.004,213.652 185.857,216.630 187.214 M285.100 188.238 L 286.400 188.759 286.400 225.780 L 286.400 262.800 302.700 262.813 C 315.620 262.823,319.145 262.936,319.700 263.357 C 320.580 264.025,320.781 279.859,319.920 280.720 C 319.209 281.431,265.241 281.412,264.273 280.700 C 263.640 280.234,263.601 277.104,263.697 234.412 L 263.800 188.624 264.800 188.102 C 266.195 187.374,283.228 187.488,285.100 188.238 M200.800 205.825 C 200.030 206.116,198.770 206.368,198.000 206.383 C 197.230 206.399,196.150 206.674,195.600 206.995 C 195.050 207.316,193.999 207.862,193.265 208.209 C 190.820 209.364,185.421 215.284,184.980 217.293 C 184.839 217.932,184.472 218.551,184.162 218.670 C 183.853 218.788,183.600 219.221,183.600 219.630 C 183.600 220.040,183.150 221.754,182.600 223.439 C 181.093 228.054,181.089 241.545,182.593 245.800 C 183.138 247.340,183.587 249.011,183.592 249.513 C 183.596 250.014,183.863 250.526,184.185 250.650 C 184.506 250.773,184.884 251.262,185.025 251.737 C 185.780 254.291,191.503 260.564,193.536 261.065 C 194.121 261.210,195.320 261.704,196.200 262.164 C 200.428 264.373,211.972 262.966,216.200 259.726 C 218.970 257.604,220.000 256.636,220.000 256.155 C 220.000 255.875,220.331 255.410,220.737 255.123 C 221.142 254.835,221.711 254.150,222.002 253.600 C 222.293 253.050,222.751 252.420,223.021 252.200 C 223.290 251.980,223.636 251.080,223.789 250.200 C 223.942 249.320,224.357 248.278,224.710 247.885 C 226.556 245.828,226.543 223.286,224.694 221.437 C 224.353 221.095,223.953 220.104,223.806 219.233 C 223.658 218.362,223.102 217.180,222.569 216.604 C 222.036 216.029,221.600 215.202,221.600 214.767 C 221.600 214.331,221.330 213.871,221.000 213.745 C 220.670 213.618,220.400 213.323,220.400 213.088 C 220.400 212.339,216.065 208.400,215.240 208.400 C 214.803 208.400,214.170 208.007,213.833 207.526 C 213.344 206.828,212.717 206.617,210.711 206.474 C 209.330 206.376,207.845 206.049,207.411 205.748 C 206.426 205.064,202.697 205.107,200.800 205.825 " stroke="none" fill="#147bc8" fill-rule="evenodd"></path><path id="path1" d="M177.701 21.644 C 173.686 21.791,169.816 22.018,169.101 22.150 C 168.385 22.282,164.249 22.665,159.910 23.001 C 155.570 23.337,151.582 23.779,151.046 23.982 C 150.511 24.186,148.482 24.467,146.537 24.608 C 144.592 24.749,141.560 25.198,139.800 25.606 C 138.040 26.015,135.430 26.469,134.000 26.615 C 132.570 26.761,130.410 27.201,129.200 27.593 C 127.990 27.984,126.027 28.426,124.837 28.574 C 123.648 28.723,122.202 29.089,121.624 29.388 C 121.045 29.687,119.859 30.051,118.986 30.197 C 114.200 30.997,103.636 34.789,97.000 38.089 C 94.800 39.183,92.615 40.292,92.145 40.554 C 88.119 42.792,83.573 47.133,81.598 50.626 C 77.545 57.795,82.042 66.053,93.312 72.138 C 94.764 72.922,96.278 73.744,96.676 73.966 C 97.074 74.187,98.660 74.925,100.200 75.606 C 101.740 76.287,103.630 77.172,104.400 77.572 C 105.170 77.972,106.430 78.430,107.200 78.589 C 107.970 78.748,109.008 79.137,109.506 79.452 C 110.004 79.768,111.174 80.191,112.106 80.392 C 113.648 80.724,116.296 81.433,121.800 82.987 C 125.515 84.036,132.665 85.600,133.743 85.600 C 134.332 85.600,136.476 85.953,138.507 86.384 C 140.538 86.816,144.090 87.365,146.400 87.606 C 148.710 87.846,151.230 88.198,152.000 88.387 C 152.770 88.576,154.840 88.847,156.600 88.989 C 158.360 89.131,162.500 89.550,165.800 89.919 C 173.446 90.775,218.117 90.920,224.400 90.110 C 226.490 89.840,230.630 89.429,233.600 89.197 C 236.570 88.965,240.260 88.524,241.800 88.219 C 243.340 87.914,246.015 87.560,247.745 87.433 C 249.475 87.306,252.445 86.858,254.345 86.438 C 256.245 86.017,258.970 85.485,260.400 85.255 C 264.496 84.597,269.272 83.547,270.800 82.968 C 271.570 82.677,273.280 82.229,274.600 81.973 C 275.920 81.718,277.450 81.283,278.000 81.008 C 278.550 80.732,279.720 80.380,280.600 80.224 C 281.480 80.068,282.563 79.708,283.006 79.423 C 283.449 79.138,284.439 78.769,285.206 78.603 C 285.973 78.437,287.409 77.874,288.397 77.351 C 289.385 76.828,290.357 76.400,290.557 76.400 C 291.254 76.400,297.708 73.250,299.600 71.987 C 300.150 71.620,301.665 70.617,302.967 69.760 C 312.300 63.611,315.085 54.792,309.715 48.392 C 305.961 43.917,300.226 39.936,292.800 36.649 C 291.370 36.016,289.480 35.179,288.600 34.788 C 287.720 34.398,286.371 33.947,285.602 33.786 C 284.832 33.625,283.662 33.263,283.002 32.983 C 282.341 32.702,280.180 31.996,278.200 31.415 C 276.220 30.834,273.455 29.997,272.056 29.555 C 270.657 29.114,268.587 28.657,267.456 28.540 C 266.325 28.424,264.545 28.060,263.499 27.732 C 262.454 27.404,260.114 26.885,258.299 26.578 C 256.485 26.272,253.560 25.765,251.800 25.453 C 246.530 24.515,236.841 23.368,224.200 22.185 C 216.338 21.448,191.079 21.155,177.701 21.644 " stroke="none" fill="#aacd27" fill-rule="evenodd"></path><path id="path2" d="M0.000 200.000 L 0.000 400.000 200.000 400.000 L 400.000 400.000 400.000 200.000 L 400.000 0.000 200.000 0.000 L 0.000 0.000 0.000 200.000 M176.334 5.951 C 177.037 6.397,175.551 6.817,174.366 6.507 C 173.449 6.267,174.060 5.612,175.200 5.612 C 175.530 5.612,176.040 5.765,176.334 5.951 M209.200 6.145 C 209.200 6.515,208.868 6.626,208.163 6.491 C 207.406 6.346,207.271 6.201,207.663 5.952 C 208.471 5.441,209.200 5.532,209.200 6.145 M224.200 22.185 C 236.841 23.368,246.530 24.515,251.800 25.453 C 253.560 25.765,256.485 26.272,258.299 26.578 C 260.114 26.885,262.454 27.404,263.499 27.732 C 264.545 28.060,266.325 28.424,267.456 28.540 C 268.587 28.657,270.657 29.114,272.056 29.555 C 273.455 29.997,276.220 30.834,278.200 31.415 C 280.180 31.996,282.341 32.702,283.002 32.983 C 283.662 33.263,284.832 33.625,285.602 33.786 C 286.371 33.947,287.720 34.398,288.600 34.788 C 289.480 35.179,291.370 36.016,292.800 36.649 C 300.226 39.936,305.961 43.917,309.715 48.392 C 315.085 54.792,312.300 63.611,302.967 69.760 C 301.665 70.617,300.150 71.620,299.600 71.987 C 297.708 73.250,291.254 76.400,290.557 76.400 C 290.357 76.400,289.385 76.828,288.397 77.351 C 287.409 77.874,285.973 78.437,285.206 78.603 C 284.439 78.769,283.449 79.138,283.006 79.423 C 282.563 79.708,281.480 80.068,280.600 80.224 C 279.720 80.380,278.550 80.732,278.000 81.008 C 277.450 81.283,275.920 81.729,274.600 81.999 C 273.280 82.269,271.875 82.661,271.478 82.871 C 271.081 83.080,269.641 83.426,268.278 83.639 C 266.915 83.852,264.990 84.285,264.000 84.601 C 263.010 84.916,260.850 85.355,259.200 85.575 C 257.550 85.796,255.030 86.247,253.600 86.577 C 252.170 86.907,249.470 87.287,247.600 87.422 C 245.730 87.556,243.660 87.842,243.000 88.056 C 241.739 88.466,229.312 89.749,219.800 90.451 C 213.213 90.937,170.856 90.622,166.600 90.056 C 165.060 89.851,161.640 89.482,159.000 89.237 C 156.360 88.991,152.670 88.535,150.800 88.224 C 148.930 87.912,146.140 87.540,144.600 87.397 C 143.060 87.255,140.188 86.792,138.219 86.369 C 136.249 85.946,134.122 85.600,133.492 85.600 C 132.500 85.600,127.964 84.594,122.600 83.183 C 121.720 82.952,119.647 82.440,117.994 82.045 C 116.340 81.651,114.597 81.120,114.120 80.864 C 113.643 80.609,112.829 80.400,112.311 80.400 C 111.793 80.400,110.684 80.050,109.846 79.623 C 109.008 79.196,107.754 78.723,107.061 78.573 C 106.367 78.423,105.170 77.972,104.400 77.572 C 103.630 77.172,101.740 76.287,100.200 75.606 C 98.660 74.925,97.074 74.187,96.676 73.966 C 96.278 73.744,94.764 72.922,93.312 72.138 C 82.042 66.053,77.545 57.795,81.598 50.626 C 83.573 47.133,88.119 42.792,92.145 40.554 C 98.346 37.107,106.623 33.668,114.000 31.473 C 115.870 30.917,118.114 30.342,118.986 30.197 C 119.859 30.051,121.045 29.687,121.624 29.388 C 122.202 29.089,123.648 28.723,124.837 28.574 C 126.027 28.426,127.990 27.984,129.200 27.593 C 130.410 27.201,132.570 26.761,134.000 26.615 C 135.430 26.469,138.040 26.015,139.800 25.606 C 141.560 25.198,144.592 24.749,146.537 24.608 C 148.482 24.467,150.511 24.186,151.046 23.982 C 151.582 23.779,155.570 23.337,159.910 23.001 C 164.249 22.665,168.385 22.282,169.101 22.150 C 174.476 21.161,213.527 21.185,224.200 22.185 M343.082 61.900 C 343.773 64.461,343.446 344.964,342.751 346.026 C 342.393 346.571,341.973 347.778,341.815 348.709 C 341.658 349.639,341.300 350.535,341.019 350.700 C 340.738 350.865,340.209 351.585,339.844 352.300 C 339.478 353.015,339.033 353.600,338.854 353.600 C 338.675 353.600,338.320 354.057,338.066 354.615 C 336.956 357.050,326.632 366.800,325.163 366.800 C 324.694 366.800,321.946 368.636,320.986 369.590 C 320.538 370.036,319.891 370.400,319.548 370.400 C 319.205 370.400,318.619 370.737,318.246 371.150 C 317.873 371.562,316.841 371.997,315.953 372.116 C 315.065 372.235,314.023 372.617,313.637 372.966 C 313.252 373.315,312.668 373.600,312.338 373.600 C 312.009 373.600,311.317 374.050,310.800 374.600 C 310.227 375.210,309.419 375.600,308.729 375.600 C 308.106 375.600,306.925 375.960,306.104 376.400 C 305.284 376.840,304.338 377.200,304.003 377.200 C 303.668 377.200,302.585 377.624,301.597 378.143 C 300.609 378.661,299.283 379.210,298.652 379.363 C 298.020 379.515,297.269 379.874,296.982 380.160 C 296.696 380.447,295.523 380.792,294.376 380.928 C 293.229 381.064,291.980 381.456,291.600 381.800 C 291.220 382.144,289.940 382.534,288.755 382.668 C 287.570 382.802,286.122 383.152,285.538 383.446 C 284.955 383.740,283.175 384.183,281.583 384.430 C 279.992 384.677,278.130 385.220,277.445 385.638 C 276.760 386.055,275.529 386.398,274.708 386.399 C 273.888 386.399,272.538 386.654,271.708 386.965 C 270.879 387.276,268.349 387.726,266.086 387.965 C 263.823 388.204,261.573 388.649,261.086 388.954 C 260.599 389.259,258.757 389.599,256.993 389.710 C 255.229 389.821,253.069 390.219,252.193 390.596 C 251.044 391.089,249.126 391.324,245.313 391.438 C 241.771 391.544,239.509 391.803,238.457 392.224 C 237.498 392.607,235.350 392.895,232.943 392.961 C 218.990 393.348,213.179 393.693,210.863 394.273 C 208.954 394.752,207.668 394.827,205.663 394.579 C 204.198 394.398,201.650 394.280,200.000 394.318 C 191.419 394.515,188.644 394.467,184.860 394.058 C 181.335 393.678,180.593 393.700,179.871 394.206 C 178.818 394.943,178.602 394.945,177.883 394.225 C 177.432 393.775,175.291 393.595,167.962 393.394 C 162.822 393.252,158.362 392.994,158.051 392.821 C 157.740 392.647,157.173 392.587,156.790 392.687 C 156.407 392.787,155.541 392.583,154.867 392.234 C 153.955 391.763,152.458 391.600,149.046 391.600 C 146.519 391.600,143.945 391.399,143.326 391.152 C 141.590 390.462,136.812 389.601,134.715 389.600 C 133.678 389.600,131.887 389.228,130.735 388.774 C 129.583 388.320,128.357 388.023,128.011 388.113 C 126.935 388.394,121.585 387.608,120.670 387.033 C 120.192 386.733,118.900 386.360,117.800 386.205 C 116.700 386.051,115.232 385.687,114.537 385.398 C 113.842 385.108,112.042 384.747,110.537 384.594 C 109.032 384.442,107.350 384.021,106.800 383.660 C 106.250 383.298,104.810 382.793,103.600 382.536 C 100.757 381.932,97.763 380.947,96.000 380.035 C 95.230 379.637,93.655 379.089,92.500 378.816 C 91.345 378.543,90.400 378.183,90.400 378.014 C 90.400 377.846,89.610 377.601,88.645 377.468 C 87.680 377.336,85.552 376.523,83.916 375.661 C 82.280 374.800,80.382 373.972,79.699 373.822 C 79.015 373.671,78.241 373.290,77.979 372.974 C 77.717 372.658,77.268 372.400,76.982 372.400 C 76.696 372.400,75.953 371.983,75.331 371.473 C 74.709 370.963,73.615 370.311,72.900 370.025 C 72.185 369.738,71.600 369.362,71.600 369.191 C 71.600 369.019,71.105 368.682,70.500 368.443 C 69.895 368.203,68.590 367.375,67.600 366.604 C 66.610 365.832,65.524 365.065,65.187 364.900 C 63.602 364.124,56.400 357.687,56.400 357.047 C 56.400 356.966,55.779 356.222,55.020 355.394 C 53.755 354.013,50.800 348.664,50.800 347.755 C 50.800 347.543,50.485 346.746,50.100 345.985 C 49.165 344.134,49.033 66.734,49.967 64.480 C 50.640 62.855,51.001 63.110,51.770 65.755 C 52.112 66.932,52.664 68.121,52.996 68.397 C 53.328 68.672,53.600 69.082,53.600 69.308 C 53.600 71.790,62.538 80.583,69.144 84.600 C 69.867 85.040,70.833 85.715,71.291 86.100 C 71.748 86.485,72.292 86.800,72.499 86.800 C 72.707 86.800,73.354 87.136,73.938 87.548 C 74.522 87.959,75.450 88.433,76.000 88.603 C 76.550 88.772,77.429 89.245,77.954 89.655 C 78.479 90.065,79.222 90.400,79.605 90.400 C 79.988 90.400,80.529 90.674,80.807 91.008 C 81.085 91.343,82.091 91.813,83.044 92.053 C 83.996 92.293,84.983 92.739,85.237 93.044 C 85.490 93.350,86.009 93.600,86.389 93.600 C 86.770 93.600,87.927 94.050,88.962 94.600 C 89.996 95.150,91.240 95.600,91.727 95.600 C 92.214 95.600,93.260 95.947,94.052 96.372 C 94.844 96.796,96.191 97.266,97.046 97.417 C 97.901 97.567,98.967 97.919,99.416 98.199 C 99.865 98.479,101.298 98.930,102.600 99.200 C 103.902 99.470,105.335 99.919,105.784 100.198 C 106.233 100.476,107.482 100.816,108.560 100.953 C 109.638 101.089,111.078 101.481,111.760 101.822 C 112.442 102.164,114.170 102.597,115.600 102.785 C 117.030 102.973,118.830 103.391,119.600 103.713 C 120.370 104.036,122.342 104.427,123.982 104.582 C 125.623 104.738,127.462 105.122,128.070 105.436 C 128.679 105.751,130.576 106.116,132.288 106.247 C 134.000 106.378,136.750 106.808,138.400 107.202 C 140.050 107.596,143.020 108.035,145.000 108.177 C 146.980 108.320,149.680 108.690,151.000 109.001 C 152.320 109.311,156.820 109.760,161.000 109.998 C 165.180 110.236,169.770 110.611,171.200 110.831 C 175.031 111.421,212.564 111.761,217.200 111.247 C 219.290 111.016,225.320 110.544,230.600 110.200 C 235.880 109.855,240.747 109.401,241.416 109.191 C 242.086 108.981,245.167 108.541,248.264 108.214 C 251.361 107.888,254.390 107.432,254.994 107.202 C 255.599 106.972,257.794 106.608,259.872 106.393 C 261.951 106.177,264.027 105.800,264.486 105.554 C 264.945 105.309,266.688 104.938,268.360 104.730 C 270.032 104.523,272.398 104.026,273.617 103.626 C 274.836 103.225,276.816 102.766,278.017 102.604 C 279.218 102.443,280.380 102.170,280.600 101.998 C 280.820 101.827,282.260 101.409,283.800 101.070 C 286.692 100.433,289.144 99.691,292.600 98.404 C 293.700 97.995,295.230 97.532,296.000 97.377 C 296.770 97.221,298.027 96.757,298.794 96.347 C 299.561 95.936,300.551 95.598,300.994 95.596 C 301.437 95.594,302.700 95.150,303.800 94.609 C 304.900 94.068,306.115 93.619,306.500 93.613 C 306.885 93.606,307.200 93.427,307.200 93.215 C 307.200 93.004,307.959 92.627,308.886 92.377 C 309.813 92.127,311.007 91.580,311.540 91.161 C 312.072 90.743,312.906 90.400,313.392 90.400 C 313.878 90.400,314.602 90.040,315.000 89.600 C 315.398 89.160,316.014 88.800,316.369 88.800 C 316.724 88.800,317.677 88.350,318.486 87.800 C 319.295 87.250,320.110 86.800,320.297 86.800 C 320.484 86.800,320.989 86.525,321.419 86.189 C 321.848 85.853,323.106 84.998,324.214 84.289 C 329.796 80.717,337.600 73.426,337.600 71.785 C 337.600 71.531,337.944 71.013,338.364 70.633 C 338.784 70.252,339.245 69.474,339.389 68.902 C 339.532 68.331,339.998 67.420,340.425 66.878 C 340.851 66.336,341.200 65.655,341.200 65.366 C 341.200 62.383,342.544 59.908,343.082 61.900 M116.800 187.462 C 116.250 187.569,114.912 187.913,113.827 188.228 C 112.742 188.543,111.404 188.800,110.854 188.800 C 109.335 188.800,103.513 191.517,100.819 193.484 C 97.516 195.894,93.200 200.639,93.200 201.860 C 93.200 201.983,92.778 202.923,92.263 203.949 C 89.305 209.839,90.509 224.137,94.224 227.220 C 94.541 227.483,94.800 227.856,94.800 228.049 C 94.800 228.419,95.126 228.817,97.547 231.400 C 99.541 233.527,101.725 235.310,104.400 236.994 C 105.610 237.755,106.952 238.653,107.381 238.989 C 107.811 239.325,108.381 239.600,108.648 239.600 C 108.914 239.600,110.273 240.226,111.666 240.992 C 113.060 241.757,114.830 242.655,115.600 242.988 C 116.370 243.320,117.270 243.772,117.600 243.994 C 117.930 244.215,118.875 244.687,119.700 245.041 C 120.525 245.396,121.200 245.835,121.200 246.016 C 121.200 246.198,121.577 246.466,122.038 246.612 C 124.941 247.533,128.400 252.908,128.400 256.495 C 128.400 259.216,126.161 263.600,124.771 263.600 C 124.549 263.600,123.877 263.963,123.278 264.406 C 120.220 266.667,107.523 266.647,103.088 264.375 C 102.256 263.949,101.329 263.600,101.028 263.600 C 100.316 263.600,96.148 261.405,95.356 260.613 C 95.019 260.276,94.557 260.000,94.329 260.000 C 94.102 260.000,93.379 259.549,92.724 258.997 C 90.885 257.450,90.800 257.820,90.800 267.414 L 90.800 276.382 91.900 277.082 C 92.505 277.467,93.095 277.911,93.210 278.069 C 93.326 278.227,94.289 278.551,95.351 278.789 C 96.413 279.027,97.758 279.466,98.341 279.764 C 98.923 280.063,100.930 280.440,102.800 280.603 C 104.670 280.766,107.010 281.145,108.000 281.446 C 110.085 282.078,117.329 282.186,119.040 281.610 C 119.678 281.396,122.090 280.959,124.400 280.640 C 129.272 279.968,136.003 277.683,138.160 275.970 C 142.262 272.712,143.730 271.267,145.313 268.928 C 146.351 267.396,147.200 265.882,147.200 265.565 C 147.200 265.248,147.595 264.271,148.078 263.394 C 149.098 261.543,149.615 251.948,148.853 249.000 C 148.136 246.222,146.946 243.225,146.261 242.468 C 145.898 242.066,145.600 241.571,145.600 241.368 C 145.600 240.682,138.350 233.600,137.647 233.600 C 137.461 233.600,136.801 233.201,136.181 232.713 C 135.093 231.858,133.701 231.016,131.600 229.943 C 131.050 229.662,130.171 229.110,129.646 228.716 C 129.121 228.322,128.381 228.000,128.000 228.000 C 127.619 228.000,126.879 227.667,126.354 227.261 C 125.829 226.855,124.918 226.404,124.328 226.260 C 123.738 226.117,123.013 225.756,122.717 225.460 C 122.420 225.163,121.495 224.695,120.661 224.420 C 119.827 224.145,119.047 223.668,118.929 223.360 C 118.811 223.052,118.482 222.800,118.198 222.800 C 117.390 222.800,114.702 220.423,112.500 217.761 C 110.270 215.066,111.924 205.600,114.624 205.600 C 114.894 205.600,115.205 205.364,115.316 205.076 C 115.426 204.787,116.300 204.319,117.258 204.034 C 118.216 203.750,119.253 203.311,119.563 203.059 C 120.332 202.432,130.911 202.462,131.672 203.094 C 131.977 203.347,133.347 203.735,134.715 203.955 C 136.083 204.176,137.696 204.613,138.301 204.927 C 138.905 205.241,140.030 205.790,140.800 206.147 C 141.570 206.503,142.470 206.948,142.800 207.135 C 144.974 208.368,145.110 208.387,145.354 207.478 C 145.668 206.306,145.667 192.241,145.353 191.422 C 144.955 190.385,141.221 188.909,138.296 188.633 C 136.808 188.492,135.098 188.171,134.496 187.919 C 133.391 187.458,118.772 187.080,116.800 187.462 M197.800 187.474 C 197.140 187.559,196.240 187.790,195.800 187.988 C 195.360 188.186,193.740 188.552,192.200 188.803 C 190.660 189.053,189.130 189.495,188.800 189.784 C 188.470 190.074,187.570 190.443,186.800 190.605 C 186.030 190.767,184.922 191.237,184.338 191.650 C 183.754 192.062,183.054 192.400,182.783 192.400 C 181.191 192.400,173.890 198.230,170.600 202.129 C 169.720 203.172,168.735 204.316,168.411 204.673 C 168.088 205.029,167.614 205.698,167.359 206.160 C 167.104 206.622,166.424 207.810,165.848 208.800 C 165.271 209.790,164.521 211.230,164.180 212.000 C 163.838 212.770,163.313 213.940,163.012 214.600 C 160.273 220.607,158.387 233.769,159.374 240.000 C 159.740 242.310,160.200 245.460,160.397 247.000 C 160.594 248.540,161.126 250.556,161.578 251.481 C 162.030 252.405,162.400 253.598,162.400 254.132 C 162.400 254.665,162.640 255.302,162.934 255.545 C 163.228 255.789,163.707 256.714,164.000 257.600 C 164.293 258.486,164.772 259.411,165.066 259.655 C 165.360 259.898,165.600 260.332,165.600 260.618 C 165.600 260.904,166.050 261.673,166.600 262.327 C 167.150 262.981,167.600 263.637,167.600 263.784 C 167.600 265.109,174.275 271.698,178.246 274.293 C 178.661 274.564,179.656 275.221,180.459 275.753 C 181.261 276.285,182.341 276.848,182.859 277.006 C 183.376 277.163,184.361 277.631,185.047 278.046 C 185.733 278.461,186.723 278.801,187.247 278.801 C 187.771 278.802,188.754 279.141,189.432 279.554 C 190.110 279.968,191.820 280.430,193.232 280.583 C 194.644 280.735,196.790 281.106,198.000 281.408 C 199.210 281.709,200.666 282.052,201.237 282.169 C 202.158 282.360,206.885 287.341,213.914 295.532 C 214.731 296.484,216.714 298.599,218.319 300.232 L 221.239 303.200 233.919 303.188 C 242.730 303.179,246.386 303.051,245.900 302.768 C 245.515 302.544,245.200 302.094,245.200 301.768 C 245.200 301.442,244.896 301.058,244.524 300.916 C 244.153 300.773,242.636 299.474,241.154 298.028 C 238.561 295.500,234.631 291.919,231.685 289.400 C 230.913 288.740,228.943 286.893,227.308 285.296 C 225.673 283.698,223.720 281.922,222.968 281.348 C 220.984 279.835,221.039 278.179,223.100 277.370 C 223.925 277.046,224.870 276.610,225.200 276.403 C 225.530 276.195,226.520 275.663,227.400 275.222 C 231.275 273.279,235.891 269.319,238.891 265.365 C 239.711 264.284,240.522 263.220,240.694 263.000 C 240.865 262.780,241.235 262.150,241.516 261.600 C 241.797 261.050,242.730 259.340,243.588 257.800 C 244.447 256.260,245.161 254.675,245.175 254.278 C 245.189 253.881,245.540 252.801,245.956 251.878 C 246.371 250.955,246.837 249.390,246.991 248.400 C 247.145 247.410,247.514 245.700,247.811 244.600 C 249.565 238.104,248.311 220.105,245.787 215.538 C 245.464 214.954,245.200 214.233,245.200 213.935 C 245.200 213.637,244.750 212.548,244.200 211.515 C 243.650 210.482,243.200 209.358,243.200 209.018 C 243.200 208.678,243.011 208.400,242.780 208.400 C 242.550 208.400,242.055 207.722,241.680 206.894 C 240.346 203.938,236.286 199.333,231.555 195.408 C 230.481 194.517,228.872 193.560,226.800 192.582 C 226.030 192.218,225.130 191.690,224.800 191.407 C 224.470 191.125,223.750 190.774,223.200 190.627 C 222.650 190.479,221.390 190.028,220.400 189.623 C 219.410 189.218,217.610 188.682,216.400 188.432 C 215.190 188.181,213.480 187.809,212.600 187.606 C 211.065 187.250,200.289 187.154,197.800 187.474 M265.074 189.060 C 264.714 189.420,264.797 277.901,265.158 279.200 L 265.436 280.200 291.618 280.304 C 315.877 280.400,317.837 280.358,318.300 279.728 C 318.931 278.869,319.005 265.930,318.386 264.774 C 317.988 264.029,317.384 264.000,302.486 263.994 C 290.805 263.990,286.754 263.864,286.000 263.482 L 285.000 262.976 284.800 225.988 L 284.600 189.000 274.974 188.893 C 269.679 188.834,265.224 188.909,265.074 189.060 M210.868 205.108 C 211.139 205.379,211.749 205.600,212.224 205.600 C 212.699 205.600,213.751 206.050,214.562 206.600 C 215.372 207.150,216.156 207.600,216.304 207.600 C 216.451 207.600,216.938 207.959,217.386 208.399 C 217.834 208.838,218.830 209.814,219.600 210.567 C 221.471 212.396,222.032 213.099,222.795 214.564 C 223.149 215.244,223.634 216.160,223.872 216.600 C 225.030 218.741,225.964 221.154,226.194 222.600 C 226.333 223.480,226.718 225.280,227.050 226.600 C 228.311 231.628,226.976 248.503,225.231 249.581 C 225.029 249.706,224.735 250.346,224.578 251.004 C 224.421 251.662,224.068 252.470,223.795 252.800 C 223.521 253.130,222.999 253.988,222.635 254.706 C 220.952 258.028,213.661 263.600,210.997 263.600 C 210.638 263.600,208.854 263.893,207.034 264.250 C 203.635 264.918,203.343 264.899,197.532 263.641 C 196.505 263.418,194.978 262.868,194.138 262.418 C 193.299 261.968,192.384 261.600,192.106 261.600 C 191.828 261.600,191.600 261.435,191.600 261.233 C 191.600 261.031,190.989 260.487,190.241 260.025 C 189.494 259.564,188.279 258.362,187.541 257.356 C 186.804 256.350,185.885 255.233,185.500 254.874 C 185.115 254.516,184.800 254.017,184.800 253.767 C 184.800 253.517,184.350 252.649,183.800 251.838 C 183.250 251.028,182.800 250.055,182.800 249.676 C 182.800 249.298,182.448 248.332,182.019 247.530 C 179.933 243.639,179.933 225.561,182.019 221.670 C 182.448 220.868,182.800 219.815,182.800 219.330 C 182.800 218.844,182.959 218.349,183.154 218.229 C 183.348 218.109,183.889 217.198,184.356 216.205 C 184.822 215.212,185.371 214.400,185.575 214.400 C 185.779 214.400,186.072 213.995,186.226 213.500 C 186.513 212.573,191.479 207.600,192.117 207.600 C 192.313 207.600,192.925 207.245,193.477 206.811 C 194.030 206.376,195.121 205.901,195.903 205.754 C 196.686 205.607,197.792 205.233,198.363 204.922 C 199.706 204.191,210.105 204.345,210.868 205.108 " stroke="none" fill="#f0f0f0" fill-rule="evenodd"></path><path id="path3" d="M174.066 5.951 C 173.363 6.397,174.849 6.817,176.034 6.507 C 176.951 6.267,176.340 5.612,175.200 5.612 C 174.870 5.612,174.360 5.765,174.066 5.951 M207.663 5.952 C 207.271 6.201,207.406 6.346,208.163 6.491 C 208.868 6.626,209.200 6.515,209.200 6.145 C 209.200 5.532,208.471 5.441,207.663 5.952 M341.633 62.820 C 341.395 63.931,341.200 65.076,341.200 65.366 C 341.200 65.655,340.851 66.336,340.425 66.878 C 339.998 67.420,339.532 68.331,339.389 68.902 C 339.245 69.474,338.784 70.252,338.364 70.633 C 337.944 71.013,337.600 71.531,337.600 71.785 C 337.600 73.426,329.796 80.717,324.214 84.289 C 323.106 84.998,321.848 85.853,321.419 86.189 C 320.989 86.525,320.484 86.800,320.297 86.800 C 320.110 86.800,319.295 87.250,318.486 87.800 C 317.677 88.350,316.724 88.800,316.369 88.800 C 316.014 88.800,315.398 89.160,315.000 89.600 C 314.602 90.040,313.878 90.400,313.392 90.400 C 312.906 90.400,312.072 90.743,311.540 91.161 C 311.007 91.580,309.813 92.127,308.886 92.377 C 307.959 92.627,307.200 93.004,307.200 93.215 C 307.200 93.427,306.885 93.606,306.500 93.613 C 306.115 93.619,304.900 94.068,303.800 94.609 C 302.700 95.150,301.437 95.594,300.994 95.596 C 300.551 95.598,299.561 95.936,298.794 96.347 C 298.027 96.757,296.770 97.221,296.000 97.377 C 295.230 97.532,293.700 97.995,292.600 98.404 C 289.144 99.691,286.692 100.433,283.800 101.070 C 282.260 101.409,280.820 101.827,280.600 101.998 C 280.380 102.170,279.218 102.443,278.017 102.604 C 276.816 102.766,274.836 103.225,273.617 103.626 C 272.398 104.026,270.032 104.523,268.360 104.730 C 266.688 104.938,264.945 105.309,264.486 105.554 C 264.027 105.800,261.951 106.177,259.872 106.393 C 257.794 106.608,255.599 106.972,254.994 107.202 C 254.390 107.432,251.361 107.888,248.264 108.214 C 245.167 108.541,242.086 108.981,241.416 109.191 C 240.747 109.401,235.880 109.855,230.600 110.200 C 225.320 110.544,219.290 111.016,217.200 111.247 C 212.564 111.761,175.031 111.421,171.200 110.831 C 169.770 110.611,165.180 110.236,161.000 109.998 C 156.820 109.760,152.320 109.311,151.000 109.001 C 149.680 108.690,146.980 108.320,145.000 108.177 C 143.020 108.035,140.050 107.596,138.400 107.202 C 136.750 106.808,134.000 106.378,132.288 106.247 C 130.576 106.116,128.679 105.751,128.070 105.436 C 127.462 105.122,125.623 104.738,123.982 104.582 C 122.342 104.427,120.370 104.036,119.600 103.713 C 118.830 103.391,117.030 102.973,115.600 102.785 C 114.170 102.597,112.442 102.164,111.760 101.822 C 111.078 101.481,109.638 101.089,108.560 100.953 C 107.482 100.816,106.233 100.476,105.784 100.198 C 105.335 99.919,103.902 99.470,102.600 99.200 C 101.298 98.930,99.865 98.479,99.416 98.199 C 98.967 97.919,97.901 97.567,97.046 97.417 C 96.191 97.266,94.844 96.796,94.052 96.372 C 93.260 95.947,92.214 95.600,91.727 95.600 C 91.240 95.600,89.996 95.150,88.962 94.600 C 87.927 94.050,86.770 93.600,86.389 93.600 C 86.009 93.600,85.490 93.350,85.237 93.044 C 84.983 92.739,83.996 92.293,83.044 92.053 C 82.091 91.813,81.085 91.343,80.807 91.008 C 80.529 90.674,79.988 90.400,79.605 90.400 C 79.222 90.400,78.479 90.065,77.954 89.655 C 77.429 89.245,76.550 88.772,76.000 88.603 C 75.450 88.433,74.522 87.959,73.938 87.548 C 73.354 87.136,72.707 86.800,72.499 86.800 C 72.292 86.800,71.748 86.485,71.291 86.100 C 70.833 85.715,69.867 85.040,69.144 84.600 C 62.538 80.583,53.600 71.790,53.600 69.308 C 53.600 69.082,53.328 68.672,52.996 68.397 C 52.664 68.121,52.112 66.932,51.770 65.755 C 51.001 63.110,50.640 62.855,49.967 64.480 C 49.033 66.734,49.165 344.134,50.100 345.985 C 50.485 346.746,50.800 347.543,50.800 347.755 C 50.800 348.664,53.755 354.013,55.020 355.394 C 55.779 356.222,56.400 356.966,56.400 357.047 C 56.400 357.687,63.602 364.124,65.187 364.900 C 65.524 365.065,66.610 365.832,67.600 366.604 C 68.590 367.375,69.895 368.203,70.500 368.443 C 71.105 368.682,71.600 369.019,71.600 369.191 C 71.600 369.362,72.185 369.738,72.900 370.025 C 73.615 370.311,74.709 370.963,75.331 371.473 C 75.953 371.983,76.696 372.400,76.982 372.400 C 77.268 372.400,77.717 372.658,77.979 372.974 C 78.241 373.290,79.015 373.671,79.699 373.822 C 80.382 373.972,82.280 374.800,83.916 375.661 C 85.552 376.523,87.680 377.336,88.645 377.468 C 89.610 377.601,90.400 377.846,90.400 378.014 C 90.400 378.183,91.345 378.543,92.500 378.816 C 93.655 379.089,95.230 379.637,96.000 380.035 C 97.763 380.947,100.757 381.932,103.600 382.536 C 104.810 382.793,106.250 383.298,106.800 383.660 C 107.350 384.021,109.032 384.442,110.537 384.594 C 112.042 384.747,113.842 385.108,114.537 385.398 C 115.232 385.687,116.700 386.051,117.800 386.205 C 118.900 386.360,120.192 386.733,120.670 387.033 C 121.585 387.608,126.935 388.394,128.011 388.113 C 128.357 388.023,129.583 388.320,130.735 388.774 C 131.887 389.228,133.678 389.600,134.715 389.600 C 136.812 389.601,141.590 390.462,143.326 391.152 C 143.945 391.399,146.519 391.600,149.046 391.600 C 152.458 391.600,153.955 391.763,154.867 392.234 C 155.541 392.583,156.407 392.787,156.790 392.687 C 157.173 392.587,157.740 392.647,158.051 392.821 C 158.362 392.994,162.822 393.252,167.962 393.394 C 175.291 393.595,177.432 393.775,177.883 394.225 C 178.602 394.945,178.818 394.943,179.871 394.206 C 180.593 393.700,181.335 393.678,184.860 394.058 C 188.644 394.467,191.419 394.515,200.000 394.318 C 201.650 394.280,204.198 394.398,205.663 394.579 C 207.668 394.827,208.954 394.752,210.863 394.273 C 213.179 393.693,218.990 393.348,232.943 392.961 C 235.350 392.895,237.498 392.607,238.457 392.224 C 239.509 391.803,241.771 391.544,245.313 391.438 C 249.126 391.324,251.044 391.089,252.193 390.596 C 253.069 390.219,255.229 389.821,256.993 389.710 C 258.757 389.599,260.599 389.259,261.086 388.954 C 261.573 388.649,263.823 388.204,266.086 387.965 C 268.349 387.726,270.879 387.276,271.708 386.965 C 272.538 386.654,273.888 386.399,274.708 386.399 C 275.529 386.398,276.760 386.055,277.445 385.638 C 278.130 385.220,279.992 384.677,281.583 384.430 C 283.175 384.183,284.955 383.740,285.538 383.446 C 286.122 383.152,287.570 382.802,288.755 382.668 C 289.940 382.534,291.220 382.144,291.600 381.800 C 291.980 381.456,293.229 381.064,294.376 380.928 C 295.523 380.792,296.696 380.447,296.982 380.160 C 297.269 379.874,298.020 379.515,298.652 379.363 C 299.283 379.210,300.609 378.661,301.597 378.143 C 302.585 377.624,303.668 377.200,304.003 377.200 C 304.338 377.200,305.284 376.840,306.104 376.400 C 306.925 375.960,308.106 375.600,308.729 375.600 C 309.419 375.600,310.227 375.210,310.800 374.600 C 311.317 374.050,312.009 373.600,312.338 373.600 C 312.668 373.600,313.252 373.315,313.637 372.966 C 314.023 372.617,315.065 372.235,315.953 372.116 C 316.841 371.997,317.873 371.562,318.246 371.150 C 318.619 370.737,319.205 370.400,319.548 370.400 C 319.891 370.400,320.538 370.036,320.986 369.590 C 321.946 368.636,324.694 366.800,325.163 366.800 C 326.632 366.800,336.956 357.050,338.066 354.615 C 338.320 354.057,338.675 353.600,338.854 353.600 C 339.033 353.600,339.478 353.015,339.844 352.300 C 340.209 351.585,340.738 350.865,341.019 350.700 C 341.300 350.535,341.658 349.639,341.815 348.709 C 341.973 347.778,342.393 346.571,342.751 346.026 C 343.446 344.964,343.773 64.461,343.082 61.900 C 342.634 60.242,342.115 60.571,341.633 62.820 M52.543 69.552 C 52.904 69.852,53.203 70.301,53.207 70.549 C 53.238 72.442,64.152 83.600,65.973 83.600 C 66.208 83.600,66.717 83.915,67.103 84.300 C 67.490 84.685,68.705 85.544,69.803 86.208 C 70.902 86.872,72.160 87.640,72.600 87.913 C 73.040 88.186,74.145 88.753,75.056 89.172 C 75.967 89.591,76.832 90.129,76.980 90.367 C 77.127 90.605,77.659 90.800,78.162 90.800 C 78.665 90.800,79.385 91.141,79.763 91.559 C 80.140 91.976,81.223 92.512,82.169 92.750 C 83.114 92.989,84.115 93.457,84.393 93.792 C 84.671 94.126,85.192 94.400,85.552 94.400 C 85.912 94.400,87.052 94.850,88.085 95.400 C 89.118 95.950,90.445 96.400,91.034 96.400 C 91.624 96.400,92.667 96.741,93.353 97.158 C 94.039 97.574,95.355 98.039,96.277 98.189 C 97.199 98.339,98.153 98.703,98.397 98.997 C 98.641 99.290,99.772 99.659,100.910 99.815 C 102.049 99.972,103.368 100.354,103.842 100.664 C 104.316 100.975,105.822 101.409,107.188 101.629 C 108.555 101.849,110.065 102.286,110.544 102.600 C 111.024 102.914,112.492 103.289,113.808 103.433 C 115.124 103.577,116.595 103.941,117.079 104.242 C 117.562 104.544,119.272 104.903,120.879 105.041 C 122.485 105.179,124.340 105.554,125.000 105.875 C 125.660 106.195,127.883 106.632,129.941 106.847 C 131.998 107.062,134.490 107.512,135.479 107.847 C 136.467 108.183,139.194 108.608,141.538 108.793 C 143.882 108.977,146.700 109.388,147.800 109.707 C 148.915 110.029,152.647 110.403,156.236 110.552 C 159.776 110.699,163.279 110.993,164.022 111.206 C 169.139 112.674,226.743 112.902,230.400 111.469 C 231.744 110.943,233.873 110.706,238.800 110.535 C 243.711 110.365,245.649 110.150,246.374 109.695 C 247.014 109.294,249.023 108.976,252.225 108.768 C 255.118 108.580,257.731 108.189,258.648 107.806 C 259.498 107.451,261.635 107.058,263.397 106.933 C 265.158 106.808,267.002 106.455,267.493 106.148 C 267.984 105.842,269.784 105.480,271.493 105.344 C 273.359 105.196,275.079 104.813,275.800 104.386 C 276.460 103.994,278.260 103.547,279.800 103.391 C 281.377 103.232,283.145 102.780,283.847 102.355 C 284.533 101.940,285.706 101.600,286.453 101.600 C 287.200 101.600,288.455 101.255,289.240 100.834 C 290.026 100.413,291.503 99.944,292.522 99.791 C 293.541 99.638,294.570 99.277,294.810 98.988 C 295.050 98.699,296.001 98.339,296.923 98.189 C 297.845 98.039,299.161 97.574,299.847 97.158 C 300.533 96.741,301.720 96.400,302.485 96.400 C 303.363 96.400,304.140 96.108,304.593 95.608 C 304.987 95.172,305.960 94.698,306.755 94.555 C 307.550 94.411,308.522 93.958,308.916 93.547 C 309.309 93.136,310.157 92.800,310.800 92.800 C 311.443 92.800,312.291 92.465,312.684 92.056 C 313.078 91.647,313.940 91.183,314.600 91.024 C 315.260 90.865,316.122 90.390,316.516 89.968 C 316.909 89.545,317.646 89.200,318.154 89.200 C 318.661 89.200,319.402 88.840,319.800 88.400 C 320.198 87.960,320.752 87.600,321.031 87.600 C 321.310 87.600,322.073 87.150,322.727 86.600 C 323.381 86.050,324.087 85.600,324.296 85.600 C 324.505 85.600,325.002 85.240,325.400 84.800 C 325.798 84.360,326.338 84.000,326.600 84.000 C 326.862 84.000,327.402 83.640,327.800 83.200 C 328.198 82.760,328.706 82.400,328.929 82.400 C 329.356 82.400,330.069 81.761,333.859 77.984 C 336.936 74.916,338.005 73.639,338.430 72.521 C 338.623 72.015,338.928 71.600,339.110 71.600 C 339.291 71.600,339.667 70.970,339.946 70.200 C 340.279 69.278,340.708 68.800,341.202 68.800 C 341.780 68.800,341.980 68.456,342.076 67.300 C 342.144 66.475,342.194 127.990,342.186 204.000 C 342.176 311.738,342.066 342.393,341.686 343.074 C 341.419 343.554,341.200 344.824,341.200 345.896 C 341.200 347.346,340.944 348.191,340.200 349.200 C 339.650 349.945,339.200 350.712,339.200 350.904 C 339.200 351.096,338.750 351.843,338.200 352.564 C 337.650 353.286,337.200 354.064,337.200 354.295 C 337.200 354.526,336.927 354.819,336.594 354.947 C 336.261 355.075,335.815 355.634,335.604 356.190 C 335.393 356.745,335.035 357.200,334.810 357.200 C 334.584 357.200,334.400 357.474,334.400 357.810 C 334.400 358.145,333.993 358.574,333.496 358.763 C 332.999 358.952,331.829 359.848,330.896 360.754 C 329.963 361.659,329.093 362.400,328.963 362.400 C 328.834 362.400,327.779 363.210,326.621 364.200 C 325.462 365.190,324.332 366.000,324.111 366.000 C 323.889 366.000,323.279 366.336,322.754 366.746 C 322.229 367.156,320.736 368.058,319.436 368.750 C 318.136 369.442,316.876 370.160,316.636 370.346 C 316.396 370.532,315.582 370.892,314.826 371.147 C 314.070 371.402,313.170 371.848,312.826 372.139 C 312.482 372.430,311.570 372.913,310.800 373.211 C 310.030 373.510,309.300 373.899,309.178 374.075 C 309.056 374.251,308.104 374.554,307.064 374.749 C 306.023 374.943,304.863 375.371,304.486 375.700 C 304.109 376.029,303.115 376.422,302.278 376.572 C 301.440 376.722,300.405 377.195,299.978 377.622 C 299.476 378.124,298.652 378.400,297.654 378.400 C 296.735 378.400,295.712 378.712,295.131 379.168 C 294.594 379.591,292.995 380.147,291.579 380.404 C 290.162 380.661,288.900 381.038,288.774 381.243 C 288.647 381.447,287.386 381.813,285.972 382.056 C 284.557 382.299,283.116 382.746,282.769 383.049 C 282.385 383.383,281.206 383.601,279.769 383.601 C 278.052 383.603,277.015 383.839,276.000 384.460 C 275.048 385.042,273.703 385.376,271.800 385.502 C 270.260 385.604,268.559 385.966,268.019 386.306 C 267.478 386.647,265.463 387.070,263.526 387.248 C 261.594 387.427,259.515 387.820,258.907 388.122 C 258.298 388.425,255.104 388.893,251.808 389.163 C 248.513 389.433,245.560 389.867,245.247 390.127 C 244.773 390.520,238.178 391.043,231.400 391.224 C 230.740 391.242,229.317 391.537,228.239 391.881 C 225.390 392.788,175.582 393.176,167.200 392.357 C 165.110 392.153,162.950 391.969,162.400 391.949 C 161.850 391.929,160.590 391.748,159.600 391.546 C 158.610 391.345,155.460 391.024,152.600 390.833 C 149.740 390.642,146.680 390.290,145.800 390.051 C 144.920 389.811,142.136 389.418,139.614 389.177 C 137.092 388.936,134.447 388.496,133.736 388.199 C 133.025 387.902,130.948 387.532,129.121 387.377 C 127.295 387.223,125.328 386.857,124.752 386.564 C 124.175 386.272,122.465 385.914,120.952 385.769 C 119.438 385.624,117.390 385.156,116.400 384.730 C 115.410 384.303,113.430 383.850,112.000 383.723 C 110.570 383.597,109.129 383.259,108.798 382.973 C 108.467 382.688,107.207 382.329,105.998 382.177 C 104.789 382.025,103.239 381.563,102.553 381.150 C 101.867 380.738,100.676 380.400,99.907 380.400 C 99.110 380.400,98.067 380.053,97.482 379.593 C 96.918 379.149,95.627 378.631,94.614 378.442 C 93.600 378.253,92.448 377.806,92.054 377.449 C 91.660 377.092,90.939 376.800,90.453 376.800 C 89.966 376.800,88.900 376.466,88.084 376.057 C 87.268 375.648,86.074 375.187,85.432 375.032 C 84.789 374.877,83.820 374.402,83.278 373.975 C 82.736 373.549,81.891 373.200,81.400 373.200 C 80.909 373.200,80.050 372.840,79.491 372.400 C 78.931 371.960,78.201 371.600,77.868 371.600 C 77.534 371.600,76.727 371.150,76.073 370.600 C 75.419 370.050,74.623 369.600,74.304 369.600 C 73.985 369.600,73.402 369.245,73.009 368.810 C 72.616 368.376,71.941 367.908,71.510 367.771 C 71.078 367.634,69.916 366.955,68.928 366.261 C 67.251 365.084,66.165 364.361,64.200 363.112 C 62.932 362.306,56.061 355.401,55.065 353.932 C 53.709 351.931,51.600 347.443,51.600 346.557 C 51.600 346.129,51.332 345.395,51.004 344.927 C 50.514 344.228,49.951 80.930,50.410 67.200 L 50.457 65.800 51.171 67.403 C 51.564 68.285,52.181 69.252,52.543 69.552 M114.236 186.674 C 113.596 186.779,112.696 187.110,112.236 187.409 C 111.776 187.708,110.451 188.077,109.291 188.229 C 108.131 188.381,107.089 188.657,106.974 188.841 C 106.860 189.026,106.009 189.544,105.083 189.991 C 104.158 190.439,102.504 191.299,101.408 191.903 C 98.407 193.556,92.400 199.835,92.400 201.319 C 92.400 201.634,92.022 202.373,91.560 202.960 C 91.098 203.547,90.635 204.786,90.531 205.714 C 90.428 206.641,90.073 208.042,89.743 208.828 C 88.178 212.555,90.545 225.499,93.176 227.600 C 93.314 227.710,94.091 228.718,94.903 229.840 C 96.271 231.730,98.632 234.042,100.869 235.683 C 101.381 236.059,102.340 236.799,103.000 237.328 C 103.660 237.858,104.581 238.410,105.047 238.555 C 105.513 238.701,106.216 239.176,106.609 239.610 C 107.002 240.045,107.611 240.406,107.962 240.412 C 108.313 240.419,109.320 240.868,110.200 241.410 C 111.080 241.952,112.121 242.397,112.513 242.398 C 112.904 242.399,113.322 242.654,113.441 242.964 C 113.561 243.274,114.140 243.646,114.729 243.791 C 115.318 243.936,116.247 244.344,116.794 244.698 C 117.341 245.052,118.781 245.861,119.994 246.496 C 128.422 250.904,129.936 258.630,123.283 263.283 L 121.400 264.600 113.600 264.586 C 106.305 264.573,105.697 264.515,104.215 263.686 C 103.344 263.199,102.327 262.800,101.956 262.800 C 100.805 262.800,95.974 260.102,93.142 257.878 C 92.240 257.170,91.324 256.784,90.742 256.867 L 89.800 257.000 89.693 266.860 L 89.586 276.721 91.266 277.956 C 92.190 278.635,93.588 279.306,94.373 279.446 C 95.158 279.587,96.090 279.954,96.444 280.262 C 96.798 280.570,98.549 280.989,100.336 281.193 C 102.122 281.396,103.992 281.796,104.492 282.082 C 105.827 282.844,122.810 282.822,123.732 282.057 C 124.092 281.758,125.764 281.359,127.447 281.170 C 129.198 280.974,130.797 280.564,131.185 280.213 C 131.558 279.876,132.209 279.599,132.631 279.598 C 135.467 279.593,144.165 273.073,146.004 269.575 C 146.286 269.039,146.746 268.464,147.027 268.298 C 147.308 268.131,147.664 267.418,147.819 266.713 C 147.974 266.008,148.418 264.974,148.805 264.416 C 149.794 262.991,150.688 253.664,150.053 251.400 C 149.806 250.520,149.602 249.080,149.600 248.200 C 149.597 247.280,149.257 246.090,148.800 245.400 C 148.363 244.740,148.004 243.949,148.003 243.641 C 147.996 242.262,143.846 237.061,141.426 235.400 C 140.785 234.960,139.866 234.195,139.385 233.700 C 138.903 233.205,138.332 232.800,138.116 232.800 C 137.900 232.800,137.404 232.447,137.014 232.015 C 136.623 231.583,135.695 231.029,134.952 230.784 C 134.208 230.539,133.600 230.170,133.600 229.966 C 133.600 229.761,132.880 229.305,132.000 228.953 C 131.120 228.601,130.400 228.153,130.400 227.957 C 130.400 227.760,130.175 227.601,129.900 227.602 C 128.032 227.610,117.698 221.640,115.129 219.070 L 112.400 216.339 112.400 212.748 C 112.400 209.187,113.528 206.400,114.969 206.400 C 115.171 206.400,115.660 206.108,116.054 205.751 C 117.969 204.018,124.413 203.266,129.648 204.166 C 131.679 204.515,134.001 204.800,134.808 204.800 C 135.737 204.800,136.526 205.076,136.956 205.552 C 137.331 205.965,138.325 206.414,139.166 206.548 C 140.008 206.683,140.914 207.055,141.180 207.376 C 141.446 207.697,142.280 208.162,143.032 208.411 C 143.784 208.659,144.400 209.028,144.400 209.231 C 144.400 209.434,144.652 209.600,144.961 209.600 C 146.063 209.600,146.400 207.138,146.400 199.094 L 146.400 191.108 144.982 189.809 C 143.828 188.752,143.119 188.464,141.172 188.260 C 139.856 188.123,138.199 187.697,137.490 187.314 C 136.215 186.627,117.629 186.115,114.236 186.674 M193.000 187.409 C 191.900 187.950,190.449 188.394,189.776 188.396 C 189.104 188.398,188.204 188.667,187.776 188.994 C 187.349 189.320,186.280 189.787,185.400 190.031 C 184.520 190.275,183.530 190.706,183.200 190.990 C 182.870 191.273,182.150 191.641,181.600 191.807 C 181.050 191.974,180.130 192.490,179.556 192.955 C 178.981 193.420,178.108 194.070,177.615 194.400 C 175.505 195.813,172.954 197.899,171.747 199.200 C 169.762 201.339,166.976 204.917,166.685 205.700 C 166.542 206.085,166.259 206.400,166.056 206.400 C 165.853 206.400,165.390 207.075,165.027 207.900 C 164.664 208.725,164.080 209.940,163.729 210.600 C 162.127 213.616,161.600 214.805,161.600 215.401 C 161.600 215.755,161.225 216.868,160.766 217.876 C 160.307 218.883,159.832 220.718,159.711 221.954 C 159.590 223.189,159.323 224.414,159.117 224.675 C 157.985 226.113,157.764 242.465,158.849 244.492 C 159.093 244.948,159.460 246.670,159.665 248.321 C 159.903 250.235,160.320 251.681,160.819 252.315 C 161.248 252.861,161.600 253.892,161.600 254.605 C 161.600 255.318,161.861 256.118,162.180 256.383 C 162.498 256.648,162.970 257.504,163.229 258.286 C 163.717 259.767,165.138 262.141,166.190 263.234 C 166.526 263.582,166.800 264.042,166.800 264.255 C 166.800 265.963,172.937 271.990,178.082 275.336 C 179.338 276.152,180.473 276.995,180.606 277.210 C 180.739 277.424,181.213 277.600,181.661 277.600 C 182.108 277.600,182.925 277.955,183.477 278.389 C 184.030 278.824,185.138 279.301,185.941 279.450 C 186.743 279.599,187.791 279.975,188.270 280.286 C 188.748 280.598,190.261 281.011,191.633 281.205 C 193.004 281.398,194.268 281.786,194.441 282.066 C 194.633 282.377,196.120 282.681,198.265 282.848 C 200.195 282.998,201.834 283.302,201.908 283.523 C 201.981 283.744,202.527 284.453,203.121 285.099 C 203.714 285.744,205.100 287.298,206.200 288.553 C 207.300 289.807,209.325 292.016,210.700 293.463 C 212.075 294.909,213.200 296.176,213.200 296.277 C 213.200 296.379,214.370 297.637,215.800 299.074 C 217.230 300.511,218.401 301.892,218.403 302.144 C 218.416 304.418,245.955 305.720,247.347 303.511 C 247.721 302.919,242.260 296.800,241.358 296.800 C 241.268 296.800,239.947 295.585,238.423 294.100 C 236.898 292.615,234.424 290.290,232.925 288.934 C 231.426 287.578,228.787 285.103,227.060 283.434 C 225.333 281.765,223.668 280.400,223.360 280.400 C 222.680 280.400,222.665 280.203,223.260 279.074 C 223.838 277.976,224.375 277.614,225.438 277.606 C 225.899 277.603,226.587 277.256,226.967 276.836 C 227.348 276.416,228.091 275.964,228.619 275.831 C 230.317 275.405,231.969 274.084,237.550 268.691 C 239.328 266.973,240.862 264.912,242.067 262.620 C 242.434 261.923,243.019 261.116,243.367 260.827 C 243.715 260.538,244.000 259.876,244.000 259.354 C 244.000 258.833,244.360 258.182,244.800 257.907 C 245.254 257.624,245.601 256.973,245.601 256.404 C 245.602 255.852,245.949 254.833,246.371 254.141 C 246.793 253.448,247.268 252.020,247.426 250.968 C 247.583 249.916,248.077 248.437,248.523 247.682 C 249.784 245.545,249.784 222.059,248.524 219.965 C 248.072 219.214,247.580 217.795,247.432 216.810 C 247.283 215.826,246.885 214.715,246.547 214.341 C 246.209 213.968,245.833 212.921,245.711 212.016 C 245.573 210.982,245.214 210.221,244.745 209.971 C 244.335 209.751,244.000 209.263,243.999 208.886 C 243.999 208.509,243.281 207.210,242.404 206.000 C 241.527 204.790,240.641 203.420,240.436 202.955 C 239.764 201.437,231.687 193.600,230.794 193.600 C 230.531 193.600,229.781 193.150,229.127 192.600 C 228.473 192.050,227.612 191.600,227.212 191.600 C 226.813 191.600,226.386 191.339,226.263 191.021 C 226.141 190.702,225.267 190.234,224.321 189.980 C 223.374 189.725,222.488 189.337,222.350 189.116 C 222.213 188.896,221.271 188.561,220.258 188.371 C 219.245 188.182,217.612 187.661,216.630 187.214 C 213.652 185.857,195.855 186.004,193.000 187.409 M134.496 187.919 C 135.098 188.171,136.808 188.492,138.296 188.633 C 141.221 188.909,144.955 190.385,145.353 191.422 C 145.667 192.241,145.668 206.306,145.354 207.478 C 145.110 208.387,144.974 208.368,142.800 207.135 C 142.470 206.948,141.570 206.503,140.800 206.147 C 140.030 205.790,138.905 205.241,138.301 204.927 C 137.696 204.613,136.083 204.176,134.715 203.955 C 133.347 203.735,131.977 203.347,131.672 203.094 C 130.911 202.462,120.332 202.432,119.563 203.059 C 119.253 203.311,118.216 203.750,117.258 204.034 C 116.300 204.319,115.426 204.787,115.316 205.076 C 115.205 205.364,114.894 205.600,114.624 205.600 C 111.924 205.600,110.270 215.066,112.500 217.761 C 114.702 220.423,117.390 222.800,118.198 222.800 C 118.482 222.800,118.811 223.052,118.929 223.360 C 119.047 223.668,119.827 224.145,120.661 224.420 C 121.495 224.695,122.420 225.163,122.717 225.460 C 123.013 225.756,123.738 226.117,124.328 226.260 C 124.918 226.404,125.829 226.855,126.354 227.261 C 126.879 227.667,127.619 228.000,128.000 228.000 C 128.381 228.000,129.121 228.322,129.646 228.716 C 130.171 229.110,131.050 229.662,131.600 229.943 C 133.701 231.016,135.093 231.858,136.181 232.713 C 136.801 233.201,137.461 233.600,137.647 233.600 C 138.350 233.600,145.600 240.682,145.600 241.368 C 145.600 241.571,145.898 242.066,146.261 242.468 C 146.946 243.225,148.136 246.222,148.853 249.000 C 149.615 251.948,149.098 261.543,148.078 263.394 C 147.595 264.271,147.200 265.248,147.200 265.565 C 147.200 265.882,146.351 267.396,145.313 268.928 C 143.730 271.267,142.262 272.712,138.160 275.970 C 136.003 277.683,129.272 279.968,124.400 280.640 C 122.090 280.959,119.678 281.396,119.040 281.610 C 117.329 282.186,110.085 282.078,108.000 281.446 C 107.010 281.145,104.670 280.766,102.800 280.603 C 100.930 280.440,98.923 280.063,98.341 279.764 C 97.758 279.466,96.413 279.027,95.351 278.789 C 94.289 278.551,93.326 278.227,93.210 278.069 C 93.095 277.911,92.505 277.467,91.900 277.082 L 90.800 276.382 90.800 267.414 C 90.800 257.820,90.885 257.450,92.724 258.997 C 93.379 259.549,94.102 260.000,94.329 260.000 C 94.557 260.000,95.019 260.276,95.356 260.613 C 96.148 261.405,100.316 263.600,101.028 263.600 C 101.329 263.600,102.256 263.949,103.088 264.375 C 107.523 266.647,120.220 266.667,123.278 264.406 C 123.877 263.963,124.549 263.600,124.771 263.600 C 126.161 263.600,128.400 259.216,128.400 256.495 C 128.400 252.908,124.941 247.533,122.038 246.612 C 121.577 246.466,121.200 246.198,121.200 246.016 C 121.200 245.835,120.525 245.396,119.700 245.041 C 118.875 244.687,117.930 244.215,117.600 243.994 C 117.270 243.772,116.370 243.320,115.600 242.988 C 114.830 242.655,113.060 241.757,111.666 240.992 C 110.273 240.226,108.914 239.600,108.648 239.600 C 108.381 239.600,107.811 239.325,107.381 238.989 C 106.952 238.653,105.610 237.755,104.400 236.994 C 101.725 235.310,99.541 233.527,97.547 231.400 C 95.126 228.817,94.800 228.419,94.800 228.049 C 94.800 227.856,94.541 227.483,94.224 227.220 C 90.509 224.137,89.305 209.839,92.263 203.949 C 92.778 202.923,93.200 201.983,93.200 201.860 C 93.200 200.639,97.516 195.894,100.819 193.484 C 103.513 191.517,109.335 188.800,110.854 188.800 C 111.404 188.800,112.742 188.543,113.827 188.228 C 117.044 187.295,117.465 187.264,125.600 187.365 C 130.327 187.423,133.832 187.642,134.496 187.919 M212.600 187.606 C 213.480 187.809,215.190 188.181,216.400 188.432 C 217.610 188.682,219.410 189.218,220.400 189.623 C 221.390 190.028,222.650 190.479,223.200 190.627 C 223.750 190.774,224.470 191.125,224.800 191.407 C 225.130 191.690,226.030 192.218,226.800 192.582 C 228.872 193.560,230.481 194.517,231.555 195.408 C 236.286 199.333,240.346 203.938,241.680 206.894 C 242.055 207.722,242.550 208.400,242.780 208.400 C 243.011 208.400,243.200 208.678,243.200 209.018 C 243.200 209.358,243.650 210.482,244.200 211.515 C 244.750 212.548,245.200 213.637,245.200 213.935 C 245.200 214.233,245.464 214.954,245.787 215.538 C 248.311 220.105,249.565 238.104,247.811 244.600 C 247.514 245.700,247.145 247.410,246.991 248.400 C 246.837 249.390,246.371 250.955,245.956 251.878 C 245.540 252.801,245.189 253.881,245.175 254.278 C 245.161 254.675,244.447 256.260,243.588 257.800 C 242.730 259.340,241.797 261.050,241.516 261.600 C 241.235 262.150,240.865 262.780,240.694 263.000 C 240.522 263.220,239.711 264.284,238.891 265.365 C 235.891 269.319,231.275 273.279,227.400 275.222 C 226.520 275.663,225.530 276.195,225.200 276.403 C 224.870 276.610,223.925 277.046,223.100 277.370 C 221.039 278.179,220.984 279.835,222.968 281.348 C 223.720 281.922,225.673 283.698,227.308 285.296 C 228.943 286.893,230.913 288.740,231.685 289.400 C 234.631 291.919,238.561 295.500,241.154 298.028 C 242.636 299.474,244.153 300.773,244.524 300.916 C 244.896 301.058,245.200 301.442,245.200 301.768 C 245.200 302.094,245.515 302.544,245.900 302.768 C 246.386 303.051,242.730 303.179,233.919 303.188 L 221.239 303.200 218.319 300.232 C 216.714 298.599,214.731 296.484,213.914 295.532 C 206.885 287.341,202.158 282.360,201.237 282.169 C 200.666 282.052,199.210 281.709,198.000 281.408 C 196.790 281.106,194.644 280.735,193.232 280.583 C 191.820 280.430,190.110 279.968,189.432 279.554 C 188.754 279.141,187.771 278.802,187.247 278.801 C 186.723 278.801,185.733 278.461,185.047 278.046 C 184.361 277.631,183.376 277.163,182.859 277.006 C 182.341 276.848,181.261 276.285,180.459 275.753 C 179.656 275.221,178.661 274.564,178.246 274.293 C 174.275 271.698,167.600 265.109,167.600 263.784 C 167.600 263.637,167.150 262.981,166.600 262.327 C 166.050 261.673,165.600 260.904,165.600 260.618 C 165.600 260.332,165.360 259.898,165.066 259.655 C 164.772 259.411,164.293 258.486,164.000 257.600 C 163.707 256.714,163.228 255.789,162.934 255.545 C 162.640 255.302,162.400 254.665,162.400 254.132 C 162.400 253.598,162.030 252.405,161.578 251.481 C 161.126 250.556,160.594 248.540,160.397 247.000 C 160.200 245.460,159.740 242.310,159.374 240.000 C 158.387 233.769,160.273 220.607,163.012 214.600 C 163.313 213.940,163.838 212.770,164.180 212.000 C 164.521 211.230,165.271 209.790,165.848 208.800 C 166.424 207.810,167.104 206.622,167.359 206.160 C 167.614 205.698,168.088 205.029,168.411 204.673 C 168.735 204.316,169.720 203.172,170.600 202.129 C 173.890 198.230,181.191 192.400,182.783 192.400 C 183.054 192.400,183.754 192.062,184.338 191.650 C 184.922 191.237,186.030 190.767,186.800 190.605 C 187.570 190.443,188.470 190.074,188.800 189.784 C 189.130 189.495,190.660 189.053,192.200 188.803 C 193.740 188.552,195.360 188.186,195.800 187.988 C 197.509 187.220,209.733 186.941,212.600 187.606 M264.800 188.102 L 263.800 188.624 263.697 234.412 C 263.601 277.104,263.640 280.234,264.273 280.700 C 265.241 281.412,319.209 281.431,319.920 280.720 C 320.781 279.859,320.580 264.025,319.700 263.357 C 319.145 262.936,315.620 262.823,302.700 262.813 L 286.400 262.800 286.400 225.780 L 286.400 188.759 285.100 188.238 C 283.228 187.488,266.195 187.374,264.800 188.102 M284.800 225.988 L 285.000 262.976 286.000 263.482 C 286.754 263.864,290.805 263.990,302.486 263.994 C 317.384 264.000,317.988 264.029,318.386 264.774 C 319.005 265.930,318.931 278.869,318.300 279.728 C 317.837 280.358,315.877 280.400,291.618 280.304 L 265.436 280.200 265.158 279.200 C 264.797 277.901,264.714 189.420,265.074 189.060 C 265.224 188.909,269.679 188.834,274.974 188.893 L 284.600 189.000 284.800 225.988 M198.363 204.922 C 197.792 205.233,196.686 205.607,195.903 205.754 C 195.121 205.901,194.030 206.376,193.477 206.811 C 192.925 207.245,192.313 207.600,192.117 207.600 C 191.479 207.600,186.513 212.573,186.226 213.500 C 186.072 213.995,185.779 214.400,185.575 214.400 C 185.371 214.400,184.822 215.212,184.356 216.205 C 183.889 217.198,183.348 218.109,183.154 218.229 C 182.959 218.349,182.800 218.844,182.800 219.330 C 182.800 219.815,182.448 220.868,182.019 221.670 C 179.933 225.561,179.933 243.639,182.019 247.530 C 182.448 248.332,182.800 249.298,182.800 249.676 C 182.800 250.055,183.250 251.028,183.800 251.838 C 184.350 252.649,184.800 253.517,184.800 253.767 C 184.800 254.017,185.115 254.516,185.500 254.874 C 185.885 255.233,186.804 256.350,187.541 257.356 C 188.279 258.362,189.494 259.564,190.241 260.025 C 190.989 260.487,191.600 261.031,191.600 261.233 C 191.600 261.435,191.828 261.600,192.106 261.600 C 192.384 261.600,193.299 261.968,194.138 262.418 C 194.978 262.868,196.505 263.418,197.532 263.641 C 203.343 264.899,203.635 264.918,207.034 264.250 C 208.854 263.893,210.638 263.600,210.997 263.600 C 213.661 263.600,220.952 258.028,222.635 254.706 C 222.999 253.988,223.521 253.130,223.795 252.800 C 224.068 252.470,224.421 251.662,224.578 251.004 C 224.735 250.346,225.029 249.706,225.231 249.581 C 226.976 248.503,228.311 231.628,227.050 226.600 C 226.718 225.280,226.333 223.480,226.194 222.600 C 225.964 221.154,225.030 218.741,223.872 216.600 C 223.634 216.160,223.149 215.244,222.795 214.564 C 222.032 213.099,221.471 212.396,219.600 210.567 C 218.830 209.814,217.834 208.838,217.386 208.399 C 216.938 207.959,216.451 207.600,216.304 207.600 C 216.156 207.600,215.372 207.150,214.562 206.600 C 213.751 206.050,212.699 205.600,212.224 205.600 C 211.749 205.600,211.139 205.379,210.868 205.108 C 210.105 204.345,199.706 204.191,198.363 204.922 M207.411 205.748 C 207.845 206.049,209.330 206.376,210.711 206.474 C 212.717 206.617,213.344 206.828,213.833 207.526 C 214.170 208.007,214.803 208.400,215.240 208.400 C 216.065 208.400,220.400 212.339,220.400 213.088 C 220.400 213.323,220.670 213.618,221.000 213.745 C 221.330 213.871,221.600 214.331,221.600 214.767 C 221.600 215.202,222.036 216.029,222.569 216.604 C 223.102 217.180,223.658 218.362,223.806 219.233 C 223.953 220.104,224.353 221.095,224.694 221.437 C 226.543 223.286,226.556 245.828,224.710 247.885 C 224.357 248.278,223.942 249.320,223.789 250.200 C 223.636 251.080,223.290 251.980,223.021 252.200 C 222.751 252.420,222.293 253.050,222.002 253.600 C 221.711 254.150,221.142 254.835,220.737 255.123 C 220.331 255.410,220.000 255.875,220.000 256.155 C 220.000 256.636,218.970 257.604,216.200 259.726 C 211.972 262.966,200.428 264.373,196.200 262.164 C 195.320 261.704,194.121 261.210,193.536 261.065 C 191.503 260.564,185.780 254.291,185.025 251.737 C 184.884 251.262,184.506 250.773,184.185 250.650 C 183.863 250.526,183.596 250.014,183.592 249.513 C 183.587 249.011,183.138 247.340,182.593 245.800 C 181.089 241.545,181.093 228.054,182.600 223.439 C 183.150 221.754,183.600 220.040,183.600 219.630 C 183.600 219.221,183.853 218.788,184.162 218.670 C 184.472 218.551,184.839 217.932,184.980 217.293 C 185.421 215.284,190.820 209.364,193.265 208.209 C 193.999 207.862,195.050 207.316,195.600 206.995 C 196.150 206.674,197.230 206.399,198.000 206.383 C 198.770 206.368,200.030 206.116,200.800 205.825 C 202.697 205.107,206.426 205.064,207.411 205.748 " stroke="none" fill="#85b2d7" fill-rule="evenodd"></path></g></svg>