<svg id="svg" version="1.1" xmlns="http://www.w3.org/2000/svg" xmlns:xlink="http://www.w3.org/1999/xlink" width="400" height="400" viewBox="0, 0, 400,400"><g id="svgg"><path id="path0" d="M0.000 200.000 L 0.000 400.000 200.000 400.000 L 400.000 400.000 400.000 200.000 L 400.000 0.000 200.000 0.000 L 0.000 0.000 0.000 200.000 M320.200 23.774 C 328.140 24.024,330.505 24.477,337.000 26.988 C 339.640 28.009,342.880 29.224,344.200 29.687 C 346.852 30.618,347.520 31.024,352.627 34.800 C 357.722 38.569,360.964 41.740,363.666 45.600 C 364.975 47.470,366.696 49.873,367.490 50.940 C 369.572 53.739,374.746 67.474,375.595 72.458 C 375.902 74.258,375.989 111.710,375.893 200.800 L 375.757 326.600 374.716 331.800 C 370.756 351.579,351.431 371.590,333.000 374.995 C 331.240 375.320,328.810 375.814,327.600 376.093 C 325.849 376.497,299.559 376.600,198.800 376.600 L 72.200 376.600 68.739 375.513 C 60.198 372.831,52.823 369.582,49.517 367.046 C 47.764 365.701,45.501 364.020,44.489 363.311 C 42.119 361.652,38.669 358.243,37.294 356.200 C 36.701 355.320,35.206 353.250,33.971 351.600 C 30.955 347.568,31.018 347.709,26.450 334.945 C 23.828 327.616,23.950 334.722,24.105 199.000 L 24.246 75.400 25.477 69.000 C 26.901 61.605,27.142 60.987,31.828 52.755 C 35.626 46.084,44.068 36.584,48.400 34.106 C 49.390 33.540,51.925 32.027,54.033 30.743 C 59.256 27.565,62.611 26.107,65.860 25.605 C 67.367 25.372,69.860 24.913,71.400 24.585 C 72.940 24.258,76.000 23.857,78.200 23.695 C 82.683 23.364,309.561 23.439,320.200 23.774 M117.694 93.190 C 116.138 93.858,115.898 95.280,116.310 101.400 C 116.517 104.480,116.557 108.350,116.397 110.000 C 116.238 111.650,116.184 120.740,116.276 130.200 C 116.368 139.660,116.388 149.380,116.321 151.800 C 116.255 154.220,116.229 158.495,116.265 161.300 C 116.340 167.150,116.350 176.189,116.290 183.300 C 116.267 185.995,116.265 190.900,116.286 194.200 C 116.307 197.500,116.311 202.720,116.296 205.800 C 116.281 208.880,116.283 213.740,116.300 216.600 C 116.317 219.460,116.322 224.410,116.311 227.600 C 116.300 230.790,116.294 235.830,116.299 238.800 C 116.303 241.770,116.311 246.630,116.315 249.600 C 116.319 252.570,116.328 257.610,116.334 260.800 C 116.339 263.990,116.339 268.850,116.332 271.600 C 116.325 274.350,116.320 279.480,116.320 283.000 C 116.320 286.520,116.294 291.920,116.263 295.000 C 116.187 302.565,116.604 305.855,117.733 306.586 C 118.973 307.389,128.323 308.062,132.243 307.631 C 133.979 307.440,143.770 307.376,154.000 307.488 C 164.230 307.601,173.320 307.676,174.200 307.655 C 175.080 307.634,186.240 307.563,199.000 307.496 C 215.914 307.407,222.729 307.239,224.152 306.874 C 225.225 306.599,229.005 306.211,232.552 306.013 C 237.323 305.746,239.988 305.386,242.800 304.629 C 244.890 304.067,248.543 303.077,250.917 302.431 C 253.292 301.785,256.982 300.498,259.117 299.573 C 261.253 298.647,264.582 297.205,266.516 296.369 C 278.977 290.979,289.253 277.640,292.200 263.027 C 292.735 260.372,293.446 256.940,293.780 255.400 C 294.552 251.834,294.565 245.852,293.811 240.882 C 293.488 238.747,292.955 234.969,292.627 232.487 C 290.661 217.594,280.217 204.177,264.768 196.702 C 257.005 192.945,257.103 191.533,265.446 186.965 C 274.102 182.226,280.810 173.560,282.797 164.548 C 283.227 162.597,283.951 159.740,284.407 158.200 C 285.598 154.168,285.887 147.415,285.059 142.926 C 284.702 140.987,284.032 137.072,283.570 134.227 C 280.706 116.571,264.743 101.475,245.200 97.943 C 243.990 97.724,239.863 96.827,236.028 95.949 C 230.017 94.572,228.059 94.305,221.828 94.007 C 217.853 93.817,212.330 93.435,209.556 93.157 C 205.612 92.762,203.372 92.754,199.279 93.118 C 195.442 93.459,193.159 93.468,190.723 93.150 C 188.564 92.868,184.737 92.823,179.800 93.021 C 175.620 93.189,171.120 93.258,169.800 93.175 C 167.695 93.041,134.965 93.155,128.000 93.321 C 126.570 93.355,123.870 93.252,122.000 93.092 C 119.986 92.920,118.231 92.960,117.694 93.190 M197.000 128.359 C 212.473 127.942,221.851 131.256,227.222 139.037 C 234.780 149.988,231.289 167.894,220.603 172.988 C 212.888 176.667,208.641 177.142,185.265 176.945 C 172.787 176.840,172.248 176.759,171.211 174.820 C 169.986 172.532,169.708 134.271,170.896 131.531 C 172.184 128.560,175.141 127.914,185.800 128.273 C 189.320 128.392,194.360 128.430,197.000 128.359 M217.903 214.167 C 234.788 217.780,240.835 226.923,239.926 247.467 C 239.301 261.594,226.212 271.624,208.200 271.778 C 204.240 271.812,199.156 271.993,196.903 272.180 C 194.070 272.416,191.317 272.359,187.981 271.998 C 184.007 271.568,182.353 271.568,178.609 271.999 C 173.742 272.560,172.401 272.348,171.000 270.800 C 170.107 269.813,169.788 226.983,170.619 219.668 C 171.450 212.352,169.808 212.857,192.857 212.825 L 211.514 212.800 217.903 214.167 " stroke="none" fill="#ecebec" fill-rule="evenodd"></path><path id="path1" d="M77.200 28.233 C 75.770 28.498,73.779 28.733,72.775 28.757 C 70.687 28.806,65.179 30.160,63.400 31.061 C 62.740 31.395,60.912 32.171,59.337 32.785 C 43.584 38.928,30.091 57.279,28.386 74.880 C 27.607 82.916,26.850 315.275,27.573 324.200 C 29.498 347.957,47.273 367.413,72.000 372.828 C 77.264 373.980,314.744 373.912,324.000 372.755 C 337.213 371.104,346.908 366.334,356.400 356.815 C 362.219 350.980,361.805 351.615,367.196 340.262 C 371.190 331.853,372.541 324.588,371.560 316.800 C 371.148 313.524,370.999 308.898,370.713 290.400 C 370.576 281.562,370.189 276.006,369.610 274.600 C 368.969 273.042,368.447 271.384,368.193 270.100 C 368.052 269.385,367.793 268.800,367.618 268.800 C 367.443 268.800,367.189 268.243,367.053 267.563 C 366.898 266.789,366.505 266.248,366.003 266.117 C 365.482 265.981,365.200 265.571,365.200 264.953 C 365.200 264.267,364.976 264.000,364.400 264.000 C 363.867 264.000,363.600 263.733,363.600 263.200 C 363.600 262.519,363.333 262.400,361.800 262.400 C 360.147 262.400,360.000 262.319,360.000 261.400 C 360.000 260.524,359.827 260.400,358.600 260.400 C 357.276 260.400,357.200 260.326,357.200 259.049 C 357.200 257.931,356.997 257.613,356.029 257.212 C 355.385 256.945,354.760 256.473,354.641 256.163 C 354.522 255.854,354.074 255.600,353.646 255.600 C 353.217 255.600,352.803 255.408,352.725 255.174 C 352.647 254.940,351.822 254.646,350.891 254.522 C 349.837 254.380,349.200 254.088,349.200 253.747 C 349.200 253.446,348.840 253.200,348.400 253.200 C 347.867 253.200,347.600 252.933,347.600 252.400 C 347.600 251.813,347.333 251.600,346.600 251.600 C 345.867 251.600,345.600 251.387,345.600 250.800 C 345.600 250.178,345.333 250.000,344.400 250.000 C 343.597 250.000,343.200 249.800,343.200 249.396 C 343.200 249.064,342.840 248.484,342.400 248.107 C 341.960 247.730,341.600 247.192,341.600 246.911 C 341.600 246.630,341.330 246.400,341.000 246.400 C 340.658 246.400,340.400 246.040,340.400 245.563 C 340.400 245.078,340.082 244.642,339.644 244.528 C 339.009 244.361,338.844 243.793,338.608 240.965 C 338.363 238.017,338.233 237.600,337.564 237.600 C 337.016 237.600,336.800 237.318,336.800 236.600 C 336.800 235.867,336.587 235.600,336.000 235.600 C 335.467 235.600,335.200 235.333,335.200 234.800 C 335.200 234.119,334.933 234.000,333.400 234.000 C 331.747 234.000,331.600 233.919,331.600 233.000 C 331.600 232.081,331.453 232.000,329.800 232.000 C 328.049 232.000,328.000 231.966,328.000 230.744 C 328.000 229.284,327.086 228.431,325.500 228.413 C 324.752 228.404,324.400 228.190,324.400 227.744 C 324.400 226.843,323.223 226.028,321.900 226.013 C 321.165 226.004,320.800 225.788,320.800 225.363 C 320.800 225.012,320.440 224.631,320.000 224.516 C 319.560 224.401,319.200 224.058,319.200 223.753 C 319.200 223.449,318.852 223.200,318.427 223.200 C 318.002 223.200,317.545 222.857,317.412 222.437 C 317.279 222.017,316.906 221.573,316.585 221.450 C 316.263 221.326,315.999 220.904,315.999 220.513 C 315.998 220.121,315.638 219.211,315.199 218.490 C 314.759 217.770,314.400 216.737,314.400 216.195 C 314.400 214.313,310.247 211.329,307.400 211.166 C 306.722 211.127,306.753 211.066,307.600 210.766 C 308.367 210.495,308.205 210.459,306.900 210.611 C 305.232 210.806,305.200 210.787,305.200 209.605 C 305.200 208.942,305.011 208.400,304.781 208.400 C 304.550 208.400,303.908 207.905,303.354 207.300 C 302.677 206.562,302.278 206.364,302.139 206.700 C 301.653 207.879,300.800 207.178,300.800 205.600 C 300.800 204.720,300.620 204.000,300.400 204.000 C 300.180 204.000,300.000 203.753,300.000 203.450 C 300.000 203.148,299.505 202.801,298.900 202.680 C 298.295 202.559,297.084 201.974,296.208 201.380 C 294.729 200.376,294.466 200.327,292.486 200.686 L 290.356 201.072 290.630 197.936 L 290.903 194.800 289.852 194.800 C 288.997 194.800,288.800 194.613,288.800 193.800 C 288.800 193.023,288.595 192.800,287.880 192.800 C 287.195 192.800,286.834 192.448,286.461 191.418 C 286.118 190.469,285.151 189.441,283.380 188.140 C 280.596 186.096,280.510 185.878,281.162 182.511 C 281.725 179.602,280.608 179.951,277.839 183.549 C 276.380 185.445,275.210 186.374,271.718 188.409 C 265.681 191.925,265.600 191.978,265.600 192.366 C 265.600 192.772,265.819 192.868,270.661 194.575 C 273.566 195.600,274.804 196.298,276.661 197.958 C 277.947 199.108,279.740 200.619,280.644 201.317 C 281.549 202.014,282.658 203.218,283.110 203.992 C 283.561 204.767,284.783 206.390,285.825 207.600 C 288.431 210.625,291.940 216.129,293.038 218.913 C 293.540 220.185,294.304 221.805,294.736 222.513 C 295.186 223.250,295.968 226.194,296.565 229.400 C 297.139 232.480,297.963 236.800,298.396 239.000 C 299.227 243.218,299.039 252.766,298.078 255.224 C 297.858 255.787,297.473 257.926,297.224 259.978 C 296.975 262.029,296.605 264.016,296.403 264.394 C 296.201 264.771,295.655 266.502,295.190 268.240 C 292.507 278.258,284.229 289.575,274.980 295.870 C 268.992 299.946,253.714 306.321,247.291 307.423 C 246.471 307.564,244.806 307.925,243.592 308.227 C 241.569 308.728,236.390 309.421,227.000 310.447 C 220.234 311.186,116.975 310.871,115.372 310.106 C 112.696 308.830,112.895 314.450,112.633 233.000 C 112.503 192.300,112.298 144.150,112.179 126.000 C 111.974 94.785,112.002 92.925,112.681 91.614 C 114.167 88.748,113.019 88.872,140.400 88.621 C 153.930 88.497,169.680 88.221,175.400 88.007 C 181.120 87.793,186.580 87.614,187.533 87.609 C 190.771 87.592,189.239 86.623,185.521 86.337 C 180.050 85.916,176.044 84.405,178.795 83.801 C 180.627 83.399,180.597 82.890,178.712 82.340 C 177.770 82.065,176.856 81.606,176.680 81.320 C 176.504 81.034,176.099 80.800,175.780 80.800 C 175.461 80.800,175.200 80.440,175.200 80.000 C 175.200 79.282,174.933 79.200,172.600 79.200 L 170.000 79.200 170.000 80.776 C 170.000 81.643,169.820 82.464,169.600 82.600 C 169.380 82.736,169.200 83.189,169.200 83.606 C 169.200 84.325,169.113 84.334,167.506 83.767 C 166.188 83.302,164.854 83.230,161.506 83.441 L 157.200 83.714 157.200 77.057 L 157.200 70.400 150.600 70.400 L 144.000 70.400 144.000 64.000 L 144.000 57.600 147.200 57.600 L 150.400 57.600 150.400 56.000 C 150.400 54.560,150.300 54.400,149.400 54.400 C 148.600 54.400,148.400 54.200,148.400 53.400 C 148.400 52.667,148.187 52.400,147.600 52.400 C 147.067 52.400,146.800 52.133,146.800 51.600 C 146.800 50.882,146.533 50.800,144.200 50.800 L 141.600 50.800 141.600 53.000 L 141.600 55.200 135.200 55.200 L 128.800 55.200 128.800 49.400 L 128.800 43.600 132.400 43.600 L 136.000 43.600 136.000 41.800 C 136.000 40.267,135.881 40.000,135.200 40.000 C 134.667 40.000,134.400 39.733,134.400 39.200 C 134.400 38.613,134.133 38.400,133.400 38.400 C 132.600 38.400,132.400 38.200,132.400 37.400 C 132.400 36.436,132.307 36.400,129.800 36.400 L 127.200 36.400 127.200 39.200 L 127.200 42.000 121.643 42.000 C 115.250 42.000,115.600 42.232,115.600 37.991 C 115.600 36.482,115.420 35.136,115.200 35.000 C 114.413 34.514,114.729 31.677,115.600 31.400 C 116.040 31.260,116.400 30.996,116.400 30.812 C 116.400 29.888,118.956 29.602,121.310 30.263 C 123.393 30.847,124.168 30.869,127.544 30.441 C 132.542 29.807,133.200 29.663,133.200 29.200 C 133.200 28.267,123.991 27.848,120.921 28.642 C 119.127 29.105,118.605 29.095,117.121 28.569 C 114.830 27.756,81.308 27.475,77.200 28.233 M174.807 133.187 C 174.117 134.477,174.262 171.787,174.959 172.366 C 176.210 173.404,210.470 172.530,213.920 171.372 C 221.927 168.685,226.337 162.393,227.078 152.600 C 227.732 143.965,219.915 134.887,211.023 133.957 C 209.250 133.771,206.810 133.437,205.600 133.215 C 200.909 132.354,175.265 132.331,174.807 133.187 M203.127 140.112 C 203.987 141.148,203.579 143.200,202.513 143.200 C 200.151 143.200,199.300 141.712,200.900 140.377 C 201.968 139.487,202.550 139.417,203.127 140.112 M290.267 157.467 C 289.855 157.878,289.951 159.600,290.386 159.600 C 290.807 159.600,291.600 158.310,291.600 157.626 C 291.600 157.156,290.687 157.046,290.267 157.467 M283.924 175.500 C 281.940 177.627,281.405 179.441,282.900 178.971 C 284.029 178.617,285.524 177.043,285.620 176.108 C 285.827 174.079,285.394 173.924,283.924 175.500 M276.958 189.600 C 278.656 189.600,279.810 193.724,278.455 194.950 C 275.933 197.233,274.136 196.088,274.488 192.422 C 274.672 190.513,275.991 188.174,276.323 189.169 C 276.402 189.406,276.688 189.600,276.958 189.600 M175.477 216.708 C 174.090 217.014,174.000 218.629,174.000 243.177 C 174.000 265.125,174.063 267.555,174.649 268.041 C 176.033 269.189,210.940 268.601,216.000 267.343 C 224.318 265.277,230.410 261.512,232.895 256.904 C 236.303 250.582,237.333 241.659,235.400 235.200 C 234.850 233.362,234.400 231.559,234.400 231.193 C 234.400 226.117,226.308 219.962,216.829 217.829 C 212.865 216.937,178.637 216.009,175.477 216.708 " stroke="none" fill="#2d143f" fill-rule="evenodd"></path><path id="path2" d="M74.000 27.160 C 55.324 30.083,41.278 40.272,32.866 57.000 C 27.707 67.257,26.800 73.511,26.833 98.600 C 26.845 107.620,26.837 161.714,26.815 218.808 C 26.772 332.203,26.677 327.521,29.175 334.876 C 36.295 355.850,49.894 368.105,72.000 373.472 C 75.549 374.333,316.777 374.431,324.266 373.574 C 347.030 370.968,365.042 355.440,371.327 333.000 C 373.074 326.760,373.039 330.585,372.592 197.000 C 372.162 68.522,372.230 72.203,370.188 66.400 C 363.518 47.445,352.783 36.345,335.000 30.016 C 331.569 28.795,329.925 28.473,322.600 27.588 C 313.890 26.536,80.553 26.134,74.000 27.160 M117.121 28.569 C 118.605 29.095,119.127 29.105,120.921 28.642 C 123.991 27.848,133.200 28.267,133.200 29.200 C 133.200 29.663,132.542 29.807,127.544 30.441 C 124.168 30.869,123.393 30.847,121.310 30.263 C 118.956 29.602,116.400 29.888,116.400 30.812 C 116.400 30.996,116.040 31.260,115.600 31.400 C 114.729 31.677,114.413 34.514,115.200 35.000 C 115.420 35.136,115.600 36.482,115.600 37.991 C 115.600 42.232,115.250 42.000,121.643 42.000 L 127.200 42.000 127.200 39.200 L 127.200 36.400 129.800 36.400 C 132.307 36.400,132.400 36.436,132.400 37.400 C 132.400 38.200,132.600 38.400,133.400 38.400 C 134.133 38.400,134.400 38.613,134.400 39.200 C 134.400 39.733,134.667 40.000,135.200 40.000 C 135.881 40.000,136.000 40.267,136.000 41.800 L 136.000 43.600 132.400 43.600 L 128.800 43.600 128.800 49.400 L 128.800 55.200 135.200 55.200 L 141.600 55.200 141.600 53.000 L 141.600 50.800 144.200 50.800 C 146.533 50.800,146.800 50.882,146.800 51.600 C 146.800 52.133,147.067 52.400,147.600 52.400 C 148.187 52.400,148.400 52.667,148.400 53.400 C 148.400 54.200,148.600 54.400,149.400 54.400 C 150.300 54.400,150.400 54.560,150.400 56.000 L 150.400 57.600 147.200 57.600 L 144.000 57.600 144.000 64.000 L 144.000 70.400 150.600 70.400 L 157.200 70.400 157.200 77.057 L 157.200 83.714 161.506 83.441 C 164.854 83.230,166.188 83.302,167.506 83.767 C 169.113 84.334,169.200 84.325,169.200 83.606 C 169.200 83.189,169.380 82.736,169.600 82.600 C 169.820 82.464,170.000 81.643,170.000 80.776 L 170.000 79.200 172.600 79.200 C 174.933 79.200,175.200 79.282,175.200 80.000 C 175.200 80.440,175.461 80.800,175.780 80.800 C 176.099 80.800,176.504 81.034,176.680 81.320 C 176.856 81.606,177.770 82.065,178.712 82.340 C 180.597 82.890,180.627 83.399,178.795 83.801 C 176.044 84.405,180.050 85.916,185.521 86.337 C 189.239 86.623,190.771 87.592,187.533 87.609 C 186.580 87.614,181.120 87.793,175.400 88.007 C 169.680 88.221,153.930 88.497,140.400 88.621 C 113.019 88.872,114.167 88.748,112.681 91.614 C 112.002 92.925,111.974 94.785,112.179 126.000 C 112.298 144.150,112.503 192.300,112.633 233.000 C 112.895 314.450,112.696 308.830,115.372 310.106 C 116.975 310.871,220.234 311.186,227.000 310.447 C 236.390 309.421,241.569 308.728,243.592 308.227 C 244.806 307.925,246.471 307.564,247.291 307.423 C 253.714 306.321,268.992 299.946,274.980 295.870 C 284.229 289.575,292.507 278.258,295.190 268.240 C 295.655 266.502,296.201 264.771,296.403 264.394 C 296.605 264.016,296.975 262.029,297.224 259.978 C 297.473 257.926,297.858 255.787,298.078 255.224 C 299.039 252.766,299.227 243.218,298.396 239.000 C 297.963 236.800,297.139 232.480,296.565 229.400 C 295.968 226.194,295.186 223.250,294.736 222.513 C 294.304 221.805,293.540 220.185,293.038 218.913 C 291.940 216.129,288.431 210.625,285.825 207.600 C 284.783 206.390,283.561 204.767,283.110 203.992 C 282.658 203.218,281.549 202.014,280.644 201.317 C 279.740 200.619,277.947 199.108,276.661 197.958 C 274.804 196.298,273.566 195.600,270.661 194.575 C 265.819 192.868,265.600 192.772,265.600 192.366 C 265.600 191.978,265.681 191.925,271.718 188.409 C 275.210 186.374,276.380 185.445,277.839 183.549 C 280.608 179.951,281.725 179.602,281.162 182.511 C 280.510 185.878,280.596 186.096,283.380 188.140 C 285.151 189.441,286.118 190.469,286.461 191.418 C 286.834 192.448,287.195 192.800,287.880 192.800 C 288.595 192.800,288.800 193.023,288.800 193.800 C 288.800 194.613,288.997 194.800,289.852 194.800 L 290.903 194.800 290.630 197.936 L 290.356 201.072 292.486 200.686 C 294.466 200.327,294.729 200.376,296.208 201.380 C 297.084 201.974,298.295 202.559,298.900 202.680 C 299.505 202.801,300.000 203.148,300.000 203.450 C 300.000 203.753,300.180 204.000,300.400 204.000 C 300.620 204.000,300.800 204.720,300.800 205.600 C 300.800 207.178,301.653 207.879,302.139 206.700 C 302.278 206.364,302.677 206.562,303.354 207.300 C 303.908 207.905,304.550 208.400,304.781 208.400 C 305.011 208.400,305.200 208.942,305.200 209.605 C 305.200 210.787,305.232 210.806,306.900 210.611 C 308.205 210.459,308.367 210.495,307.600 210.766 C 306.753 211.066,306.722 211.127,307.400 211.166 C 310.247 211.329,314.400 214.313,314.400 216.195 C 314.400 216.737,314.759 217.770,315.199 218.490 C 315.638 219.211,315.998 220.121,315.999 220.513 C 315.999 220.904,316.263 221.326,316.585 221.450 C 316.906 221.573,317.279 222.017,317.412 222.437 C 317.545 222.857,318.002 223.200,318.427 223.200 C 318.852 223.200,319.200 223.449,319.200 223.753 C 319.200 224.058,319.560 224.401,320.000 224.516 C 320.440 224.631,320.800 225.012,320.800 225.363 C 320.800 225.788,321.165 226.004,321.900 226.013 C 323.223 226.028,324.400 226.843,324.400 227.744 C 324.400 228.190,324.752 228.404,325.500 228.413 C 327.086 228.431,328.000 229.284,328.000 230.744 C 328.000 231.966,328.049 232.000,329.800 232.000 C 331.453 232.000,331.600 232.081,331.600 233.000 C 331.600 233.919,331.747 234.000,333.400 234.000 C 334.933 234.000,335.200 234.119,335.200 234.800 C 335.200 235.333,335.467 235.600,336.000 235.600 C 336.587 235.600,336.800 235.867,336.800 236.600 C 336.800 237.318,337.016 237.600,337.564 237.600 C 338.233 237.600,338.363 238.017,338.608 240.965 C 338.844 243.793,339.009 244.361,339.644 244.528 C 340.082 244.642,340.400 245.078,340.400 245.563 C 340.400 246.040,340.658 246.400,341.000 246.400 C 341.330 246.400,341.600 246.630,341.600 246.911 C 341.600 247.192,341.960 247.730,342.400 248.107 C 342.840 248.484,343.200 249.064,343.200 249.396 C 343.200 249.800,343.597 250.000,344.400 250.000 C 345.333 250.000,345.600 250.178,345.600 250.800 C 345.600 251.387,345.867 251.600,346.600 251.600 C 347.333 251.600,347.600 251.813,347.600 252.400 C 347.600 252.933,347.867 253.200,348.400 253.200 C 348.840 253.200,349.200 253.446,349.200 253.747 C 349.200 254.088,349.837 254.380,350.891 254.522 C 351.822 254.646,352.647 254.940,352.725 255.174 C 352.803 255.408,353.217 255.600,353.646 255.600 C 354.074 255.600,354.522 255.854,354.641 256.163 C 354.760 256.473,355.385 256.945,356.029 257.212 C 356.997 257.613,357.200 257.931,357.200 259.049 C 357.200 260.326,357.276 260.400,358.600 260.400 C 359.827 260.400,360.000 260.524,360.000 261.400 C 360.000 262.319,360.147 262.400,361.800 262.400 C 363.333 262.400,363.600 262.519,363.600 263.200 C 363.600 263.733,363.867 264.000,364.400 264.000 C 364.976 264.000,365.200 264.267,365.200 264.953 C 365.200 265.571,365.482 265.981,366.003 266.117 C 366.505 266.248,366.898 266.789,367.053 267.563 C 367.189 268.243,367.443 268.800,367.618 268.800 C 367.793 268.800,368.052 269.385,368.193 270.100 C 368.447 271.384,368.969 273.042,369.610 274.600 C 370.189 276.006,370.576 281.562,370.713 290.400 C 370.999 308.898,371.148 313.524,371.560 316.800 C 372.541 324.588,371.190 331.853,367.196 340.262 C 361.805 351.615,362.219 350.980,356.400 356.815 C 346.908 366.334,337.213 371.104,324.000 372.755 C 314.744 373.912,77.264 373.980,72.000 372.828 C 47.273 367.413,29.498 347.957,27.573 324.200 C 26.850 315.275,27.607 82.916,28.386 74.880 C 30.091 57.279,43.584 38.928,59.337 32.785 C 60.912 32.171,62.740 31.395,63.400 31.061 C 65.179 30.160,70.687 28.806,72.775 28.757 C 73.779 28.733,75.770 28.498,77.200 28.233 C 81.308 27.475,114.830 27.756,117.121 28.569 M218.200 90.352 C 219.080 90.594,222.500 90.978,225.800 91.204 C 237.969 92.039,253.266 96.109,262.305 100.917 C 273.546 106.897,283.550 118.885,285.803 129.073 C 286.134 130.573,286.674 132.784,287.003 133.987 C 287.331 135.190,287.606 136.810,287.614 137.587 C 287.622 138.364,287.885 140.170,288.200 141.600 C 288.939 144.958,288.956 152.040,288.234 155.717 C 287.923 157.303,287.547 159.320,287.399 160.200 C 285.633 170.686,279.809 180.377,271.520 186.621 C 269.345 188.260,267.420 189.600,267.243 189.600 C 267.065 189.600,266.169 190.144,265.251 190.809 C 263.086 192.377,263.423 193.074,267.077 194.590 C 281.972 200.767,293.310 216.354,296.180 234.600 C 296.491 236.580,296.961 239.550,297.223 241.200 C 299.041 252.626,294.535 271.315,287.387 282.000 C 278.057 295.947,258.598 305.982,235.800 308.603 C 233.160 308.907,228.546 309.440,225.548 309.788 C 220.793 310.340,213.475 310.407,168.330 310.311 C 111.427 310.189,115.320 310.361,113.914 307.900 C 113.251 306.740,112.901 94.438,113.559 92.707 C 114.538 90.134,113.673 90.220,140.582 90.000 C 179.653 89.680,216.367 89.846,218.200 90.352 M174.195 132.006 C 173.511 132.761,173.464 134.042,173.433 152.641 L 173.400 172.470 174.378 173.262 C 175.441 174.124,206.981 174.084,211.492 173.215 C 222.346 171.124,228.155 163.793,228.142 152.200 C 228.128 140.548,221.870 134.170,208.472 132.156 C 199.488 130.805,175.377 130.699,174.195 132.006 M205.600 133.215 C 206.810 133.437,209.250 133.771,211.023 133.957 C 227.854 135.719,232.896 159.359,218.547 169.236 C 214.305 172.156,212.881 172.345,193.233 172.600 C 180.087 172.771,175.374 172.710,174.959 172.366 C 174.262 171.787,174.117 134.477,174.807 133.187 C 175.265 132.331,200.909 132.354,205.600 133.215 M200.900 140.377 C 199.300 141.712,200.151 143.200,202.513 143.200 C 203.326 143.200,203.484 142.997,203.515 141.912 C 203.579 139.671,202.503 139.040,200.900 140.377 M291.600 157.626 C 291.600 158.310,290.807 159.600,290.386 159.600 C 289.951 159.600,289.855 157.878,290.267 157.467 C 290.687 157.046,291.600 157.156,291.600 157.626 M285.646 174.900 C 285.808 176.661,284.613 178.434,282.900 178.971 C 281.405 179.441,281.940 177.627,283.924 175.500 C 285.038 174.305,285.574 174.118,285.646 174.900 M275.431 189.565 C 274.487 190.609,274.104 194.099,274.792 195.385 C 275.724 197.127,279.200 195.342,279.200 193.122 C 279.200 191.871,277.754 189.600,276.958 189.600 C 276.688 189.600,276.402 189.406,276.323 189.169 C 276.243 188.930,275.846 189.107,275.431 189.565 M175.329 215.864 C 173.362 216.279,173.407 215.680,173.286 242.514 C 173.180 265.706,173.225 267.765,173.848 268.453 C 174.490 269.162,175.469 269.200,193.134 269.200 L 211.744 269.200 216.172 268.156 C 230.618 264.751,237.204 256.761,237.198 242.649 C 237.191 228.098,230.948 220.025,217.400 217.047 C 213.189 216.122,178.704 215.152,175.329 215.864 M216.829 217.829 C 226.308 219.962,234.400 226.117,234.400 231.193 C 234.400 231.559,234.850 233.362,235.400 235.200 C 237.333 241.659,236.303 250.582,232.895 256.904 C 230.410 261.512,224.318 265.277,216.000 267.343 C 210.940 268.601,176.033 269.189,174.649 268.041 C 173.896 267.416,173.638 219.803,174.377 217.860 C 174.899 216.487,174.157 216.529,194.400 216.712 C 211.794 216.870,212.787 216.919,216.829 217.829 " stroke="none" fill="#56284d" fill-rule="evenodd"></path><path id="path3" d="M81.800 25.095 C 64.733 25.904,53.753 30.612,42.400 41.988 C 32.166 52.242,27.940 61.071,26.216 75.800 C 25.622 80.872,25.213 323.721,25.799 323.134 C 25.908 323.025,26.000 268.518,26.002 202.008 C 26.006 96.302,26.083 80.421,26.615 75.840 C 29.742 48.932,48.619 29.713,75.400 26.171 C 84.659 24.947,319.327 25.752,327.600 27.037 C 339.406 28.870,353.445 36.994,360.500 46.074 C 367.210 54.711,371.896 64.902,372.789 72.800 C 373.562 79.638,373.977 322.811,373.224 327.933 C 371.055 342.697,360.744 358.452,348.394 365.872 C 340.850 370.404,337.753 371.688,330.000 373.496 L 325.400 374.568 256.000 374.795 L 186.600 375.022 256.000 374.998 L 325.400 374.975 330.200 373.903 C 337.975 372.166,339.573 371.512,347.800 366.696 C 361.956 358.412,372.374 341.815,373.976 325.000 C 374.498 319.518,374.121 77.336,373.583 72.957 C 373.194 69.784,371.553 64.395,369.393 59.201 C 363.323 44.598,351.958 34.192,335.731 28.380 C 327.206 25.326,334.523 25.544,234.200 25.356 C 184.920 25.264,130.920 25.146,114.200 25.094 C 97.480 25.042,82.900 25.043,81.800 25.095 M147.800 90.800 C 115.230 91.009,115.536 90.990,114.570 92.858 C 113.976 94.006,113.709 256.024,114.302 255.431 C 114.418 255.316,114.484 219.033,114.449 174.804 C 114.380 86.199,114.197 92.567,116.848 91.643 C 118.391 91.105,207.948 91.053,214.200 91.586 C 216.400 91.774,220.810 92.130,224.000 92.378 C 256.965 94.934,279.233 108.861,284.631 130.298 C 291.244 156.563,284.406 177.974,265.943 188.811 C 260.182 192.193,260.206 192.693,266.266 195.595 C 290.439 207.169,301.338 234.894,293.611 265.155 C 287.624 288.604,265.298 304.644,234.520 307.609 C 232.144 307.838,228.850 308.220,227.200 308.457 C 225.408 308.715,211.875 308.997,193.600 309.155 L 163.000 309.421 192.000 309.508 C 207.950 309.555,222.080 309.434,223.400 309.239 C 224.720 309.044,227.960 308.674,230.600 308.417 C 265.112 305.060,287.374 290.202,293.797 266.239 C 296.795 255.054,297.216 246.918,295.416 235.000 C 292.697 216.996,282.742 203.049,267.273 195.573 C 261.067 192.573,261.032 192.351,266.255 189.203 C 284.578 178.159,291.566 157.699,285.722 132.200 C 283.230 121.330,276.075 111.045,266.206 104.150 C 258.572 98.816,239.208 92.904,227.000 92.180 C 224.800 92.049,221.110 91.686,218.800 91.372 C 213.696 90.680,192.810 90.511,147.800 90.800 M173.322 130.965 L 172.200 131.930 172.095 150.065 C 171.973 171.116,172.073 172.910,173.446 174.282 L 174.415 175.252 192.308 175.105 C 212.350 174.941,213.159 174.842,219.138 171.831 C 230.960 165.878,233.306 147.118,223.484 137.071 C 217.927 131.387,211.356 130.029,189.322 130.012 L 174.445 130.000 173.322 130.965 M207.820 131.203 C 214.920 132.246,214.876 132.234,218.501 134.097 C 232.761 141.424,232.673 164.852,218.360 171.736 C 212.751 174.434,212.153 174.502,192.560 174.693 L 174.919 174.864 173.760 173.867 L 172.600 172.869 172.600 152.600 L 172.600 132.331 173.722 131.365 L 174.845 130.400 188.600 130.400 C 200.292 130.400,203.176 130.520,207.820 131.203 M174.600 214.826 C 173.079 215.280,172.389 216.222,172.441 217.776 L 172.482 219.000 172.799 217.656 C 173.462 214.853,172.316 214.997,193.715 215.030 L 213.000 215.061 217.600 216.137 C 231.463 219.382,237.404 226.798,237.910 241.488 C 238.420 256.305,232.098 264.782,217.600 268.719 C 213.904 269.722,177.447 270.651,174.157 269.825 C 172.654 269.448,172.604 268.727,172.394 244.000 L 172.188 219.800 172.094 244.118 L 172.000 268.436 173.005 269.442 L 174.011 270.447 194.105 270.300 L 214.200 270.153 217.905 269.083 C 232.533 264.857,238.820 256.397,238.283 241.663 C 237.669 224.791,230.617 217.422,212.600 214.820 C 209.157 214.323,176.271 214.328,174.600 214.826 M114.553 261.000 C 114.553 263.640,114.618 264.668,114.697 263.284 C 114.775 261.901,114.774 259.741,114.695 258.484 C 114.616 257.228,114.552 258.360,114.553 261.000 M114.163 272.400 C 114.163 276.030,114.223 277.515,114.298 275.700 C 114.372 273.885,114.372 270.915,114.298 269.100 C 114.223 267.285,114.163 268.770,114.163 272.400 M114.544 283.200 C 114.544 285.290,114.612 286.145,114.694 285.100 C 114.776 284.055,114.776 282.345,114.694 281.300 C 114.612 280.255,114.544 281.110,114.544 283.200 M114.165 294.200 C 114.166 298.160,114.226 299.726,114.298 297.680 C 114.371 295.634,114.371 292.394,114.298 290.480 C 114.224 288.566,114.165 290.240,114.165 294.200 M114.477 304.518 C 114.387 307.686,115.405 309.251,117.482 309.140 L 118.600 309.080 117.549 308.918 C 115.705 308.634,114.860 307.293,114.699 304.397 L 114.554 301.800 114.477 304.518 M124.100 309.499 C 127.125 309.567,132.075 309.567,135.100 309.499 C 138.125 309.431,135.650 309.375,129.600 309.375 C 123.550 309.375,121.075 309.431,124.100 309.499 M147.923 309.499 C 150.631 309.568,154.951 309.568,157.523 309.499 C 160.095 309.429,157.880 309.372,152.600 309.373 C 147.320 309.373,145.215 309.430,147.923 309.499 M26.109 325.600 C 26.109 326.590,26.187 326.995,26.282 326.500 C 26.378 326.005,26.378 325.195,26.282 324.700 C 26.187 324.205,26.109 324.610,26.109 325.600 M26.436 328.800 C 26.403 329.832,27.161 332.982,27.383 332.738 C 27.452 332.662,27.274 331.520,26.988 330.200 C 26.701 328.880,26.453 328.250,26.436 328.800 M29.628 339.400 C 29.628 339.620,29.886 340.250,30.200 340.800 C 30.514 341.350,30.772 341.620,30.772 341.400 C 30.772 341.180,30.514 340.550,30.200 340.000 C 29.886 339.450,29.628 339.180,29.628 339.400 M30.830 342.089 C 30.722 343.138,35.526 351.600,36.230 351.600 C 36.340 351.600,35.692 350.513,34.790 349.185 C 33.887 347.856,32.634 345.651,32.004 344.285 C 31.375 342.918,30.846 341.930,30.830 342.089 M37.253 353.200 C 38.885 355.636,44.082 360.819,47.400 363.319 C 49.160 364.645,50.825 365.903,51.100 366.114 C 51.375 366.325,51.600 366.412,51.600 366.306 C 51.600 366.201,49.935 364.846,47.900 363.296 C 44.386 360.620,41.259 357.603,37.849 353.600 C 36.691 352.241,36.545 352.143,37.253 353.200 M53.200 367.398 C 53.200 367.667,57.249 369.684,57.429 369.505 C 57.511 369.423,56.593 368.873,55.389 368.282 C 54.185 367.692,53.200 367.294,53.200 367.398 M59.600 370.600 C 60.150 370.914,60.780 371.172,61.000 371.172 C 61.220 371.172,60.950 370.914,60.400 370.600 C 59.850 370.286,59.220 370.028,59.000 370.028 C 58.780 370.028,59.050 370.286,59.600 370.600 M63.233 371.952 C 64.044 372.481,70.681 374.410,71.545 374.368 C 72.337 374.330,72.311 374.321,67.800 373.064 C 65.820 372.512,63.840 371.943,63.400 371.800 C 62.746 371.587,62.715 371.615,63.233 371.952 M78.120 375.098 C 80.055 375.172,83.115 375.171,84.920 375.097 C 86.724 375.023,85.140 374.963,81.400 374.964 C 77.660 374.964,76.184 375.025,78.120 375.098 M98.700 375.098 C 100.955 375.170,104.645 375.170,106.900 375.098 C 109.155 375.027,107.310 374.969,102.800 374.969 C 98.290 374.969,96.445 375.027,98.700 375.098 M123.700 375.098 C 126.065 375.169,129.935 375.169,132.300 375.098 C 134.665 375.028,132.730 374.970,128.000 374.970 C 123.270 374.970,121.335 375.028,123.700 375.098 M146.300 375.097 C 147.895 375.173,150.505 375.173,152.100 375.097 C 153.695 375.021,152.390 374.959,149.200 374.959 C 146.010 374.959,144.705 375.021,146.300 375.097 M168.100 375.098 C 170.465 375.169,174.335 375.169,176.700 375.098 C 179.065 375.028,177.130 374.970,172.400 374.970 C 167.670 374.970,165.735 375.028,168.100 375.098 " stroke="none" fill="#7c627a" fill-rule="evenodd"></path><path id="path4" d="M84.291 24.289 C 85.001 24.377,86.261 24.379,87.091 24.292 C 87.921 24.205,87.340 24.133,85.800 24.131 C 84.260 24.129,83.581 24.200,84.291 24.289 M89.062 24.500 C 89.301 24.887,99.252 24.882,99.863 24.494 C 100.117 24.332,97.750 24.200,94.602 24.200 C 91.453 24.200,88.961 24.335,89.062 24.500 M101.900 24.289 C 102.615 24.378,103.785 24.378,104.500 24.289 C 105.215 24.201,104.630 24.128,103.200 24.128 C 101.770 24.128,101.185 24.201,101.900 24.289 M106.343 24.503 C 106.510 24.670,117.886 24.760,131.623 24.703 L 156.600 24.600 131.320 24.400 C 117.416 24.290,106.176 24.336,106.343 24.503 M75.600 24.682 C 50.032 26.704,29.838 46.533,25.172 74.200 C 24.638 77.361,24.509 103.930,24.371 239.000 C 24.277 331.139,24.177 326.964,26.672 334.600 C 31.243 348.586,36.398 356.629,45.096 363.346 C 52.877 369.354,55.033 370.474,66.000 374.208 C 73.510 376.765,65.536 376.612,183.800 376.469 C 320.646 376.304,324.192 376.278,327.800 375.431 C 329.340 375.070,331.860 374.522,333.400 374.213 C 343.284 372.233,358.486 361.906,364.043 353.397 C 370.650 343.277,373.696 335.624,374.845 326.253 C 375.233 323.089,375.360 242.027,374.978 241.645 C 374.880 241.547,374.800 259.504,374.800 281.549 C 374.800 328.994,374.582 332.065,370.595 340.693 C 361.337 360.731,345.733 372.516,324.898 375.206 C 319.227 375.938,75.935 375.767,72.167 375.029 C 53.287 371.327,36.999 358.552,30.283 342.181 C 27.652 335.768,26.134 330.674,25.639 326.600 C 24.866 320.228,25.037 81.024,25.820 74.983 C 29.466 46.845,49.694 27.563,78.400 24.866 C 81.255 24.598,81.603 24.513,79.800 24.524 C 78.480 24.533,76.590 24.604,75.600 24.682 M170.118 24.698 C 171.833 24.773,174.533 24.772,176.118 24.697 C 177.703 24.621,176.300 24.559,173.000 24.560 C 169.700 24.561,168.403 24.622,170.118 24.698 M189.519 24.698 C 191.344 24.772,194.224 24.772,195.919 24.697 C 197.614 24.622,196.120 24.561,192.600 24.562 C 189.080 24.562,187.694 24.624,189.519 24.698 M215.700 24.696 C 216.965 24.775,219.035 24.775,220.300 24.696 C 221.565 24.616,220.530 24.551,218.000 24.551 C 215.470 24.551,214.435 24.616,215.700 24.696 M237.500 24.695 C 238.655 24.776,240.545 24.776,241.700 24.695 C 242.855 24.614,241.910 24.548,239.600 24.548 C 237.290 24.548,236.345 24.614,237.500 24.695 M258.711 24.693 C 259.651 24.778,261.091 24.777,261.911 24.691 C 262.730 24.605,261.960 24.536,260.200 24.537 C 258.440 24.539,257.770 24.609,258.711 24.693 M291.100 25.082 C 291.595 25.178,292.405 25.178,292.900 25.082 C 293.395 24.987,292.990 24.909,292.000 24.909 C 291.010 24.909,290.605 24.987,291.100 25.082 M116.804 92.255 C 114.826 93.087,114.885 89.609,114.957 200.637 C 115.033 317.315,114.801 307.537,117.505 308.294 C 119.504 308.853,221.312 308.654,225.600 308.082 C 227.690 307.803,231.512 307.406,234.093 307.198 C 246.383 306.210,264.869 299.890,273.560 293.706 C 290.039 281.980,298.059 260.839,294.802 237.714 C 291.891 217.045,283.297 204.579,266.049 196.008 C 259.442 192.725,259.386 192.150,265.327 188.654 C 275.019 182.949,283.019 172.894,284.163 164.977 C 284.362 163.597,284.299 163.675,283.656 165.600 C 280.083 176.300,273.473 184.035,263.709 188.947 C 258.977 191.327,258.468 193.186,262.106 194.795 C 277.051 201.402,284.600 208.650,290.234 221.800 C 294.121 230.871,296.344 247.683,294.624 255.000 C 294.314 256.320,293.579 259.736,292.992 262.591 C 290.011 277.089,280.109 290.742,268.800 295.948 C 262.427 298.883,254.163 302.152,251.047 302.971 C 249.041 303.498,246.140 304.291,244.600 304.734 C 235.134 307.452,229.842 307.665,170.200 307.729 C 114.523 307.789,117.234 307.892,116.317 305.676 C 115.995 304.898,115.847 275.513,115.781 199.470 L 115.690 94.340 116.551 93.339 C 117.508 92.227,116.951 92.277,127.800 92.329 C 149.839 92.436,192.800 92.147,192.800 91.891 C 192.800 91.357,118.090 91.715,116.804 92.255 M195.202 91.900 C 195.203 92.065,199.478 92.220,204.702 92.245 C 209.926 92.269,214.830 92.409,215.600 92.554 C 216.370 92.700,218.980 92.886,221.400 92.967 C 225.714 93.113,225.734 93.109,222.400 92.801 C 209.977 91.650,195.198 91.161,195.202 91.900 M374.567 99.400 C 374.567 103.580,374.626 105.236,374.698 103.079 C 374.771 100.923,374.770 97.503,374.698 95.479 C 374.625 93.456,374.566 95.220,374.567 99.400 M227.300 93.487 C 227.905 93.578,228.895 93.578,229.500 93.487 C 230.105 93.395,229.610 93.320,228.400 93.320 C 227.190 93.320,226.695 93.395,227.300 93.487 M233.800 94.424 C 235.560 94.837,237.360 95.165,237.800 95.153 C 238.240 95.140,237.160 94.796,235.400 94.388 C 233.640 93.980,231.840 93.652,231.400 93.659 C 230.960 93.667,232.040 94.011,233.800 94.424 M260.400 102.442 C 270.195 107.677,276.363 113.921,281.210 123.510 C 282.292 125.650,283.182 127.205,283.188 126.966 C 283.234 125.287,277.884 116.454,274.712 112.972 C 270.301 108.130,259.330 100.368,256.950 100.406 C 256.758 100.409,258.310 101.325,260.400 102.442 M374.493 111.600 C 374.493 112.370,374.575 112.685,374.676 112.300 C 374.776 111.915,374.776 111.285,374.676 110.900 C 374.575 110.515,374.493 110.830,374.493 111.600 M374.558 129.000 C 374.558 132.080,374.621 133.287,374.697 131.682 C 374.773 130.078,374.773 127.558,374.696 126.082 C 374.619 124.607,374.557 125.920,374.558 129.000 M175.771 129.209 C 170.811 129.732,171.044 128.590,171.045 152.400 C 171.046 179.026,169.471 176.410,185.487 176.380 C 216.922 176.322,223.064 174.518,228.010 163.891 C 236.408 145.847,225.528 130.205,204.000 129.373 C 195.881 129.059,178.174 128.956,175.771 129.209 M209.650 130.424 C 225.073 132.989,232.715 144.053,229.197 158.724 C 226.975 167.996,221.829 172.777,211.855 174.835 C 206.819 175.874,174.751 176.002,173.305 174.988 C 171.731 173.886,171.605 172.205,171.602 152.287 C 171.600 131.684,171.680 130.822,173.682 130.019 C 175.705 129.207,204.271 129.529,209.650 130.424 M286.557 148.800 C 286.557 151.770,286.620 152.985,286.697 151.500 C 286.774 150.015,286.774 147.585,286.697 146.100 C 286.620 144.615,286.557 145.830,286.557 148.800 M374.555 150.600 C 374.556 153.460,374.620 154.578,374.697 153.083 C 374.774 151.589,374.774 149.249,374.696 147.883 C 374.618 146.518,374.555 147.740,374.555 150.600 M284.629 161.829 C 284.481 162.415,284.438 162.972,284.532 163.066 C 284.627 163.160,284.824 162.758,284.971 162.171 C 285.119 161.585,285.162 161.028,285.068 160.934 C 284.973 160.840,284.776 161.242,284.629 161.829 M374.558 171.400 C 374.558 174.480,374.621 175.687,374.697 174.082 C 374.773 172.478,374.773 169.958,374.696 168.482 C 374.619 167.007,374.557 168.320,374.558 171.400 M374.946 183.800 C 374.947 186.000,375.014 186.849,375.095 185.687 C 375.176 184.524,375.176 182.724,375.093 181.687 C 375.011 180.649,374.945 181.600,374.946 183.800 M374.548 194.400 C 374.548 196.710,374.614 197.655,374.695 196.500 C 374.776 195.345,374.776 193.455,374.695 192.300 C 374.614 191.145,374.548 192.090,374.548 194.400 M374.924 205.800 C 374.926 207.120,375.001 207.612,375.090 206.893 C 375.179 206.174,375.177 205.094,375.086 204.493 C 374.995 203.892,374.922 204.480,374.924 205.800 M374.544 216.400 C 374.544 218.490,374.612 219.345,374.694 218.300 C 374.776 217.255,374.776 215.545,374.694 214.500 C 374.612 213.455,374.544 214.310,374.544 216.400 M174.452 213.634 C 170.878 214.389,170.801 215.095,170.924 245.910 L 171.019 269.597 171.921 270.499 L 172.823 271.400 193.511 271.340 C 217.561 271.271,217.181 271.319,225.659 267.252 C 235.851 262.363,239.945 254.501,239.225 241.200 C 238.326 224.605,233.086 218.010,218.183 214.718 L 212.600 213.485 194.200 213.417 C 184.080 213.380,175.193 213.477,174.452 213.634 M216.317 215.038 C 232.130 218.267,238.141 225.411,238.684 241.622 C 239.189 256.733,232.466 265.751,217.800 269.633 C 211.105 271.406,174.264 271.501,172.513 269.750 L 171.567 268.804 171.684 242.644 C 171.812 213.821,171.670 215.414,174.200 214.378 C 176.523 213.427,211.080 213.969,216.317 215.038 M374.948 229.200 C 374.948 231.510,375.014 232.455,375.095 231.300 C 375.176 230.145,375.176 228.255,375.095 227.100 C 375.014 225.945,374.948 226.890,374.948 229.200 M374.520 237.600 C 374.520 238.810,374.595 239.305,374.687 238.700 C 374.778 238.095,374.778 237.105,374.687 236.500 C 374.595 235.895,374.520 236.390,374.520 237.600 " stroke="none" fill="#9c90a3" fill-rule="evenodd"></path><path id="path5" d="M78.900 25.876 C 79.285 25.976,79.915 25.976,80.300 25.876 C 80.685 25.775,80.370 25.693,79.600 25.693 C 78.830 25.693,78.515 25.775,78.900 25.876 M92.300 25.889 C 93.015 25.978,94.185 25.978,94.900 25.889 C 95.615 25.801,95.030 25.728,93.600 25.728 C 92.170 25.728,91.585 25.801,92.300 25.889 M117.091 25.889 C 117.801 25.977,119.061 25.979,119.891 25.892 C 120.721 25.805,120.140 25.733,118.600 25.731 C 117.060 25.729,116.381 25.800,117.091 25.889 M135.300 25.898 C 137.225 25.971,140.375 25.971,142.300 25.898 C 144.225 25.825,142.650 25.765,138.800 25.765 C 134.950 25.765,133.375 25.825,135.300 25.898 M151.500 25.898 C 153.315 25.972,156.285 25.972,158.100 25.898 C 159.915 25.823,158.430 25.763,154.800 25.763 C 151.170 25.763,149.685 25.823,151.500 25.898 M170.319 25.898 C 172.144 25.972,175.024 25.972,176.719 25.897 C 178.414 25.822,176.920 25.761,173.400 25.762 C 169.880 25.762,168.494 25.824,170.319 25.898 M190.482 25.896 C 191.958 25.973,194.478 25.973,196.082 25.897 C 197.687 25.821,196.480 25.758,193.400 25.758 C 190.320 25.757,189.007 25.819,190.482 25.896 M214.915 25.896 C 216.188 25.976,218.168 25.975,219.315 25.894 C 220.462 25.814,219.420 25.749,217.000 25.750 C 214.580 25.751,213.642 25.816,214.915 25.896 M238.700 25.889 C 239.415 25.978,240.585 25.978,241.300 25.889 C 242.015 25.801,241.430 25.728,240.000 25.728 C 238.570 25.728,237.985 25.801,238.700 25.889 M290.711 26.293 C 291.651 26.378,293.091 26.377,293.911 26.291 C 294.730 26.205,293.960 26.136,292.200 26.137 C 290.440 26.139,289.770 26.209,290.711 26.293 M297.700 26.287 C 298.305 26.378,299.295 26.378,299.900 26.287 C 300.505 26.195,300.010 26.120,298.800 26.120 C 297.590 26.120,297.095 26.195,297.700 26.287 M42.576 42.100 C 40.150 44.575,37.818 47.050,37.393 47.600 C 36.428 48.850,36.416 48.862,42.390 42.700 C 45.109 39.895,47.256 37.600,47.161 37.600 C 47.065 37.600,45.002 39.625,42.576 42.100 M33.000 54.800 C 32.659 55.460,32.469 56.000,32.579 56.000 C 32.689 56.000,33.059 55.460,33.400 54.800 C 33.741 54.140,33.931 53.600,33.821 53.600 C 33.711 53.600,33.341 54.140,33.000 54.800 M30.865 59.017 C 30.195 60.488,30.323 60.802,31.047 59.465 C 31.386 58.840,31.588 58.254,31.496 58.163 C 31.405 58.071,31.121 58.456,30.865 59.017 M26.893 73.600 C 26.893 74.370,26.975 74.685,27.076 74.300 C 27.176 73.915,27.176 73.285,27.076 72.900 C 26.975 72.515,26.893 72.830,26.893 73.600 M26.501 77.400 C 26.505 78.280,26.587 78.593,26.683 78.095 C 26.779 77.598,26.775 76.878,26.675 76.495 C 26.575 76.113,26.496 76.520,26.501 77.400 M26.183 96.600 C 26.183 106.060,26.236 109.873,26.300 105.073 C 26.364 100.273,26.363 92.533,26.299 87.873 C 26.236 83.213,26.183 87.140,26.183 96.600 M119.900 90.696 C 121.275 90.774,123.525 90.774,124.900 90.696 C 126.275 90.618,125.150 90.554,122.400 90.554 C 119.650 90.554,118.525 90.618,119.900 90.696 M142.100 90.700 C 148.865 90.761,159.935 90.761,166.700 90.700 C 173.465 90.638,167.930 90.588,154.400 90.588 C 140.870 90.588,135.335 90.638,142.100 90.700 M190.880 90.698 C 192.794 90.771,196.034 90.771,198.080 90.698 C 200.126 90.626,198.560 90.566,194.600 90.565 C 190.640 90.565,188.966 90.624,190.880 90.698 M207.111 90.693 C 208.051 90.778,209.491 90.777,210.311 90.691 C 211.130 90.605,210.360 90.536,208.600 90.537 C 206.840 90.539,206.170 90.609,207.111 90.693 M114.982 91.782 C 114.442 92.322,114.006 92.997,114.014 93.282 C 114.022 93.567,114.277 93.351,114.580 92.803 C 114.884 92.254,115.643 91.587,116.266 91.321 C 117.024 90.997,117.162 90.830,116.682 90.818 C 116.287 90.808,115.522 91.242,114.982 91.782 M222.305 91.883 C 222.802 91.979,223.522 91.975,223.905 91.875 C 224.287 91.775,223.880 91.696,223.000 91.701 C 222.120 91.705,221.807 91.787,222.305 91.883 M228.500 92.276 C 228.885 92.376,229.515 92.376,229.900 92.276 C 230.285 92.175,229.970 92.093,229.200 92.093 C 228.430 92.093,228.115 92.175,228.500 92.276 M113.765 100.800 C 113.765 104.650,113.825 106.225,113.898 104.300 C 113.971 102.375,113.971 99.225,113.898 97.300 C 113.825 95.375,113.765 96.950,113.765 100.800 M113.760 117.000 C 113.761 120.300,113.822 121.597,113.898 119.882 C 113.973 118.167,113.972 115.467,113.897 113.882 C 113.821 112.297,113.759 113.700,113.760 117.000 M26.196 198.000 C 26.196 244.090,26.243 262.945,26.300 239.900 C 26.357 216.855,26.357 179.145,26.300 156.100 C 26.243 133.055,26.196 151.910,26.196 198.000 M113.769 135.000 C 113.770 139.620,113.828 141.455,113.899 139.078 C 113.970 136.701,113.969 132.921,113.898 130.678 C 113.827 128.435,113.769 130.380,113.769 135.000 M181.900 130.699 C 185.915 130.765,192.485 130.765,196.500 130.699 C 200.515 130.634,197.230 130.581,189.200 130.581 C 181.170 130.581,177.885 130.634,181.900 130.699 M172.553 138.600 C 172.553 141.240,172.618 142.268,172.697 140.884 C 172.775 139.501,172.774 137.341,172.695 136.084 C 172.616 134.828,172.552 135.960,172.553 138.600 M373.301 135.400 C 373.305 136.280,373.387 136.593,373.483 136.095 C 373.579 135.598,373.575 134.878,373.475 134.495 C 373.375 134.113,373.296 134.520,373.301 135.400 M222.783 137.300 C 224.441 139.066,224.800 139.384,224.800 139.083 C 224.800 139.019,223.945 138.164,222.900 137.183 L 221.000 135.400 222.783 137.300 M373.350 143.400 C 373.351 145.820,373.416 146.758,373.496 145.485 C 373.576 144.212,373.575 142.232,373.494 141.085 C 373.414 139.938,373.349 140.980,373.350 143.400 M287.693 144.400 C 287.693 145.170,287.775 145.485,287.876 145.100 C 287.976 144.715,287.976 144.085,287.876 143.700 C 287.775 143.315,287.693 143.630,287.693 144.400 M228.937 152.200 C 228.939 153.960,229.009 154.630,229.093 153.689 C 229.178 152.749,229.177 151.309,229.091 150.489 C 229.005 149.670,228.936 150.440,228.937 152.200 M113.770 159.000 C 113.771 163.840,113.829 165.765,113.899 163.278 C 113.969 160.791,113.969 156.831,113.898 154.478 C 113.828 152.125,113.770 154.160,113.770 159.000 M287.693 153.200 C 287.693 153.970,287.775 154.285,287.876 153.900 C 287.976 153.515,287.976 152.885,287.876 152.500 C 287.775 152.115,287.693 152.430,287.693 153.200 M373.366 160.000 C 373.366 164.070,373.425 165.735,373.498 163.700 C 373.571 161.665,373.571 158.335,373.498 156.300 C 373.425 154.265,373.366 155.930,373.366 160.000 M172.567 162.200 C 172.567 166.380,172.626 168.036,172.698 165.879 C 172.771 163.723,172.770 160.303,172.698 158.279 C 172.625 156.256,172.566 158.020,172.567 162.200 M222.975 168.500 L 221.800 169.800 223.100 168.625 C 223.815 167.979,224.400 167.394,224.400 167.325 C 224.400 167.016,224.070 167.288,222.975 168.500 M218.400 171.400 C 217.410 171.930,216.742 172.372,216.916 172.382 C 217.341 172.406,220.400 170.834,220.400 170.592 C 220.400 170.327,220.417 170.320,218.400 171.400 M373.365 177.200 C 373.365 181.050,373.425 182.625,373.498 180.700 C 373.571 178.775,373.571 175.625,373.498 173.700 C 373.425 171.775,373.365 173.350,373.365 177.200 M172.832 172.438 C 172.814 172.789,173.205 173.419,173.700 173.838 C 174.592 174.594,174.594 174.593,173.952 173.800 C 173.596 173.360,173.205 172.730,173.084 172.400 C 172.897 171.891,172.858 171.896,172.832 172.438 M208.900 174.276 C 209.285 174.376,209.915 174.376,210.300 174.276 C 210.685 174.175,210.370 174.093,209.600 174.093 C 208.830 174.093,208.515 174.175,208.900 174.276 M182.927 174.700 C 187.507 174.764,194.887 174.764,199.327 174.699 C 203.767 174.635,200.020 174.583,191.000 174.583 C 181.980 174.583,178.347 174.635,182.927 174.700 M113.755 182.600 C 113.756 185.460,113.820 186.578,113.897 185.083 C 113.974 183.589,113.974 181.249,113.896 179.883 C 113.818 178.518,113.755 179.740,113.755 182.600 M373.384 205.000 C 373.384 214.900,373.436 218.893,373.500 213.873 C 373.563 208.853,373.563 200.753,373.500 195.873 C 373.436 190.993,373.384 195.100,373.384 205.000 M262.880 191.280 C 262.124 192.036,262.318 193.129,263.300 193.644 L 264.200 194.116 263.418 193.236 C 262.768 192.505,262.718 192.223,263.121 191.578 C 263.674 190.692,263.582 190.578,262.880 191.280 M279.800 204.000 C 280.659 204.880,281.452 205.600,281.562 205.600 C 281.672 205.600,281.059 204.880,280.200 204.000 C 279.341 203.120,278.548 202.400,278.438 202.400 C 278.328 202.400,278.941 203.120,279.800 204.000 M282.000 206.525 C 282.000 206.594,282.585 207.179,283.300 207.825 L 284.600 209.000 283.425 207.700 C 282.330 206.488,282.000 206.216,282.000 206.525 M113.693 208.000 C 113.693 208.770,113.775 209.085,113.876 208.700 C 113.976 208.315,113.976 207.685,113.876 207.300 C 113.775 206.915,113.693 207.230,113.693 208.000 M114.134 217.200 C 114.134 218.850,114.205 219.525,114.291 218.700 C 114.378 217.875,114.378 216.525,114.291 215.700 C 114.205 214.875,114.134 215.550,114.134 217.200 M179.722 215.099 C 182.099 215.170,185.879 215.169,188.122 215.098 C 190.365 215.027,188.420 214.969,183.800 214.969 C 179.180 214.970,177.345 215.028,179.722 215.099 M201.900 215.097 C 203.495 215.173,206.105 215.173,207.700 215.097 C 209.295 215.021,207.990 214.959,204.800 214.959 C 201.610 214.959,200.305 215.021,201.900 215.097 M225.584 219.205 C 227.342 220.138,229.726 221.900,231.384 223.494 L 234.200 226.200 231.416 223.306 C 228.965 220.757,224.224 217.571,222.942 217.611 C 222.754 217.616,223.943 218.334,225.584 219.205 M172.588 243.400 C 172.588 257.040,172.638 262.678,172.700 255.929 C 172.761 249.180,172.761 238.020,172.700 231.129 C 172.638 224.238,172.588 229.760,172.588 243.400 M234.678 227.795 C 235.044 228.562,235.414 229.119,235.501 229.032 C 235.684 228.849,234.470 226.400,234.196 226.400 C 234.095 226.400,234.312 227.028,234.678 227.795 M113.724 231.000 C 113.726 232.320,113.801 232.812,113.890 232.093 C 113.979 231.374,113.977 230.294,113.886 229.693 C 113.795 229.092,113.722 229.680,113.724 231.000 M373.342 237.800 C 373.341 239.780,373.408 240.640,373.492 239.712 C 373.576 238.784,373.577 237.164,373.495 236.112 C 373.412 235.060,373.343 235.820,373.342 237.800 M114.140 238.400 C 114.140 240.270,114.209 241.035,114.293 240.100 C 114.377 239.165,114.377 237.635,114.293 236.700 C 114.209 235.765,114.140 236.530,114.140 238.400 M237.757 242.800 C 237.757 245.770,237.820 246.985,237.897 245.500 C 237.974 244.015,237.974 241.585,237.897 240.100 C 237.820 238.615,237.757 239.830,237.757 242.800 M296.509 242.800 C 296.509 243.790,296.587 244.195,296.682 243.700 C 296.778 243.205,296.778 242.395,296.682 241.900 C 296.587 241.405,296.509 241.810,296.509 242.800 M113.709 245.600 C 113.709 246.590,113.787 246.995,113.882 246.500 C 113.978 246.005,113.978 245.195,113.882 244.700 C 113.787 244.205,113.709 244.610,113.709 245.600 M296.534 250.000 C 296.534 251.650,296.605 252.325,296.691 251.500 C 296.778 250.675,296.778 249.325,296.691 248.500 C 296.605 247.675,296.534 248.350,296.534 250.000 M234.482 256.827 C 233.984 257.692,233.657 258.400,233.755 258.400 C 234.031 258.400,235.712 255.579,235.539 255.406 C 235.455 255.322,234.980 255.962,234.482 256.827 M114.157 260.800 C 114.157 263.770,114.220 264.985,114.297 263.500 C 114.374 262.015,114.374 259.585,114.297 258.100 C 114.220 256.615,114.157 257.830,114.157 260.800 M231.776 260.655 C 230.940 261.676,229.180 263.206,227.866 264.055 C 226.551 264.905,225.642 265.600,225.845 265.600 C 226.903 265.600,231.370 261.971,232.862 259.900 C 234.123 258.150,233.440 258.625,231.776 260.655 M373.344 263.200 C 373.344 265.290,373.412 266.145,373.494 265.100 C 373.576 264.055,373.576 262.345,373.494 261.300 C 373.412 260.255,373.344 261.110,373.344 263.200 M222.000 267.000 C 221.450 267.314,221.180 267.572,221.400 267.572 C 221.620 267.572,222.250 267.314,222.800 267.000 C 223.350 266.686,223.620 266.428,223.400 266.428 C 223.180 266.428,222.550 266.686,222.000 267.000 M180.700 269.897 C 182.295 269.973,184.905 269.973,186.500 269.897 C 188.095 269.821,186.790 269.759,183.600 269.759 C 180.410 269.759,179.105 269.821,180.700 269.897 M201.280 269.898 C 203.194 269.971,206.434 269.971,208.480 269.898 C 210.526 269.826,208.960 269.766,205.000 269.765 C 201.040 269.765,199.366 269.824,201.280 269.898 M290.481 275.009 C 290.002 275.994,289.694 276.800,289.797 276.800 C 290.068 276.800,291.684 273.551,291.503 273.370 C 291.419 273.286,290.959 274.024,290.481 275.009 M114.150 283.000 C 114.151 285.420,114.216 286.358,114.296 285.085 C 114.376 283.812,114.375 281.832,114.294 280.685 C 114.214 279.538,114.149 280.580,114.150 283.000 M26.174 293.000 C 26.175 298.720,26.231 301.004,26.299 298.076 C 26.368 295.148,26.367 290.468,26.299 287.676 C 26.230 284.884,26.174 287.280,26.174 293.000 M282.585 286.900 L 280.600 289.000 282.700 287.015 C 284.651 285.171,284.983 284.800,284.685 284.800 C 284.622 284.800,283.677 285.745,282.585 286.900 M266.800 298.600 C 264.930 299.568,263.539 300.369,263.709 300.380 C 264.134 300.408,270.400 297.238,270.400 296.996 C 270.400 296.724,270.570 296.649,266.800 298.600 M114.068 304.131 C 113.987 307.883,115.154 309.641,117.669 309.554 L 119.000 309.508 117.473 309.213 C 115.089 308.751,114.632 308.026,114.368 304.287 L 114.135 301.000 114.068 304.131 M232.705 308.283 C 233.202 308.379,233.922 308.375,234.305 308.275 C 234.687 308.175,234.280 308.096,233.400 308.101 C 232.520 308.105,232.207 308.187,232.705 308.283 M225.700 309.087 C 226.305 309.178,227.295 309.178,227.900 309.087 C 228.505 308.995,228.010 308.920,226.800 308.920 C 225.590 308.920,225.095 308.995,225.700 309.087 M141.105 309.483 C 141.602 309.579,142.322 309.575,142.705 309.475 C 143.087 309.375,142.680 309.296,141.800 309.301 C 140.920 309.305,140.607 309.387,141.105 309.483 M222.500 309.476 C 222.885 309.576,223.515 309.576,223.900 309.476 C 224.285 309.375,223.970 309.293,223.200 309.293 C 222.430 309.293,222.115 309.375,222.500 309.476 M26.134 312.400 C 26.134 314.050,26.205 314.725,26.291 313.900 C 26.378 313.075,26.378 311.725,26.291 310.900 C 26.205 310.075,26.134 310.750,26.134 312.400 M125.717 309.897 C 127.211 309.974,129.551 309.974,130.917 309.896 C 132.282 309.818,131.060 309.755,128.200 309.755 C 125.340 309.756,124.222 309.820,125.717 309.897 M148.300 309.898 C 150.335 309.971,153.665 309.971,155.700 309.898 C 157.735 309.825,156.070 309.766,152.000 309.766 C 147.930 309.766,146.265 309.825,148.300 309.898 M169.300 309.897 C 171.005 309.972,173.795 309.972,175.500 309.897 C 177.205 309.822,175.810 309.761,172.400 309.761 C 168.990 309.761,167.595 309.822,169.300 309.897 M190.121 309.898 C 192.277 309.971,195.697 309.970,197.721 309.898 C 199.744 309.825,197.980 309.766,193.800 309.767 C 189.620 309.767,187.964 309.826,190.121 309.898 M208.500 309.898 C 210.865 309.969,214.735 309.969,217.100 309.898 C 219.465 309.828,217.530 309.770,212.800 309.770 C 208.070 309.770,206.135 309.828,208.500 309.898 M373.746 317.800 C 373.747 320.000,373.814 320.849,373.895 319.687 C 373.976 318.524,373.976 316.724,373.893 315.687 C 373.811 314.649,373.745 315.600,373.746 317.800 M26.134 321.200 C 26.134 322.850,26.205 323.525,26.291 322.700 C 26.378 321.875,26.378 320.525,26.291 319.700 C 26.205 318.875,26.134 319.550,26.134 321.200 M373.309 324.800 C 373.309 325.790,373.387 326.195,373.482 325.700 C 373.578 325.205,373.578 324.395,373.482 323.900 C 373.387 323.405,373.309 323.810,373.309 324.800 M26.501 326.600 C 26.505 327.480,26.587 327.793,26.683 327.295 C 26.779 326.798,26.775 326.078,26.675 325.695 C 26.575 325.313,26.496 325.720,26.501 326.600 M27.600 332.458 C 27.600 332.961,29.989 339.639,30.396 340.275 C 30.825 340.945,30.840 340.939,30.587 340.200 C 28.113 332.948,27.600 331.618,27.600 332.458 M33.008 346.400 C 37.337 354.387,47.846 364.578,55.800 368.504 C 59.360 370.261,64.020 372.113,64.265 371.868 C 64.369 371.764,63.767 371.459,62.927 371.188 C 52.816 367.932,42.163 359.547,35.500 349.600 C 33.574 346.723,32.290 345.075,33.008 346.400 M360.400 355.000 C 359.428 355.990,358.723 356.800,358.833 356.800 C 358.943 356.800,359.828 355.990,360.800 355.000 C 361.772 354.010,362.477 353.200,362.367 353.200 C 362.257 353.200,361.372 354.010,360.400 355.000 M353.381 362.100 L 351.800 363.800 353.500 362.219 C 355.081 360.748,355.384 360.400,355.081 360.400 C 355.016 360.400,354.251 361.165,353.381 362.100 M346.100 366.842 C 344.945 367.515,344.000 368.158,344.000 368.271 C 344.000 368.493,347.557 366.515,348.180 365.947 C 348.858 365.328,348.242 365.593,346.100 366.842 M323.905 374.283 C 324.402 374.379,325.122 374.375,325.505 374.275 C 325.887 374.175,325.480 374.096,324.600 374.101 C 323.720 374.105,323.407 374.187,323.905 374.283 M76.316 374.697 C 77.699 374.775,79.859 374.774,81.116 374.695 C 82.372 374.616,81.240 374.552,78.600 374.553 C 75.960 374.553,74.932 374.618,76.316 374.697 M125.900 374.695 C 127.055 374.776,128.945 374.776,130.100 374.695 C 131.255 374.614,130.310 374.548,128.000 374.548 C 125.690 374.548,124.745 374.614,125.900 374.695 M147.500 374.693 C 148.435 374.777,149.965 374.777,150.900 374.693 C 151.835 374.609,151.070 374.540,149.200 374.540 C 147.330 374.540,146.565 374.609,147.500 374.693 M168.115 374.696 C 169.388 374.776,171.368 374.775,172.515 374.694 C 173.662 374.614,172.620 374.549,170.200 374.550 C 167.780 374.551,166.842 374.616,168.115 374.696 M191.507 374.690 C 192.226 374.779,193.306 374.777,193.907 374.686 C 194.508 374.595,193.920 374.522,192.600 374.524 C 191.280 374.526,190.788 374.601,191.507 374.690 M213.717 374.697 C 215.211 374.774,217.551 374.774,218.917 374.696 C 220.282 374.618,219.060 374.555,216.200 374.555 C 213.340 374.556,212.222 374.620,213.717 374.697 M236.100 374.697 C 237.585 374.774,240.015 374.774,241.500 374.697 C 242.985 374.620,241.770 374.557,238.800 374.557 C 235.830 374.557,234.615 374.620,236.100 374.697 M256.700 374.699 C 259.615 374.767,264.385 374.767,267.300 374.699 C 270.215 374.631,267.830 374.575,262.000 374.575 C 256.170 374.575,253.785 374.631,256.700 374.699 M279.678 374.698 C 282.031 374.769,285.991 374.769,288.478 374.699 C 290.965 374.629,289.040 374.571,284.200 374.570 C 279.360 374.570,277.325 374.628,279.678 374.698 M303.100 374.699 C 306.675 374.766,312.525 374.766,316.100 374.699 C 319.675 374.633,316.750 374.579,309.600 374.579 C 302.450 374.579,299.525 374.633,303.100 374.699 M89.712 375.095 C 90.764 375.177,92.384 375.176,93.312 375.092 C 94.240 375.008,93.380 374.941,91.400 374.942 C 89.420 374.943,88.660 375.012,89.712 375.095 M112.900 375.096 C 114.165 375.175,116.235 375.175,117.500 375.096 C 118.765 375.016,117.730 374.951,115.200 374.951 C 112.670 374.951,111.635 375.016,112.900 375.096 M138.100 375.094 C 139.145 375.176,140.855 375.176,141.900 375.094 C 142.945 375.012,142.090 374.944,140.000 374.944 C 137.910 374.944,137.055 375.012,138.100 375.094 M157.116 375.097 C 158.499 375.175,160.659 375.174,161.916 375.095 C 163.172 375.016,162.040 374.952,159.400 374.953 C 156.760 374.953,155.732 375.018,157.116 375.097 M182.311 375.093 C 183.251 375.178,184.691 375.177,185.511 375.091 C 186.330 375.005,185.560 374.936,183.800 374.937 C 182.040 374.939,181.370 375.009,182.311 375.093 " stroke="none" fill="#6c5974" fill-rule="evenodd"></path><path id="path6" d="M78.400 24.911 C 50.078 27.233,29.463 46.864,25.820 74.983 C 25.037 81.024,24.866 320.228,25.639 326.600 C 26.134 330.674,27.652 335.768,30.283 342.181 C 36.999 358.552,53.287 371.327,72.167 375.029 C 75.935 375.767,319.227 375.938,324.898 375.206 C 351.524 371.768,371.590 351.504,374.415 325.200 C 375.015 319.618,374.606 75.888,373.990 72.000 C 371.184 54.277,357.682 37.111,341.000 30.058 C 328.363 24.715,334.954 25.153,264.400 24.961 C 140.852 24.625,82.091 24.609,78.400 24.911 M234.200 25.356 C 334.523 25.544,327.206 25.326,335.731 28.380 C 351.958 34.192,363.323 44.598,369.393 59.201 C 371.553 64.395,373.194 69.784,373.583 72.957 C 374.121 77.336,374.498 319.518,373.976 325.000 C 372.374 341.815,361.956 358.412,347.800 366.696 C 339.578 371.508,337.987 372.160,330.200 373.907 L 325.400 374.984 200.601 375.098 C 88.607 375.200,75.452 375.147,72.401 374.583 C 48.405 370.154,29.003 350.020,26.161 326.600 C 25.308 319.570,25.360 83.114,26.216 75.800 C 29.037 51.704,45.992 31.898,67.997 26.996 C 77.038 24.981,77.088 24.979,114.200 25.094 C 130.920 25.146,184.920 25.264,234.200 25.356 M116.568 91.768 C 114.244 92.780,114.371 86.124,114.490 200.698 L 114.600 306.782 115.709 307.891 L 116.818 309.000 169.709 309.000 C 210.480 309.000,223.517 308.882,226.600 308.485 C 228.800 308.202,232.450 307.797,234.710 307.584 C 244.411 306.671,257.938 302.653,267.537 297.832 C 290.483 286.308,300.787 259.283,293.785 228.990 C 290.520 214.861,280.103 202.220,266.266 195.595 C 260.206 192.693,260.182 192.193,265.943 188.811 C 284.406 177.974,291.244 156.563,284.631 130.298 C 279.233 108.861,256.965 94.934,224.000 92.378 C 220.810 92.130,216.400 91.774,214.200 91.586 C 207.055 90.977,118.006 91.142,116.568 91.768 M212.800 91.992 C 215.550 92.198,220.410 92.556,223.600 92.789 C 256.591 95.193,278.815 109.069,284.207 130.629 C 290.798 156.984,284.085 177.613,265.327 188.654 C 259.386 192.150,259.442 192.725,266.049 196.008 C 290.434 208.125,300.708 234.275,293.157 265.000 C 288.382 284.426,274.027 297.417,250.101 303.965 C 241.351 306.359,239.253 306.783,234.093 307.198 C 231.512 307.406,227.690 307.803,225.600 308.082 C 221.312 308.654,119.504 308.853,117.505 308.294 C 114.801 307.537,115.033 317.315,114.957 200.637 C 114.885 89.400,114.822 93.089,116.831 92.244 C 118.262 91.642,205.089 91.414,212.800 91.992 M173.682 130.019 C 171.680 130.822,171.600 131.684,171.602 152.287 C 171.605 172.205,171.731 173.886,173.305 174.988 C 174.751 176.002,206.819 175.874,211.855 174.835 C 221.829 172.777,226.975 167.996,229.197 158.724 C 232.715 144.053,225.073 132.989,209.650 130.424 C 204.271 129.529,175.705 129.207,173.682 130.019 M209.740 130.971 C 216.541 132.134,220.280 133.793,223.484 137.071 C 233.306 147.118,230.960 165.878,219.138 171.831 C 213.159 174.842,212.350 174.941,192.308 175.105 L 174.415 175.252 173.446 174.282 C 172.073 172.910,171.973 171.116,172.095 150.065 L 172.200 131.930 173.322 130.965 L 174.445 130.000 189.322 130.012 C 203.114 130.023,204.604 130.093,209.740 130.971 M174.200 214.378 C 171.670 215.414,171.812 213.821,171.684 242.644 L 171.567 268.804 172.513 269.750 C 174.264 271.501,211.105 271.406,217.800 269.633 C 232.466 265.751,239.189 256.733,238.684 241.622 C 238.141 225.411,232.130 218.267,216.317 215.038 C 211.080 213.969,176.523 213.427,174.200 214.378 M212.600 214.820 C 230.617 217.422,237.669 224.791,238.283 241.663 C 238.820 256.397,232.533 264.857,217.905 269.083 L 214.200 270.153 194.105 270.300 L 174.011 270.447 172.981 269.418 L 171.952 268.388 172.076 242.694 C 172.211 214.720,172.140 215.530,174.509 214.845 C 176.272 214.336,209.097 214.314,212.600 214.820 " stroke="none" fill="#90849c" fill-rule="evenodd"></path><path id="path7" d="M78.200 23.695 C 76.000 23.857,72.940 24.258,71.400 24.585 C 69.860 24.913,67.367 25.372,65.860 25.605 C 62.611 26.107,59.256 27.565,54.033 30.743 C 51.925 32.027,49.390 33.540,48.400 34.106 C 44.068 36.584,35.626 46.084,31.828 52.755 C 27.139 60.992,26.898 61.609,25.486 69.000 L 24.263 75.400 24.118 123.381 C 24.038 149.770,24.073 171.260,24.196 171.137 C 24.319 171.014,24.492 149.693,24.581 123.757 C 24.692 91.198,24.881 75.795,25.193 74.000 C 29.006 52.061,39.702 38.014,59.787 28.567 C 66.890 25.227,76.748 24.060,96.600 24.209 C 102.540 24.254,152.580 24.409,207.800 24.553 C 308.476 24.817,327.612 25.059,331.400 26.117 C 333.374 26.668,340.734 29.768,345.400 32.013 C 350.605 34.518,358.198 40.963,362.352 46.400 C 367.120 52.642,369.597 57.356,372.443 65.599 C 374.743 72.261,374.599 63.489,374.980 220.800 C 375.101 270.850,375.299 313.330,375.419 315.200 C 376.233 327.869,372.491 340.431,364.041 353.397 C 358.501 361.895,343.285 372.233,333.400 374.213 C 331.860 374.522,329.340 375.078,327.800 375.451 C 325.243 376.069,319.395 376.140,260.400 376.271 C 224.870 376.351,195.530 376.483,195.200 376.567 C 194.870 376.650,224.210 376.679,260.400 376.632 C 310.143 376.568,326.639 376.430,328.000 376.066 C 328.990 375.802,331.240 375.320,333.000 374.995 C 346.043 372.587,360.551 361.252,368.593 347.187 C 373.034 339.420,373.349 338.629,374.716 331.800 L 375.757 326.600 375.893 200.800 C 375.989 111.710,375.902 74.258,375.595 72.458 C 374.746 67.474,369.572 53.739,367.490 50.940 C 366.696 49.873,364.975 47.470,363.666 45.600 C 360.964 41.740,357.722 38.569,352.627 34.800 C 347.520 31.024,346.852 30.618,344.200 29.687 C 342.880 29.224,339.640 28.009,337.000 26.988 C 330.505 24.477,328.140 24.024,320.200 23.774 C 309.561 23.439,82.683 23.364,78.200 23.695 M118.309 92.272 C 117.709 92.371,116.874 92.888,116.454 93.423 C 115.535 94.590,115.401 303.460,116.317 305.676 C 116.979 307.278,117.868 307.562,122.855 307.767 L 127.400 307.954 123.012 307.565 C 116.291 306.970,116.145 306.697,116.263 295.000 C 116.294 291.920,116.320 286.520,116.320 283.000 C 116.320 279.480,116.325 274.350,116.332 271.600 C 116.339 268.850,116.339 263.990,116.334 260.800 C 116.328 257.610,116.319 252.570,116.315 249.600 C 116.311 246.630,116.303 241.770,116.299 238.800 C 116.294 235.830,116.300 230.790,116.311 227.600 C 116.322 224.410,116.317 219.460,116.300 216.600 C 116.283 213.740,116.281 208.880,116.296 205.800 C 116.311 202.720,116.307 197.500,116.286 194.200 C 116.265 190.900,116.267 185.995,116.290 183.300 C 116.344 176.908,116.342 167.685,116.285 161.300 C 116.260 158.495,116.262 153.500,116.291 150.200 C 116.382 139.639,116.345 107.167,116.231 97.114 C 116.186 93.235,116.561 92.955,121.519 93.162 C 123.653 93.251,126.570 93.309,128.000 93.291 C 141.034 93.129,167.893 93.054,169.800 93.175 C 171.120 93.258,175.620 93.189,179.800 93.021 C 184.737 92.823,188.564 92.868,190.723 93.150 C 193.159 93.468,195.442 93.459,199.279 93.118 C 203.372 92.754,205.612 92.762,209.556 93.157 C 212.330 93.435,217.853 93.817,221.828 94.007 C 228.059 94.305,230.017 94.572,236.028 95.949 C 239.863 96.827,243.990 97.724,245.200 97.943 C 264.743 101.475,280.706 116.571,283.570 134.227 C 284.032 137.072,284.702 140.987,285.059 142.926 C 285.887 147.415,285.598 154.168,284.407 158.200 C 283.951 159.740,283.227 162.597,282.797 164.548 C 280.810 173.560,274.102 182.226,265.446 186.965 C 257.103 191.533,257.005 192.945,264.768 196.702 C 280.217 204.177,290.661 217.594,292.627 232.487 C 292.955 234.969,293.488 238.747,293.811 240.882 C 294.565 245.852,294.552 251.834,293.780 255.400 C 293.446 256.940,292.735 260.372,292.200 263.027 C 289.253 277.640,278.977 290.979,266.516 296.369 C 264.582 297.205,261.253 298.647,259.117 299.573 C 256.982 300.498,253.292 301.785,250.917 302.431 C 239.047 305.662,239.135 305.645,232.510 306.015 C 228.940 306.215,224.800 306.669,223.310 307.024 C 221.058 307.560,218.911 307.636,210.600 307.474 C 201.281 307.292,201.050 307.304,207.200 307.645 C 219.608 308.333,236.699 307.003,244.600 304.734 C 246.140 304.291,249.041 303.498,251.047 302.971 C 254.163 302.152,262.427 298.883,268.800 295.948 C 280.109 290.742,290.011 277.089,292.992 262.591 C 293.579 259.736,294.314 256.320,294.624 255.000 C 296.344 247.683,294.121 230.871,290.234 221.800 C 284.600 208.650,277.051 201.402,262.106 194.795 C 258.468 193.186,258.977 191.327,263.709 188.947 C 282.644 179.423,290.617 157.098,284.191 131.600 C 279.795 114.158,264.985 101.189,244.200 96.582 C 234.754 94.488,229.219 93.591,223.400 93.213 C 219.880 92.985,216.370 92.664,215.600 92.500 C 214.307 92.225,140.520 92.162,129.200 92.427 C 126.450 92.491,123.120 92.442,121.800 92.318 C 120.480 92.194,118.909 92.174,118.309 92.272 M176.491 128.388 C 170.275 129.096,170.277 129.090,170.193 147.800 C 170.092 170.368,170.468 174.840,172.579 176.223 C 174.733 177.635,208.615 177.145,213.911 175.626 C 219.434 174.042,224.177 171.461,225.997 169.050 C 231.002 162.421,232.704 151.189,229.776 144.114 C 224.921 132.386,215.506 127.860,197.000 128.359 C 194.360 128.430,189.320 128.392,185.800 128.273 C 182.280 128.154,178.091 128.206,176.491 128.388 M204.000 129.373 C 225.528 130.205,236.408 145.847,228.010 163.891 C 223.064 174.518,216.922 176.322,185.487 176.380 C 169.471 176.410,171.046 179.026,171.045 152.400 C 171.044 128.590,170.811 129.732,175.771 129.209 C 178.174 128.956,195.881 129.059,204.000 129.373 M24.191 203.400 C 24.191 221.000,24.240 228.142,24.300 219.270 C 24.360 210.399,24.360 195.999,24.300 187.270 C 24.240 178.542,24.191 185.800,24.191 203.400 M173.400 213.178 C 170.375 214.416,170.071 217.671,170.223 247.136 C 170.354 272.421,170.195 270.921,172.860 272.025 C 173.823 272.424,174.966 272.419,178.609 271.999 C 182.354 271.568,184.007 271.567,187.983 271.998 C 190.974 272.322,194.437 272.421,197.086 272.259 C 205.507 271.744,201.715 271.400,187.320 271.372 L 172.683 271.344 171.819 270.340 L 170.955 269.336 170.991 243.168 C 171.030 215.178,171.009 215.468,173.065 214.121 C 174.081 213.455,175.562 213.396,192.582 213.350 L 211.000 213.299 217.375 214.621 C 233.056 217.873,238.307 224.261,239.225 241.200 C 240.251 260.157,229.112 271.019,208.400 271.260 L 202.200 271.332 207.800 271.614 C 224.982 272.480,239.295 261.722,239.926 247.467 C 240.835 226.923,234.788 217.780,217.903 214.167 L 211.514 212.800 192.857 212.825 C 182.596 212.839,173.840 212.998,173.400 213.178 M24.166 249.600 C 24.166 253.670,24.225 255.335,24.298 253.300 C 24.371 251.265,24.371 247.935,24.298 245.900 C 24.225 243.865,24.166 245.530,24.166 249.600 M24.167 271.800 C 24.167 275.980,24.226 277.636,24.298 275.479 C 24.371 273.323,24.370 269.903,24.298 267.879 C 24.225 265.856,24.166 267.620,24.167 271.800 M24.165 294.800 C 24.165 298.650,24.225 300.225,24.298 298.300 C 24.371 296.375,24.371 293.225,24.298 291.300 C 24.225 289.375,24.165 290.950,24.165 294.800 M132.400 307.595 C 131.190 307.740,133.260 307.776,137.000 307.674 C 140.740 307.572,143.875 307.424,143.967 307.345 C 144.242 307.106,134.768 307.310,132.400 307.595 M159.100 307.495 C 160.255 307.576,162.145 307.576,163.300 307.495 C 164.455 307.414,163.510 307.348,161.200 307.348 C 158.890 307.348,157.945 307.414,159.100 307.495 M180.900 307.496 C 182.165 307.575,184.235 307.575,185.500 307.496 C 186.765 307.416,185.730 307.351,183.200 307.351 C 180.670 307.351,179.635 307.416,180.900 307.496 M147.519 307.898 C 149.344 307.972,152.224 307.972,153.919 307.897 C 155.614 307.822,154.120 307.761,150.600 307.762 C 147.080 307.762,145.694 307.824,147.519 307.898 M167.300 307.894 C 168.345 307.976,170.055 307.976,171.100 307.894 C 172.145 307.812,171.290 307.744,169.200 307.744 C 167.110 307.744,166.255 307.812,167.300 307.894 M175.900 307.882 C 176.395 307.978,177.205 307.978,177.700 307.882 C 178.195 307.787,177.790 307.709,176.800 307.709 C 175.810 307.709,175.405 307.787,175.900 307.882 M191.119 307.898 C 192.944 307.972,195.824 307.972,197.519 307.897 C 199.214 307.822,197.720 307.761,194.200 307.762 C 190.680 307.762,189.294 307.824,191.119 307.898 M24.166 317.600 C 24.166 321.670,24.225 323.335,24.298 321.300 C 24.371 319.265,24.371 315.935,24.298 313.900 C 24.225 311.865,24.166 313.530,24.166 317.600 M24.608 327.600 C 24.791 330.007,26.274 335.460,26.645 335.088 C 26.735 334.998,26.518 334.132,26.163 333.162 C 25.808 332.193,25.269 329.960,24.965 328.200 L 24.412 325.000 24.608 327.600 M29.841 344.000 C 30.366 346.143,31.638 348.499,33.885 351.486 C 35.173 353.199,36.569 355.140,36.985 355.800 C 38.159 357.659,42.004 361.559,44.000 362.915 C 44.990 363.587,46.700 364.870,47.800 365.765 C 48.900 366.661,49.549 367.074,49.241 366.685 C 48.934 366.295,47.044 364.742,45.041 363.234 C 40.532 359.838,39.687 358.942,35.569 353.200 C 32.628 349.100,31.866 347.825,30.066 344.000 L 29.596 343.000 29.841 344.000 M50.344 367.732 C 50.983 368.503,54.810 370.523,55.094 370.240 C 55.225 370.108,55.158 370.000,54.943 370.000 C 54.729 370.000,53.506 369.370,52.227 368.599 C 50.948 367.829,50.100 367.439,50.344 367.732 M60.000 372.333 C 60.330 372.536,61.050 372.824,61.600 372.971 C 62.295 373.157,62.417 373.125,62.000 372.867 C 61.670 372.664,60.950 372.376,60.400 372.229 C 59.705 372.043,59.583 372.075,60.000 372.333 M63.800 373.755 C 64.460 374.055,65.450 374.411,66.000 374.546 C 66.803 374.743,66.764 374.684,65.800 374.245 C 65.140 373.945,64.150 373.589,63.600 373.454 C 62.797 373.257,62.836 373.316,63.800 373.755 M67.800 375.200 C 68.240 375.389,68.870 375.544,69.200 375.544 C 69.578 375.544,69.504 375.417,69.000 375.200 C 68.560 375.011,67.930 374.856,67.600 374.856 C 67.222 374.856,67.296 374.983,67.800 375.200 M70.800 375.980 C 71.799 376.320,74.282 376.532,73.967 376.251 C 73.875 376.169,72.900 375.999,71.800 375.872 C 70.451 375.716,70.126 375.751,70.800 375.980 M76.700 376.695 C 77.855 376.776,79.745 376.776,80.900 376.695 C 82.055 376.614,81.110 376.548,78.800 376.548 C 76.490 376.548,75.545 376.614,76.700 376.695 M100.915 376.696 C 102.188 376.776,104.168 376.775,105.315 376.694 C 106.462 376.614,105.420 376.549,103.000 376.550 C 100.580 376.551,99.642 376.616,100.915 376.696 M120.700 376.682 C 121.195 376.778,122.005 376.778,122.500 376.682 C 122.995 376.587,122.590 376.509,121.600 376.509 C 120.610 376.509,120.205 376.587,120.700 376.682 M133.705 376.687 C 134.314 376.779,135.214 376.777,135.705 376.682 C 136.197 376.587,135.700 376.511,134.600 376.514 C 133.500 376.517,133.097 376.595,133.705 376.687 M145.913 376.695 C 147.076 376.776,148.876 376.776,149.913 376.693 C 150.951 376.611,150.000 376.545,147.800 376.546 C 145.600 376.547,144.751 376.614,145.913 376.695 M168.300 376.693 C 169.235 376.777,170.765 376.777,171.700 376.693 C 172.635 376.609,171.870 376.540,170.000 376.540 C 168.130 376.540,167.365 376.609,168.300 376.693 M190.291 376.689 C 191.001 376.777,192.261 376.779,193.091 376.692 C 193.921 376.605,193.340 376.533,191.800 376.531 C 190.260 376.529,189.581 376.600,190.291 376.689 " stroke="none" fill="#ac8c9c" fill-rule="evenodd"></path><path id="path8" d="M76.524 26.260 C 49.629 29.400,29.928 48.790,27.003 75.000 C 26.257 81.685,26.063 321.489,26.799 327.136 C 27.236 330.490,29.157 336.659,31.615 342.600 C 38.763 359.883,60.565 374.607,78.600 374.332 L 83.000 374.265 78.000 373.998 C 75.250 373.851,72.100 373.505,71.000 373.228 C 49.656 367.863,36.178 355.505,29.175 334.876 C 26.677 327.521,26.772 332.203,26.815 218.808 C 26.837 161.714,26.845 107.620,26.833 98.600 C 26.800 73.511,27.707 67.257,32.866 57.000 C 41.508 39.815,55.851 29.695,75.400 26.989 C 82.306 26.033,314.378 26.596,322.600 27.588 C 329.923 28.473,331.569 28.795,335.000 30.016 C 352.783 36.345,363.518 47.445,370.188 66.400 C 372.230 72.203,372.162 68.522,372.592 197.000 C 373.039 330.585,373.074 326.760,371.327 333.000 C 365.042 355.440,347.034 370.965,324.266 373.575 C 321.842 373.852,291.059 374.029,233.400 374.097 C 185.440 374.154,147.910 374.316,150.000 374.457 C 154.843 374.784,319.651 374.516,323.400 374.174 C 349.401 371.807,370.785 350.945,373.201 325.589 C 373.718 320.168,373.316 78.009,372.782 73.200 C 370.964 56.810,357.364 38.523,342.000 31.809 C 329.010 26.133,331.523 26.362,280.200 26.170 C 156.445 25.705,80.990 25.739,76.524 26.260 M140.582 90.000 C 113.673 90.220,114.538 90.134,113.559 92.707 C 112.901 94.438,113.251 306.740,113.914 307.900 C 115.320 310.361,111.427 310.189,168.330 310.311 C 213.475 310.407,220.793 310.340,225.548 309.788 C 228.546 309.440,233.160 308.907,235.800 308.603 C 258.598 305.982,278.057 295.947,287.387 282.000 C 294.535 271.315,299.041 252.626,297.223 241.200 C 296.961 239.550,296.491 236.580,296.180 234.600 C 293.310 216.354,281.972 200.767,267.077 194.590 C 263.423 193.074,263.086 192.377,265.251 190.809 C 266.169 190.144,267.065 189.600,267.243 189.600 C 267.420 189.600,269.345 188.260,271.520 186.621 C 279.809 180.377,285.633 170.686,287.399 160.200 C 287.547 159.320,287.923 157.303,288.234 155.717 C 288.956 152.040,288.939 144.958,288.200 141.600 C 287.885 140.170,287.622 138.364,287.614 137.587 C 287.606 136.810,287.331 135.190,287.003 133.987 C 286.674 132.784,286.134 130.573,285.803 129.073 C 283.550 118.885,273.546 106.897,262.305 100.917 C 253.266 96.109,237.969 92.039,225.800 91.204 C 222.500 90.978,219.080 90.594,218.200 90.352 C 216.367 89.846,179.653 89.680,140.582 90.000 M214.000 90.774 C 216.090 90.957,220.410 91.324,223.600 91.591 C 256.883 94.374,280.108 108.456,284.993 128.815 C 285.334 130.237,285.799 132.030,286.026 132.800 C 291.171 150.260,286.195 172.134,274.564 183.182 C 271.916 185.698,270.160 186.982,264.500 190.542 C 261.698 192.305,262.078 192.828,268.400 195.920 C 290.954 206.947,301.532 234.584,294.535 264.200 C 288.752 288.677,267.152 304.603,234.807 308.237 C 231.833 308.571,227.870 309.054,226.000 309.310 C 223.553 309.646,207.791 309.775,169.756 309.771 C 112.195 309.765,115.628 309.895,114.441 307.676 C 114.195 307.217,113.978 268.026,113.848 200.535 C 113.618 81.552,113.377 91.940,116.400 90.934 C 118.067 90.379,207.786 90.232,214.000 90.774 M173.829 131.428 C 172.792 132.465,172.766 133.067,172.885 153.258 C 172.996 171.966,173.030 172.750,173.787 173.586 L 174.575 174.456 192.787 174.294 C 212.938 174.115,213.031 174.104,218.453 171.373 C 225.080 168.036,228.283 162.399,228.694 153.347 C 229.249 141.149,222.517 133.627,209.242 131.613 C 202.009 130.516,174.883 130.374,173.829 131.428 M208.472 132.156 C 221.870 134.170,228.128 140.548,228.142 152.200 C 228.155 163.793,222.346 171.124,211.492 173.215 C 206.981 174.084,175.441 174.124,174.378 173.262 L 173.400 172.470 173.433 152.641 C 173.464 134.042,173.511 132.761,174.195 132.006 C 175.377 130.699,199.488 130.805,208.472 132.156 M174.494 215.615 C 173.996 215.815,173.411 216.445,173.194 217.015 C 172.729 218.240,172.652 267.947,173.114 268.675 C 174.187 270.362,209.592 270.316,216.636 268.619 C 231.163 265.118,237.602 257.119,237.599 242.574 C 237.596 227.117,231.239 219.231,216.354 216.221 C 211.032 215.144,176.895 214.650,174.494 215.615 M217.400 217.047 C 230.948 220.025,237.191 228.098,237.198 242.649 C 237.204 256.761,230.618 264.751,216.172 268.156 L 211.744 269.200 193.134 269.200 C 175.469 269.200,174.490 269.162,173.848 268.453 C 172.939 267.449,173.017 217.783,173.929 216.685 C 175.181 215.177,210.220 215.469,217.400 217.047 M126.500 374.291 C 127.325 374.378,128.675 374.378,129.500 374.291 C 130.325 374.205,129.650 374.134,128.000 374.134 C 126.350 374.134,125.675 374.205,126.500 374.291 M89.125 374.699 C 92.493 374.766,97.893 374.766,101.125 374.699 C 104.356 374.632,101.600 374.577,95.000 374.577 C 88.400 374.577,85.756 374.632,89.125 374.699 M112.500 374.698 C 114.645 374.770,118.155 374.770,120.300 374.698 C 122.445 374.626,120.690 374.567,116.400 374.567 C 112.110 374.567,110.355 374.626,112.500 374.698 M136.120 374.698 C 138.055 374.772,141.115 374.771,142.920 374.697 C 144.724 374.623,143.140 374.563,139.400 374.564 C 135.660 374.564,134.184 374.625,136.120 374.698 " stroke="none" fill="#6a546c" fill-rule="evenodd"></path></g></svg>